<svg width="50" height="51" viewBox="0 0 50 51" fill="none" xmlns="http://www.w3.org/2000/svg">
<path d="M45.2077 39.9388L38.7494 33.4805C37.291 35.7721 35.2077 37.8555 32.916 39.3138L39.3743 45.7721C40.2077 46.6055 41.4577 46.6055 42.291 45.7721L45.2077 42.8555C46.041 42.0221 46.041 40.7721 45.2077 39.9388Z" fill="black"/>
<path d="M22.916 42.2305C12.4993 42.2305 4.16602 33.8971 4.16602 23.4805C4.16602 13.0638 12.4993 4.73047 22.916 4.73047C33.3327 4.73047 41.666 13.0638 41.666 23.4805C41.666 33.8971 33.3327 42.2305 22.916 42.2305ZM22.916 8.89714C14.791 8.89714 8.33268 15.3555 8.33268 23.4805C8.33268 31.6055 14.791 38.0638 22.916 38.0638C31.041 38.0638 37.4993 31.6055 37.4993 23.4805C37.4993 15.3555 31.041 8.89714 22.916 8.89714ZM16.666 23.4805C16.666 19.9388 19.3743 17.2305 22.916 17.2305C24.166 17.2305 24.9993 16.3971 24.9993 15.1471C24.9993 13.8971 24.166 13.0638 22.916 13.0638C17.0827 13.0638 12.4993 17.6471 12.4993 23.4805C12.4993 24.7305 13.3327 25.5638 14.5827 25.5638C15.8327 25.5638 16.666 24.7305 16.666 23.4805Z" fill="#F0A431"/>
</svg>
