<svg width="50" height="51" viewBox="0 0 50 51" fill="none" xmlns="http://www.w3.org/2000/svg">
<path d="M43.541 27.4388C42.291 27.4388 41.4577 26.6055 41.4577 25.3555C41.4577 24.1055 42.291 23.2721 43.541 23.2721H45.416C44.3743 13.4805 36.666 5.5638 26.8743 4.73047V6.60547C26.8743 7.85547 26.041 8.68881 24.791 8.68881C23.541 8.68881 22.7077 7.85547 22.7077 6.60547V4.73047C12.916 5.77214 4.99935 13.4805 4.16602 23.2721H6.041C7.291 23.2721 8.12434 24.1055 8.12434 25.3555C8.12434 26.6055 7.291 27.4388 6.041 27.4388H4.16602C5.20768 37.2305 12.916 45.1471 22.7077 45.9805V44.1055C22.7077 42.8555 23.541 42.0221 24.791 42.0221C26.041 42.0221 26.8743 42.8555 26.8743 44.1055V45.9805C36.666 44.9388 44.5827 37.2305 45.416 27.4388H43.541Z" fill="#F0A431"/>
<path d="M35.2077 23.2734H28.3327C27.916 22.6484 27.4993 22.2318 26.8743 21.8151V12.8568C26.8743 11.6068 26.041 10.7734 24.791 10.7734C23.541 10.7734 22.7077 11.6068 22.7077 12.8568V21.8151C22.0827 22.2318 21.666 22.6484 21.2494 23.2734H20.6243C19.3743 23.2734 18.541 24.1068 18.541 25.3568C18.541 26.6068 19.3743 27.4401 20.6243 27.4401H21.2494C21.666 28.0651 22.0827 28.4818 22.7077 28.8984V29.5234C22.7077 30.7734 23.541 31.6068 24.791 31.6068C26.041 31.6068 26.8743 30.7734 26.8743 29.5234V28.8984C27.4993 28.4818 27.916 28.0651 28.3327 27.4401H35.2077C36.4577 27.4401 37.291 26.6068 37.291 25.3568C37.291 24.1068 36.4577 23.2734 35.2077 23.2734Z" fill="black"/>
</svg>
