<svg width="50" height="51" viewBox="0 0 50 51" fill="none" xmlns="http://www.w3.org/2000/svg">
<path d="M39.583 46.3971H10.4163C9.16634 46.3971 8.33301 45.5638 8.33301 44.3138V6.8138C8.33301 5.5638 9.16634 4.73047 10.4163 4.73047H29.1663L41.6663 17.2305V44.3138C41.6663 45.5638 40.833 46.3971 39.583 46.3971ZM31.2497 35.9805C31.2497 34.7305 30.4163 33.8971 29.1663 33.8971H16.6663C15.4163 33.8971 14.583 34.7305 14.583 35.9805C14.583 37.2305 15.4163 38.0638 16.6663 38.0638H29.1663C30.4163 38.0638 31.2497 37.2305 31.2497 35.9805ZM35.4163 25.5638C35.4163 24.3138 34.583 23.4805 33.333 23.4805H16.6663C15.4163 23.4805 14.583 24.3138 14.583 25.5638C14.583 26.8138 15.4163 27.6471 16.6663 27.6471H33.333C34.583 27.6471 35.4163 26.8138 35.4163 25.5638ZM35.4163 15.1471C35.4163 13.8971 34.583 13.0638 33.333 13.0638H16.6663C15.4163 13.0638 14.583 13.8971 14.583 15.1471C14.583 16.3971 15.4163 17.2305 16.6663 17.2305H33.333C34.583 17.2305 35.4163 16.3971 35.4163 15.1471Z" fill="#F0A431"/>
<path d="M31.2503 17.2305H41.667L29.167 4.73047V15.1471C29.167 16.3971 30.0003 17.2305 31.2503 17.2305Z" fill="black"/>
</svg>
