<svg width="50" height="51" viewBox="0 0 50 51" fill="none" xmlns="http://www.w3.org/2000/svg">
<path d="M25 46.3984C28.4518 46.3984 31.25 43.6002 31.25 40.1484C31.25 36.6967 28.4518 33.8984 25 33.8984C21.5482 33.8984 18.75 36.6967 18.75 40.1484C18.75 43.6002 21.5482 46.3984 25 46.3984Z" fill="#333333"/>
<path d="M39.5827 31.8138V38.0638C39.5827 39.3138 38.7493 40.1471 37.4993 40.1471H12.4993C11.2493 40.1471 10.416 39.3138 10.416 38.0638V31.8138C12.7077 31.8138 14.5827 29.9388 14.5827 27.6471V21.3971C14.5827 16.3971 18.1243 12.2305 22.916 11.1888V6.8138C22.916 5.5638 23.7493 4.73047 24.9993 4.73047C26.2493 4.73047 27.0827 5.5638 27.0827 6.8138V11.1888C31.8743 12.2305 35.416 16.3971 35.416 21.3971V27.6471C35.416 29.9388 37.291 31.8138 39.5827 31.8138ZM22.916 21.3971C22.916 20.1471 23.7493 19.3138 24.9993 19.3138C26.2493 19.3138 27.0827 18.4805 27.0827 17.2305C27.0827 15.9805 26.2493 15.1471 24.9993 15.1471C21.4577 15.1471 18.7493 17.8555 18.7493 21.3971C18.7493 22.6471 19.5827 23.4805 20.8327 23.4805C22.0827 23.4805 22.916 22.6471 22.916 21.3971Z" fill="#F0A431"/>
</svg>
