<svg width="50" height="51" viewBox="0 0 50 51" fill="none" xmlns="http://www.w3.org/2000/svg">
<path d="M45.8327 25.5638C45.8327 37.0221 36.4577 46.3971 24.9994 46.3971C13.541 46.3971 4.16602 37.0221 4.16602 25.5638C4.16602 14.1055 13.541 4.73047 24.9994 4.73047C36.4577 4.73047 45.8327 14.1055 45.8327 25.5638ZM24.9994 21.3971C22.7077 21.3971 20.8327 23.2721 20.8327 25.5638C20.8327 27.8555 22.7077 29.7305 24.9994 29.7305C27.291 29.7305 29.166 27.8555 29.166 25.5638C29.166 23.2721 27.291 21.3971 24.9994 21.3971ZM13.3327 21.1888C14.5827 17.6471 17.4994 14.9388 21.041 13.8971C22.0827 13.4805 22.7077 12.4388 22.291 11.1888C21.8743 10.1471 20.8327 9.52214 19.5827 9.9388C14.791 11.6055 11.041 15.1471 9.166 19.7305C8.74934 20.7721 9.37435 22.0221 10.416 22.4388C10.6243 22.4388 10.8327 22.6472 11.2493 22.6472C12.291 22.4388 12.916 21.8138 13.3327 21.1888ZM30.8327 41.1888C35.416 39.5221 39.166 35.7721 40.8327 31.1888C41.2494 30.1471 40.6244 28.8971 39.5827 28.4805C38.541 28.0638 37.291 28.6888 36.8744 29.7305C35.6244 33.2721 32.916 35.9805 29.3744 37.2305C28.3327 37.6472 27.7077 38.8971 28.1244 39.9388C28.3327 40.7721 29.166 41.3972 29.9993 41.3972C30.2077 41.3972 30.416 41.3971 30.8327 41.1888Z" fill="#F0A431"/>
<path d="M33.3327 25.5638C33.3327 30.1471 29.5827 33.8971 24.9993 33.8971C20.416 33.8971 16.666 30.1471 16.666 25.5638C16.666 20.9805 20.416 17.2305 24.9993 17.2305C29.5827 17.2305 33.3327 20.9805 33.3327 25.5638ZM24.9993 21.3971C22.7077 21.3971 20.8327 23.2721 20.8327 25.5638C20.8327 27.8555 22.7077 29.7305 24.9993 29.7305C27.291 29.7305 29.166 27.8555 29.166 25.5638C29.166 23.2721 27.291 21.3971 24.9993 21.3971Z" fill="black"/>
</svg>
