<svg width="50" height="51" viewBox="0 0 50 51" fill="none" xmlns="http://www.w3.org/2000/svg">
<path d="M40 0.763672H10C4.5 0.763672 0 5.26367 0 10.7637V40.7637C0 46.2637 4.5 50.7637 10 50.7637H40C45.5 50.7637 50 46.2637 50 40.7637V10.7637C50 5.26367 45.5 0.763672 40 0.763672ZM37.5 25.7637C37.5 27.5137 37 29.2637 36.5 30.7637H45V40.7637C45 43.5137 42.75 45.7637 40 45.7637H30V37.2637C28.5 38.0137 26.75 38.2637 25 38.2637C23.25 38.2637 21.5 37.7637 20 37.2637V45.7637H10C7.25 45.7637 5 43.5137 5 40.7637V30.7637H13.5C12.75 29.2637 12.5 27.5137 12.5 25.7637C12.5 24.0137 13 22.2637 13.5 20.7637H5V10.7637C5 8.01367 7.25 5.76367 10 5.76367H20V14.2637C21.5 13.5137 23.25 13.2637 25 13.2637C26.75 13.2637 28.5 13.7637 30 14.2637V5.76367H40C42.75 5.76367 45 8.01367 45 10.7637V20.7637H36.5C37 22.2637 37.5 24.0137 37.5 25.7637Z" fill="#F0A431"/>
<path d="M30 3.76367C38.5 5.76367 45 12.2637 47 20.7637H36.5C35.25 17.7637 33 15.5137 30 14.2637V3.76367ZM13.5 20.7637C14.75 17.7637 17 15.5137 20 14.2637V3.76367C11.5 5.76367 5.00003 12.2637 3.00003 20.7637H13.5ZM36.5 30.7637C35.25 33.7637 33 36.0137 30 37.2637V47.7637C38.5 45.7637 45 39.2637 47 30.7637H36.5ZM20 37.2637C17 36.0137 14.75 33.7637 13.5 30.7637H3.00003C5.00003 39.2637 11.5 45.7637 20 47.7637V37.2637Z" fill="black"/>
</svg>
