<svg width="11" height="14" viewBox="0 0 11 14" fill="none" xmlns="http://www.w3.org/2000/svg">
<path d="M9.03553 9.97499C8.56467 10.4458 7.68051 11.33 6.91421 12.0963C6.13316 12.8774 4.86703 12.8776 4.08598 12.0965C3.33421 11.3447 2.46437 10.4749 1.96447 9.97499C0.0118447 8.02237 0.0118447 4.85654 1.96447 2.90392C3.91709 0.951298 7.08291 0.951298 9.03553 2.90392C10.9882 4.85654 10.9882 8.02237 9.03553 9.97499Z" stroke="#4B5563" stroke-linecap="round" stroke-linejoin="round"/>
<path d="M7.375 6.43945C7.375 7.47499 6.53553 8.31445 5.5 8.31445C4.46447 8.31445 3.625 7.47499 3.625 6.43945C3.625 5.40392 4.46447 4.56445 5.5 4.56445C6.53553 4.56445 7.375 5.40392 7.375 6.43945Z" stroke="#4B5563" stroke-linecap="round" stroke-linejoin="round"/>
</svg>
