<svg width="210" height="25" viewBox="0 0 210 25" fill="none" xmlns="http://www.w3.org/2000/svg">
<path d="M19.0357 19.3617H15.4784L17.7061 5.81079H21.2635L19.0357 19.3617Z" fill="#00579F"/>
<path d="M31.9396 6.14342C31.237 5.86768 30.1253 5.56567 28.7469 5.56567C25.2341 5.56567 22.7574 7.40834 22.744 10.0476C22.7129 11.9953 24.5139 13.0764 25.8612 13.7242C27.2396 14.3851 27.7064 14.8184 27.7064 15.4093C27.693 16.3153 26.5948 16.7355 25.5676 16.7355C24.1492 16.7355 23.3888 16.521 22.2283 16.0133L21.757 15.7988L21.259 18.8408C22.0949 19.2172 23.6334 19.5455 25.2253 19.563C28.9604 19.563 31.3926 17.7466 31.4193 14.9366C31.4327 13.3959 30.4811 12.2142 28.4313 11.2469C27.1862 10.6254 26.4258 10.2096 26.4258 9.57491C26.4391 8.99716 27.0705 8.40628 28.4756 8.40628C29.6317 8.37564 30.4811 8.65138 31.1258 8.92275L31.4459 9.06719L31.9396 6.14342Z" fill="#00579F"/>
<path d="M36.6659 14.5602C36.9594 13.7811 38.0889 10.7698 38.0889 10.7698C38.0755 10.8004 38.3823 9.97759 38.5557 9.47425L38.8047 10.6429C38.8047 10.6429 39.4805 13.8862 39.6273 14.5646C39.0715 14.5602 37.3685 14.5602 36.6659 14.5602ZM41.0592 5.81079H38.3067C37.4574 5.81079 36.8126 6.0559 36.448 6.93565L31.1611 19.3573H34.8962C34.8962 19.3573 35.5098 17.6853 35.6432 17.3264C36.0523 17.3264 39.6851 17.3264 40.2098 17.3264C40.3121 17.8035 40.6367 19.3573 40.6367 19.3573H43.9316L41.0592 5.81079Z" fill="#00579F"/>
<path d="M12.5078 5.81079L9.02171 15.0504L8.64379 13.1771C7.99904 11.0149 5.97589 8.6689 3.7215 7.50027L6.91405 19.3485H10.6759L16.2696 5.81517H12.5078V5.81079Z" fill="#00579F"/>
<path d="M5.7848 5.81079H0.0576851L-0.00012207 6.08654C4.4642 7.2114 7.42557 9.92069 8.63947 13.1771L7.39445 6.95316C7.1899 6.08654 6.5585 5.84143 5.7848 5.81079Z" fill="#FAA61A"/>
<path d="M86.392 18.9824V18.5786H86.2856L86.1633 18.8543L86.041 18.5786H85.9344V18.9824H86.0094V18.6796L86.1238 18.9397H86.2028L86.3171 18.6796V18.9824H86.392ZM85.7215 18.9824V18.6485H85.8596V18.5786H85.5124V18.6485H85.6505V18.9824H85.7215Z" fill="#F79410"/>
<path d="M74.294 20.7116H65.0834V4.41724H74.294V20.7116Z" fill="#FF5F00"/>
<path d="M65.6728 12.5642C65.6728 9.26018 67.2427 6.31333 69.6921 4.41865C67.9014 3.03258 65.6413 2.20171 63.188 2.20171C57.374 2.20171 52.6605 6.84135 52.6605 12.5642C52.6605 18.2871 57.374 22.9268 63.188 22.9268C65.6453 22.9268 67.9053 22.0998 69.6921 20.7098C67.2427 18.8113 65.6728 15.8683 65.6728 12.5642Z" fill="#EB001B"/>
<path d="M86.7157 12.5642C86.7157 18.2871 82.0022 22.9268 76.1883 22.9268C73.731 22.9268 71.4709 22.0998 69.6802 20.7098C72.1296 18.8113 73.6994 15.8683 73.6994 12.5642C73.6994 9.26018 72.1296 6.31333 69.6802 4.41865C71.4709 3.03258 73.731 2.20171 76.1883 2.20171C82.0022 2.20171 86.7157 6.84135 86.7157 12.5642Z" fill="#F79E1B"/>
<path d="M120.366 0.564453H95.4487V24.5645H120.366V16.6435C120.465 16.5062 120.513 16.3303 120.513 16.1159C120.513 15.8699 120.464 15.7177 120.366 15.5903" fill="url(#paint0_radial_337_7140)"/>
<path d="M97.7544 11.1958L97.2616 10.0141L96.7727 11.1958M108.61 10.7255C108.511 10.7848 108.395 10.7868 108.254 10.7868H107.38V10.1277H108.267C108.393 10.1277 108.524 10.1327 108.609 10.1821C108.703 10.2246 108.76 10.3165 108.76 10.4439C108.76 10.5733 108.704 10.6781 108.61 10.7255ZM114.851 11.1958L114.352 10.0141L113.857 11.1958H114.851ZM103.219 12.4763H102.481L102.479 10.1544L101.434 12.4763H100.802L99.7549 10.1515V12.4763H98.2903L98.0133 11.8153H96.5148L96.2357 12.4763H95.4538L96.7426 9.51122H97.8136L99.0371 12.3182V9.51122H100.213L101.155 11.5228L102.02 9.51122H103.219V12.4763ZM106.161 12.4763H103.756V9.51122H106.161V10.1287H104.475V10.6633H106.121V11.2709H104.475V11.8637H106.161V12.4763ZM109.552 10.3086C109.552 10.7818 109.232 11.0259 109.046 11.099C109.203 11.1573 109.339 11.263 109.401 11.348C109.502 11.4962 109.52 11.6276 109.52 11.8924V12.4753H108.793L108.791 12.1008C108.791 11.923 108.809 11.6661 108.677 11.5238C108.572 11.4191 108.411 11.3964 108.153 11.3964H107.379V12.4753H106.66V9.51024H108.315C108.682 9.51024 108.953 9.52011 109.187 9.65152C109.416 9.7849 109.552 9.97856 109.552 10.3086ZM110.706 12.4763H109.97V9.51122H110.706V12.4763ZM119.227 12.4763H118.207L116.843 10.2503V12.4763H115.376L115.096 11.8153H113.6L113.328 12.4763H112.486C112.135 12.4763 111.693 12.3992 111.442 12.1482C111.188 11.8963 111.057 11.5554 111.057 11.016C111.057 10.5763 111.135 10.1742 111.445 9.85703C111.677 9.6199 112.043 9.51122 112.539 9.51122H113.236V10.1465H112.553C112.29 10.1465 112.141 10.1851 111.999 10.3224C111.877 10.4469 111.792 10.683 111.792 10.9942C111.792 11.3124 111.856 11.5406 111.99 11.6908C112.1 11.8084 112.302 11.8439 112.491 11.8439H112.815L113.83 9.51221H114.908L116.127 12.3162V9.51221H117.224L118.49 11.5772V9.51221H119.226V12.4763H119.227ZM95.4448 13.0582H96.6764L96.9514 12.3992H97.5727L97.8497 13.0582H100.27V12.5553L100.487 13.0612H101.743L101.959 12.5474V13.0582H107.975L107.972 11.9773H108.089C108.169 11.9803 108.193 11.9872 108.193 12.1196V13.0582H111.307V12.8063C111.557 12.9387 111.947 13.0582 112.459 13.0582H113.769L114.049 12.3992H114.67L114.943 13.0582H117.466V12.4328L117.848 13.0582H119.87V8.92236H117.87V9.41045L117.59 8.92236H115.538V9.41045L115.28 8.92236H112.507C112.043 8.92236 111.635 8.9856 111.307 9.16344V8.92236H109.392V9.16344C109.182 8.98066 108.897 8.92236 108.58 8.92236H101.589L101.119 9.99041L100.638 8.92236H98.4369V9.41045L98.195 8.92236H96.318L95.4457 10.8885V13.0582H95.4448Z" fill="white"/>
<path d="M120.37 14.7888H119.125C119.002 14.7888 118.919 14.7938 118.849 14.8402C118.778 14.8856 118.749 14.9528 118.749 15.0427C118.749 15.1485 118.811 15.2216 118.898 15.2522C118.969 15.2769 119.047 15.2838 119.162 15.2838L119.531 15.2937C119.905 15.3026 120.154 15.3658 120.306 15.52C120.333 15.5417 120.35 15.5654 120.37 15.5901M120.37 16.6433C120.204 16.8824 119.881 17.003 119.442 17.003H118.124V16.3993H119.438C119.569 16.3993 119.66 16.3825 119.714 16.3301C119.762 16.2867 119.796 16.2234 119.796 16.1464C119.796 16.0644 119.762 16.0001 119.711 15.9606C119.662 15.9181 119.59 15.8984 119.471 15.8984C118.83 15.8776 118.03 15.9181 118.03 15.0279C118.03 14.6199 118.293 14.1901 119.011 14.1901H120.37V13.6309H119.106C118.725 13.6309 118.448 13.7208 118.251 13.8601V13.6309H116.382C116.083 13.6309 115.732 13.704 115.566 13.8601V13.6309H112.228V13.8601C111.962 13.6714 111.514 13.6309 111.307 13.6309H109.106V13.8601C108.895 13.6595 108.428 13.6309 108.143 13.6309H105.68L105.115 14.2316L104.588 13.6309H100.907V17.5553H104.519L105.1 16.9447L105.647 17.5553L107.873 17.5573V16.6335H108.093C108.388 16.6374 108.736 16.6265 109.043 16.4951V17.5543H110.879V16.5317H110.968C111.081 16.5317 111.092 16.5356 111.092 16.6473V17.5543H116.671C117.024 17.5543 117.395 17.4654 117.599 17.3033V17.5543H119.37C119.737 17.5543 120.098 17.5029 120.371 17.3735V16.6433H120.37ZM117.646 15.519C117.779 15.6543 117.85 15.8253 117.85 16.1147C117.85 16.7204 117.466 17.002 116.777 17.002H115.447V16.3983H116.772C116.902 16.3983 116.994 16.3815 117.05 16.3291C117.097 16.2857 117.132 16.2224 117.132 16.1454C117.132 16.0634 117.095 15.9991 117.048 15.9596C116.995 15.9171 116.924 15.8974 116.805 15.8974C116.166 15.8766 115.367 15.9171 115.367 15.0269C115.367 14.6189 115.627 14.1891 116.343 14.1891H117.712V14.7868H116.459C116.335 14.7868 116.254 14.7918 116.186 14.8382C116.112 14.8837 116.083 14.9509 116.083 15.0408C116.083 15.1465 116.146 15.2186 116.231 15.2502C116.303 15.2749 116.381 15.2818 116.498 15.2818L116.866 15.2917C117.237 15.3026 117.492 15.3648 117.646 15.519ZM111.486 15.3461C111.393 15.3994 111.281 15.4034 111.148 15.4034H110.318V14.772H111.159C111.281 14.772 111.402 14.774 111.486 14.8224C111.573 14.8679 111.627 14.9548 111.627 15.0754C111.626 15.1959 111.572 15.2927 111.486 15.3461ZM111.897 15.6958C112.049 15.7512 112.173 15.85 112.231 15.932C112.329 16.0693 112.342 16.1977 112.345 16.4457V17.003H111.659V16.6512C111.659 16.4823 111.675 16.2313 111.549 16.1009C111.448 16.0001 111.297 15.9754 111.048 15.9754H110.317V17.003H109.632V14.1901H111.207C111.553 14.1901 111.805 14.2059 112.029 14.3235C112.244 14.4509 112.38 14.6278 112.38 14.9479C112.381 15.3965 112.077 15.6257 111.897 15.6958ZM112.759 14.1901H115.039V14.772H113.44V15.2838H115V15.8579H113.44V16.4171L115.039 16.4191V17.003H112.759V14.1901ZM108.152 15.4883H107.27V14.772H108.161C108.407 14.772 108.578 14.8708 108.578 15.1168C108.578 15.3599 108.415 15.4883 108.152 15.4883ZM106.59 16.7471L105.542 15.601L106.59 14.4914V16.7471ZM103.882 16.4171H102.204V15.8579H103.704V15.2838H102.204V14.772H103.916L104.663 15.5911L103.882 16.4171ZM109.312 15.1168C109.312 15.8984 108.719 16.0594 108.122 16.0594H107.27V17.003H105.943L105.102 16.0723L104.227 17.003H101.523V14.1901H104.27L105.111 15.1119L105.978 14.1901H108.161C108.703 14.1901 109.312 14.3383 109.312 15.1168Z" fill="white"/>
<path d="M132.94 6.20093H129.242V18.9128H132.919C134.875 18.9128 136.287 18.4583 137.528 17.4456C139.001 16.2461 139.872 14.4371 139.872 12.5667C139.872 8.81424 137.024 6.20093 132.94 6.20093ZM135.882 15.7492C135.09 16.4536 134.062 16.7599 132.435 16.7599H131.759V8.35382H132.435C134.062 8.35382 135.049 8.64035 135.882 9.38235C136.753 10.1451 137.277 11.3287 137.277 12.546C137.277 13.7672 136.754 14.9864 135.882 15.7492Z" fill="#DEDEDE"/>
<path d="M143.55 6.20093H141.031V18.9128H143.55V6.20093Z" fill="#DEDEDE"/>
<path d="M149.709 11.0785C148.198 10.5272 147.754 10.1656 147.754 9.47795C147.754 8.67667 148.545 8.06903 149.631 8.06903C150.386 8.06903 151.006 8.37433 151.662 9.09855L152.98 7.39915C151.896 6.46745 150.601 5.99023 149.184 5.99023C146.9 5.99023 145.156 7.5523 145.156 9.63307C145.156 11.3838 145.968 12.281 148.333 13.1188C149.32 13.4616 149.821 13.6889 150.075 13.843C150.577 14.1661 150.831 14.6245 150.831 15.1581C150.831 16.1876 149.998 16.9513 148.874 16.9513C147.674 16.9513 146.705 16.3595 146.126 15.2559L144.498 16.7992C145.658 18.4758 147.052 19.2188 148.97 19.2188C151.586 19.2188 153.423 17.5056 153.423 15.0445C153.423 13.024 152.574 12.11 149.709 11.0785Z" fill="#DEDEDE"/>
<path d="M154.218 12.5657C154.218 16.3014 157.199 19.1992 161.035 19.1992C162.119 19.1992 163.048 18.9898 164.192 18.4582V15.5396C163.186 16.5316 162.292 16.9317 161.152 16.9317C158.616 16.9317 156.814 15.1217 156.814 12.5469C156.814 10.1065 158.673 8.18181 161.035 8.18181C162.236 8.18181 163.146 8.60468 164.192 9.61246V6.69484C163.086 6.14254 162.177 5.91431 161.094 5.91431C157.279 5.91332 154.218 8.86849 154.218 12.5657Z" fill="#DEDEDE"/>
<path d="M184.166 14.7384L180.721 6.20093H177.969L183.45 19.2388H184.805L190.384 6.20093H187.654L184.166 14.7384Z" fill="#DEDEDE"/>
<path d="M191.523 18.9118H198.667V16.7609H194.041V13.3295H198.496V11.1756H194.041V8.35382H198.667V6.20093H191.523V18.9118Z" fill="#DEDEDE"/>
<path d="M208.641 9.95342C208.641 7.57328 206.976 6.20093 204.07 6.20093H200.335V18.9128H202.851V13.8067H203.18L206.666 18.9128H209.764L205.699 13.5577C207.596 13.1773 208.641 11.8998 208.641 9.95342ZM203.587 12.053H202.852V8.20266H203.627C205.196 8.20266 206.05 8.84981 206.05 10.0868C206.05 11.3653 205.196 12.053 203.587 12.053Z" fill="#DEDEDE"/>
<path d="M171.86 19.3235C175.652 19.3235 178.727 16.2974 178.727 12.5645C178.727 8.83154 175.652 5.80542 171.86 5.80542C168.068 5.80542 164.993 8.83154 164.993 12.5645C164.993 16.2974 168.068 19.3235 171.86 19.3235Z" fill="#EF7622"/>
<defs>
<radialGradient id="paint0_radial_337_7140" cx="0" cy="0" r="1" gradientUnits="userSpaceOnUse" gradientTransform="translate(99.9029 4.75583) scale(23.3832 22.4403)">
<stop stop-color="#9DD5F6"/>
<stop offset="0.0711" stop-color="#98D3F5"/>
<stop offset="0.1575" stop-color="#89CEF3"/>
<stop offset="0.2516" stop-color="#70C6EF"/>
<stop offset="0.3514" stop-color="#4EBBEA"/>
<stop offset="0.4546" stop-color="#23ADE3"/>
<stop offset="0.5" stop-color="#0DA6E0"/>
<stop offset="1" stop-color="#2E77BC"/>
</radialGradient>
</defs>
</svg>
