<?xml version="1.0" encoding="utf-8"?>
<!-- Generator: Adobe Illustrator 16.0.0, SVG Export Plug-In . SVG Version: 6.00 Build 0)  -->
<!DOCTYPE svg PUBLIC "-//W3C//DTD SVG 1.1//EN" "http://www.w3.org/Graphics/SVG/1.1/DTD/svg11.dtd">
<svg version="1.1" id="Layer_1" xmlns="http://www.w3.org/2000/svg" xmlns:xlink="http://www.w3.org/1999/xlink" x="0px" y="0px"
	 width="210px" height="60px" viewBox="0 0 210 60" enable-background="new 0 0 210 60" xml:space="preserve">
<g>
	<g id="F1zWSU.tif">
		<g>
			<path fill="#FFFFFF" d="M119.271,34.926c0.008-0.095-0.017-0.398,0.061-0.674c0.758-2.725,3.1-4.18,5.909-3.588
				c1.079,0.229,2.103,0.716,3.173,1.01c0.995,0.273,2.008,0.547,3.029,0.639c1.056,0.097,1.938-0.349,2.529-1.527
				c-2.185,0.312-3.785-0.266-4.496-2.616c-0.806,0.62-1.496,1.217-2.258,1.702c-0.289,0.185-0.828,0.271-1.107,0.125
				c-1.772-0.923-3.506-1.925-5.254-2.902c0.537-1.28,0.524-9.636,0.017-10.648c2.315-1.321,4.625-2.638,6.95-3.965
				c1.82,1.255,3.714,2.559,5.529,3.808c-0.082,0.646-0.222,1.252-0.227,1.859c-0.023,2.897-0.021,5.795-0.004,8.692
				c0.006,0.982-0.025,2.03,1.443,2.003c0.127-0.003,0.343,0.274,0.375,0.448c0.502,2.562-1.852,6.082-4.446,6.314
				c-1.431,0.129-2.922-0.258-4.37-0.506c-1.127-0.193-2.223-0.717-3.342-0.758C121.693,34.301,120.587,34.688,119.271,34.926z
				 M125.075,15.009c-0.067,0.217-0.125,0.314-0.125,0.412c-0.007,3.112-0.025,6.226,0.015,9.337
				c0.006,0.311,0.297,0.721,0.575,0.906c0.89,0.598,1.839,1.105,2.758,1.658c0.896,0.538,1.089,0.454,1.097-0.581
				c0.015-2.668,0.022-5.336-0.02-8.003c-0.006-0.335-0.244-0.771-0.514-0.98C127.661,16.831,126.41,15.969,125.075,15.009z"/>
			<path fill="#FFFFFF" d="M87.877,8.272c0.3-1.471,0.941-2.333,2.066-2.728c1.634-0.573,3.044-0.1,4.172,1.148
				c0.434-0.4,0.827-0.763,1.219-1.124c0.093,0.024,0.186,0.048,0.277,0.072c-0.863,1.463-0.171,2.75,0.271,4.062
				c1.895,5.624,3.792,11.245,5.688,16.866c0.554,1.643,1.06,1.763,2.521,0.278c0.06,0.494,0.212,0.84,0.104,1.052
				c-0.249,0.491-0.592,0.944-0.955,1.364c-1.843,2.125-4.162,1.671-5.099-0.99c-0.567-1.609-1.157-3.211-1.668-4.836
				c-0.193-0.617-0.503-0.803-1.116-0.794c-2.043,0.028-4.087,0.028-6.131,0c-0.61-0.009-0.958,0.162-1.127,0.787
				c-0.212,0.784-0.521,1.541-0.793,2.323c0.759,0.282,1.47,0.706,2.214,0.773c0.603,0.055,1.245-0.318,2.124-0.577
				c-0.992,1.592-1.828,2.935-2.53,4.059c-1.436-0.315-2.739-0.841-4.034-0.82c-1.313,0.022-2.618,0.584-4.077,0.948
				c0.128-0.392,0.222-0.911,0.457-1.355c0.881-1.669,2.353-2.553,4.165-2.833c0.628-0.097,0.864-0.378,1.046-0.919
				c1.651-4.881,3.322-9.757,4.989-14.634c0.343-1.002-0.159-1.75-0.806-2.38c-0.629-0.612-1.404-0.59-2.164-0.166
				C88.51,7.951,88.323,8.042,87.877,8.272z M92.288,11.072c-1.081,3.194-2.072,6.124-3.098,9.15c2.13,0,4.084,0,6.201,0
				C94.369,17.212,93.375,14.281,92.288,11.072z"/>
			<path fill="#FFFFFF" d="M35.548,5.832C34.95,6.881,34.38,7.88,33.811,8.879c0.108,0.085,0.216,0.17,0.324,0.255
				C35.828,7.751,37.522,6.368,39.197,5c0.797,0.516,1.52,1.136,2.356,1.479c0.758,0.312,1.636,0.395,2.469,0.439
				c0.495,0.027,1.092-0.119,0.813-0.933c-0.046-0.135,0.147-0.351,0.23-0.529c0.188,0.139,0.534,0.274,0.538,0.418
				c0.014,0.505,0.006,1.048-0.167,1.511c-0.618,1.647-2.508,2.729-4.396,2.589c-0.439-0.033-0.878-0.079-1.377-0.125
				c0,5.06,0,10.06,0,14.973c1.628,0.358,3.202,0.702,4.774,1.052c0.783,0.174,1.125-0.335,1.492-0.888
				c0.16-0.241,0.473-0.38,0.718-0.565c0.092,0.096,0.184,0.191,0.275,0.287c-0.971,1.86-1.941,3.72-2.931,5.615
				c-3.408-2.443-7.056-1.608-10.671-0.986c-0.832,0.143-1.629,0.49-2.452,0.704c-0.262,0.069-0.556,0.011-0.961,0.011
				c2.999-4.086,3.429-8.261,1.476-12.723c-0.832-1.901-1.132-3.892-0.782-5.981c0.446-2.666,2.083-4.347,4.354-5.552
				c0.12-0.063,0.274-0.076,0.412-0.081C35.428,5.715,35.491,5.793,35.548,5.832z M38.938,25.044c0-4.988,0.003-9.996-0.011-15.005
				c-0.001-0.225-0.102-0.524-0.263-0.661c-0.591-0.496-1.228-0.939-1.903-1.443c-0.673,0.538-1.334,1.134-2.064,1.629
				c-0.67,0.454-0.972,0.996-0.751,1.782c0.509,1.811,0.903,3.668,1.573,5.419c1.28,3.343,0.733,6.321-1.413,9.091
				c-0.203,0.262-0.392,0.535-0.577,0.788C35.324,26.114,37.058,25.601,38.938,25.044z"/>
			<path fill="#FFFFFF" d="M116.477,30.336c-1.115-0.989-2.19-1.942-3.154-2.797c0.121-0.719,0.297-1.31,0.306-1.903
				c0.034-2.19-0.015-4.381,0.03-6.57c0.015-0.703-0.186-1.171-0.756-1.593c-0.801-0.594-1.529-1.287-2.31-1.953
				c-0.804,0.274-1.142,0.789-1.127,1.662c0.041,2.486,0.015,4.974,0.015,7.461c0,2.118,0.61,2.672,2.707,2.472
				c-1.179,1.05-2.357,2.099-3.623,3.227c-1.097-0.967-2.191-1.933-3.138-2.768c0.132-0.804,0.312-1.434,0.321-2.066
				c0.033-2.635,0.016-5.271,0.014-7.907c0-1.586-0.734-2.146-2.271-1.751c-0.089,0.023-0.203-0.059-0.526-0.161
				c1.29-1.132,2.486-2.18,3.754-3.292c0.977,0.892,1.922,1.755,2.92,2.668c1.053-0.908,2.053-1.772,3.086-2.663
				c1.762,1.335,3.469,2.628,5.051,3.827c-0.137,0.687-0.354,1.291-0.363,1.898c-0.041,2.338-0.02,4.677-0.016,7.016
				c0.002,1.55,0.799,2.135,2.289,1.707c0.103-0.029,0.244,0.078,0.539,0.182C118.943,28.159,117.77,29.195,116.477,30.336z"/>
			<path fill="#FFFFFF" d="M60.066,26.329c-2.193,1.258-4.503,2.583-6.877,3.944c-1.837-1.263-3.761-2.584-5.681-3.904
				c0.542-1.244,0.494-9.04-0.019-9.872c2.303-1.32,4.609-2.641,6.997-4.008c1.779,1.206,3.676,2.493,5.353,3.631
				C59.906,19.629,59.586,22.983,60.066,26.329z M51.614,14.919c0,3.293-0.001,6.373,0.006,9.453
				c0.001,0.174,0.024,0.434,0.135,0.51c1.384,0.951,2.787,1.875,4.316,2.894c0-3.276,0.006-6.355-0.013-9.433
				c-0.001-0.221-0.133-0.526-0.306-0.646C54.45,16.792,53.123,15.924,51.614,14.919z"/>
			<path fill="#FFFFFF" d="M68.901,12.554c0.827,0.29,1.637,0.671,2.49,0.842c0.83,0.167,1.667,0.079,1.198-1.328
				c0.126-0.02,0.251-0.039,0.377-0.059c0.178,0.269,0.48,0.523,0.512,0.808c0.148,1.298-0.825,2.653-2.255,3.073
				c-1.649,0.485-3.22,0.294-4.765-1.075c0,1.401-0.146,2.591,0.072,3.709c0.088,0.449,0.932,0.896,1.512,1.058
				c0.468,0.131,1.055-0.168,1.589-0.275c-0.007-0.107-0.013-0.213-0.02-0.319c1.412,0.712,2.825,1.425,4.109,2.072
				c0,1.674,0,3.226,0,4.81c-2.158,1.394-4.421,2.857-6.667,4.309c-0.81-0.386-1.673-0.917-2.612-1.203
				c-0.634-0.193-1.39-0.127-2.062-0.01c-0.498,0.086-1.025,0.381-0.515,1.099c0.097,0.134-0.086,0.467-0.141,0.708
				c-0.244-0.115-0.69-0.222-0.697-0.348c-0.029-0.572-0.097-1.238,0.154-1.709c0.516-0.972,1.173-1.883,1.868-2.741
				c0.861-1.064,1.82-2.05,2.835-3.182c-1.215-0.646-2.372-1.261-3.348-1.778c0-1.617,0-3.078,0-4.689
				C64.547,15.136,66.762,13.822,68.901,12.554z M69.856,27.471c0-1.536,0.035-2.816-0.015-4.093
				c-0.025-0.652-1.939-1.529-2.373-1.089c-1.274,1.291-2.493,2.636-3.938,4.18C65.915,25.901,67.934,25.852,69.856,27.471z"/>
			<path fill="#FFFFFF" d="M172.812,14.871c0,1.28-0.07,2.359,0.039,3.419c0.037,0.352,0.498,0.713,0.842,0.964
				c0.381,0.277,0.85,0.431,1.289,0.645c0.345-0.316,0.643-0.591,1.002-0.922c1.406,0.713,2.818,1.429,4.105,2.083
				c0,1.662,0,3.214,0,4.815c-2.143,1.387-4.402,2.851-6.631,4.292c-0.871-0.4-1.775-0.926-2.748-1.223
				c-0.6-0.184-1.322-0.106-1.957,0.021c-0.499,0.099-1.021,0.394-0.504,1.106c0.093,0.129-0.1,0.465-0.16,0.705
				c-0.248-0.156-0.729-0.35-0.709-0.462c0.135-0.817,0.164-1.762,0.609-2.398c1.037-1.482,2.285-2.816,3.453-4.207
				c0.238-0.283,0.496-0.549,0.83-0.918c-1.213-0.642-2.375-1.256-3.361-1.778c0-1.624,0-3.111,0-4.673
				c2.041-1.213,4.23-2.515,6.293-3.739c1.021,0.285,1.99,0.62,2.984,0.805c0.492,0.091,1.111,0.005,0.887-0.847
				c-0.034-0.128,0.179-0.321,0.279-0.484c0.17,0.157,0.5,0.331,0.483,0.466c-0.069,0.609-0.106,1.278-0.396,1.794
				c-1.022,1.842-3.736,2.372-5.701,1.185C173.496,15.371,173.27,15.191,172.812,14.871z M176.221,27.467
				c0-1.54,0.034-2.827-0.016-4.109c-0.023-0.615-1.911-1.524-2.309-1.119c-1.263,1.282-2.47,2.618-3.931,4.184
				C172.343,25.945,174.348,25.839,176.221,27.467z"/>
			<path fill="#FFFFFF" d="M142.329,30.34c-2.087-1.107-4.043-2.146-5.996-3.183c0.536-1.347,0.487-9.735-0.075-10.784
				c2.312-1.296,4.624-2.593,7.021-3.936c1.406,1.897,2.81,3.79,4.305,5.808c-1.15,0.731-2.292,1.456-3.436,2.177
				c-0.752,0.476-1.506,0.948-2.26,1.421c-1.549,0.974-1.783,1.463-1.473,3.235c0.037,0.213,0.205,0.48,0.391,0.58
				c0.944,0.508,1.903,0.999,2.889,1.426c0.224,0.098,0.668,0.023,0.84-0.147c0.566-0.566,1.027-1.236,1.585-1.813
				c0.211-0.218,0.571-0.293,0.862-0.433c-0.031,0.349,0.069,0.825-0.119,1.025C145.391,27.282,143.859,28.794,142.329,30.34z
				 M140.447,21.883c1.301-0.836,2.41-1.548,3.552-2.281c-1.179-1.573-2.286-3.051-3.552-4.74
				C140.447,17.33,140.447,19.491,140.447,21.883z"/>
			<path fill="#FFFFFF" d="M162.841,30.392c-2.237-1.175-4.2-2.203-6.159-3.231c0.573-1.437,0.514-9.712-0.102-10.774
				c2.312-1.301,4.622-2.603,7.018-3.952c1.403,1.894,2.809,3.788,4.286,5.781c-0.312,0.215-0.62,0.445-0.944,0.651
				c-1.816,1.151-3.607,2.346-5.467,3.428c-1.164,0.678-0.627,1.709-0.65,2.585c-0.01,0.337,0.521,0.742,0.882,1.02
				c0.344,0.267,0.788,0.405,1.185,0.605c1.666,0.84,2.537,0.547,3.477-1.119c0.166-0.295,0.457-0.53,0.727-0.747
				c0.045-0.036,0.42,0.205,0.404,0.252c-0.092,0.33-0.171,0.712-0.391,0.953C165.677,27.404,164.216,28.931,162.841,30.392z
				 M160.885,14.959c0,2.365,0,4.521,0,6.862c1.244-0.797,2.321-1.485,3.458-2.212C163.184,18.051,162.094,16.585,160.885,14.959z"
				/>
			<path fill="#FFFFFF" d="M156.193,27.076c-1.27,1.128-2.455,2.181-3.709,3.294c-0.981-0.881-1.979-1.754-2.944-2.662
				c-0.146-0.137-0.224-0.441-0.198-0.653c0.085-0.757,0.327-1.505,0.333-2.26c0.033-4.341,0.017-8.683,0.017-13.024
				c-0.002-1.81-0.824-2.427-2.493-1.87c-0.065-0.073-0.132-0.146-0.196-0.218c1.193-1.078,2.387-2.156,3.65-3.297
				c1.119,0.961,2.205,1.896,3.089,2.653c-0.16,0.904-0.386,1.602-0.392,2.301c-0.031,4.563-0.019,9.127-0.017,13.691
				c0.001,1.673,0.806,2.269,2.433,1.828C155.838,26.84,155.945,26.947,156.193,27.076z"/>
		</g>
	</g>
	<g>
		<path fill="#FFFFFF" d="M139.111,50.466c-2.022,1.235-4.047,2.472-6.108,3.729c-0.666-0.31-1.456-0.772-2.308-1.037
			c-0.525-0.164-1.156-0.094-1.719-0.001c-0.474,0.077-0.873,0.336-0.482,0.964c0.085,0.138-0.073,0.426-0.118,0.645
			c-0.224-0.139-0.644-0.285-0.636-0.41c0.031-0.595,0.009-1.299,0.316-1.752c0.816-1.207,1.785-2.313,2.711-3.444
			c0.371-0.451,0.785-0.866,1.273-1.399c-1.053-0.559-2.042-1.082-2.953-1.564c0-1.385,0-2.707,0-4.11
			c1.794-1.063,3.717-2.203,5.627-3.335c0.596,0.236,1.23,0.587,1.908,0.734c1.126,0.244,1.357,0.023,1.663-1.213
			c0.146,0.256,0.396,0.502,0.415,0.769c0.104,1.332-1.197,2.651-2.721,2.823c-1.123,0.126-1.717-0.033-3.485-0.957
			c0,1.05-0.172,2.09,0.071,3.021c0.125,0.478,0.947,0.884,1.535,1.087c0.321,0.11,0.812-0.268,1.424-0.5
			c1.054,0.541,2.318,1.192,3.586,1.844c0,0.064,0,0.131,0,0.195c-0.514,0.721-0.514,2.997,0,3.719
			C139.111,50.335,139.111,50.398,139.111,50.466z M135.486,51.841c0-1.346,0.113-2.434-0.057-3.476
			c-0.064-0.402-0.738-0.751-1.193-1.025c-0.213-0.127-0.69-0.145-0.836,0.002c-1.113,1.118-2.176,2.289-3.401,3.602
			C131.984,50.544,133.75,50.382,135.486,51.841z"/>
		<path fill="#FFFFFF" d="M88.521,32.564c1,1.844,0.124,3.986-1.836,4.606c-0.844,0.267-0.988,0.664-0.981,1.44
			c0.034,4.007,0.016,8.014,0.016,12.307c1.272-1.09,2.284-2.035,2.202-3.705c0.109-0.018,0.22-0.033,0.33-0.051
			c0.089,0.322,0.272,0.652,0.251,0.967c-0.127,1.869-0.901,3.441-2.287,4.709c-3.194,2.918-9.459,2.874-12.606-0.088
			c-4.462-4.203-3.277-11.646,2.352-14.579c1.143-0.596,2.379-1.01,3.529-1.489c-3.259-0.736-6.87-1.164-8.455,2.062
			c-0.058-0.262-0.142-0.438-0.125-0.602c0.349-3.386,3.056-5.654,6.432-5.193c2.184,0.299,4.325,0.904,6.491,1.347
			c0.603,0.122,1.225,0.179,1.839,0.213C87.019,34.58,88.167,34.291,88.521,32.564z M85.197,37.602
			c-0.572-0.062-0.991-0.093-1.405-0.156c-1.352-0.211-2.189,0.207-2.62,1.516c-0.217,0.657-0.336,1.434-0.205,2.098
			c0.219,1.102,0.629,2.174,1.044,3.226c1.152,2.921,0.467,5.286-2.104,7.081c-0.231,0.162-0.462,0.322-0.804,0.562
			c1.897,0.58,3.607,0.521,5.315-0.229c0.602-0.266,0.799-0.613,0.792-1.26c-0.031-2.963-0.014-5.926-0.014-8.89
			C85.197,40.252,85.197,38.955,85.197,37.602z M81.514,37.184c-2.045,0.186-3.687,1.153-5.052,2.625
			c-3.252,3.512-2.635,9.133,1.221,11.486c0.637,0.389,0.978,0.244,1.376-0.252c0.877-1.091,0.974-2.344,0.635-3.609
			c-0.292-1.093-0.751-2.144-1.156-3.203c-1.083-2.851-0.349-5.012,2.251-6.595C81.032,37.486,81.272,37.335,81.514,37.184z"/>
		<path fill="#FFFFFF" d="M114.168,54.38c-0.954-0.858-1.895-1.703-2.725-2.45c0.103-0.746,0.25-1.363,0.26-1.984
			c0.033-1.858,0.042-3.719-0.012-5.575c-0.012-0.39-0.237-0.859-0.519-1.138c-0.69-0.682-1.473-1.272-2.2-1.887
			c-0.854,0.37-1.01,1.01-0.992,1.83c0.047,2.15,0.016,4.305,0.017,6.457c0,1.547,0.671,2.077,2.134,1.698
			c0.042-0.011,0.105,0.062,0.297,0.183c-1.07,0.952-2.113,1.879-3.217,2.859c-0.954-0.861-1.914-1.729-2.779-2.508
			c0.126-0.625,0.31-1.139,0.32-1.654c0.036-1.893-0.007-3.784,0.026-5.676c0.01-0.608-0.151-1.033-0.656-1.409
			c-0.729-0.542-1.391-1.176-2.081-1.771c-0.805,0.297-1.025,0.858-1.007,1.677c0.048,2.218,0.015,4.436,0.018,6.653
			c0.002,1.49,0.645,1.988,2.103,1.647c0.064-0.015,0.157,0.09,0.341,0.203c-1.095,0.965-2.15,1.896-3.235,2.851
			c-0.979-0.869-1.926-1.71-2.772-2.46c0.114-0.64,0.28-1.157,0.287-1.68c0.029-2.349,0.013-4.697,0.012-7.045
			c-0.001-1.46-0.636-1.925-2.061-1.521c-0.046,0.014-0.114-0.05-0.363-0.17c1.094-0.967,2.132-1.885,3.272-2.893
			c0.829,0.759,1.657,1.516,2.559,2.34c0.92-0.784,1.826-1.555,2.735-2.329c1.235,0.96,2.416,1.878,3.671,2.854
			c0.945-0.832,1.821-1.646,2.756-2.389c0.226-0.181,0.759-0.279,0.951-0.142c1.397,1.008,2.743,2.086,4.012,3.067
			c-0.109,0.562-0.288,1.07-0.297,1.582c-0.032,2.088-0.018,4.176-0.012,6.263c0.002,1.323,0.698,1.827,1.963,1.452
			c0.09-0.027,0.217,0.06,0.481,0.144C116.307,52.482,115.254,53.416,114.168,54.38z"/>
		<path fill="#FFFFFF" d="M124.234,38.66c1.262,1.707,2.494,3.374,3.773,5.105c-1.861,1.18-3.662,2.414-5.556,3.482
			c-1.081,0.609-0.601,1.506-0.724,2.307c-0.117,0.758,0.537,0.77,0.965,0.994c0.289,0.151,0.582,0.293,0.873,0.439
			c1.553,0.783,2.244,0.543,3.09-1.016c0.138-0.252,0.426-0.435,0.672-0.607c0.037-0.025,0.352,0.21,0.336,0.261
			c-0.091,0.292-0.188,0.616-0.387,0.833c-0.616,0.672-1.289,1.291-1.922,1.948s-1.242,1.334-1.842,1.979
			c-1.877-0.98-3.6-1.882-5.098-2.664c0.023-3.281,0.212-6.449-0.148-9.711C120.129,40.969,122.139,39.84,124.234,38.66z
			 M121.793,40.814c0,2.137,0,4.047,0,6.123c1.105-0.711,2.088-1.342,3.091-1.985C123.835,43.548,122.877,42.266,121.793,40.814z"/>
		<path fill="#FFFFFF" d="M91.676,38.605c0.493,0.418,0.989,0.832,1.479,1.254c0.465,0.4,0.922,0.811,1.254,1.104
			c-0.131,0.645-0.318,1.151-0.326,1.662c-0.032,2.344-0.015,4.688-0.014,7.033c0.001,1.566,0.638,2.064,2.13,1.672
			c0.04-0.01,0.103,0.066,0.302,0.204c-1.065,0.954-2.103,1.883-3.222,2.883c-0.976-0.866-1.936-1.719-2.774-2.463
			c0.103-0.724,0.251-1.308,0.259-1.894c0.028-2.312,0.012-4.625,0.011-6.937c-0.001-1.379-0.559-1.804-1.929-1.49
			c-0.099,0.022-0.221-0.059-0.482-0.137C89.52,40.489,90.578,39.564,91.676,38.605z"/>
		<path fill="#FFFFFF" d="M89.228,36.075c1.075-0.937,2.128-1.853,3.165-2.755c1.163,0.419,1.633,2.287,3.34,1.328
			c-0.71,2.026-3.139,2.854-4.739,1.797C90.595,36.182,89.994,36.225,89.228,36.075z"/>
	</g>
</g>
</svg>
