<svg width="18" height="19" viewBox="0 0 18 19" fill="none" xmlns="http://www.w3.org/2000/svg">
<path d="M13.2426 13.0571C12.6185 13.6813 11.3891 14.9106 10.4137 15.886C9.63264 16.6671 8.36745 16.6672 7.5864 15.8861C6.62886 14.9286 5.42126 13.721 4.75736 13.0571C2.41421 10.7139 2.41421 6.91496 4.75736 4.57181C7.10051 2.22867 10.8995 2.22867 13.2426 4.57181C15.5858 6.91496 15.5858 10.7139 13.2426 13.0571Z" stroke="#F0A431" stroke-linecap="round" stroke-linejoin="round"/>
<path d="M11.25 8.81445C11.25 10.0571 10.2426 11.0645 9 11.0645C7.75736 11.0645 6.75 10.0571 6.75 8.81445C6.75 7.57181 7.75736 6.56445 9 6.56445C10.2426 6.56445 11.25 7.57181 11.25 8.81445Z" stroke="#F0A431" stroke-linecap="round" stroke-linejoin="round"/>
</svg>
