<svg width="18" height="19" viewBox="0 0 18 19" fill="none" xmlns="http://www.w3.org/2000/svg">
<path d="M2.25 4.31445C2.25 3.48603 2.92157 2.81445 3.75 2.81445H6.20943C6.53225 2.81445 6.81886 3.02103 6.92094 3.32728L8.0443 6.69736C8.16233 7.05145 8.00203 7.43844 7.6682 7.60535L5.97525 8.45183C6.80194 10.2854 8.27909 11.7625 10.1126 12.5892L10.9591 10.8963C11.126 10.5624 11.513 10.4021 11.8671 10.5202L15.2372 11.6435C15.5434 11.7456 15.75 12.0322 15.75 12.355V14.8145C15.75 15.6429 15.0784 16.3145 14.25 16.3145H13.5C7.2868 16.3145 2.25 11.2777 2.25 5.06445V4.31445Z" stroke="#F0A431" stroke-linecap="round" stroke-linejoin="round"/>
</svg>
