<?xml version="1.0" encoding="UTF-8"?>
<!-- Generator: Adobe Illustrator 16.0.0, SVG Export Plug-In . SVG Version: 6.00 Build 0)  -->
<!DOCTYPE svg PUBLIC "-//W3C//DTD SVG 1.1//EN" "http://www.w3.org/Graphics/SVG/1.1/DTD/svg11.dtd">
<svg version="1.1" id="Layer_1" xmlns="http://www.w3.org/2000/svg" xmlns:xlink="http://www.w3.org/1999/xlink" x="0px" y="0px" width="612px" height="792px" viewBox="0 0 612 792" enable-background="new 0 0 612 792" xml:space="preserve">
<g>
	<path fill="#B22425" d="M522.75,657.375c0,11.05,0,21.25,0,31.45C522.75,699.45,520.625,702,510,702c-32.3,0-64.6,0-96.9,0   c-11.899,0-13.6-2.125-13.6-14.025c0-9.35,0-19.125,0-29.324c-2.55,0-4.675,0-6.8,0c-116.45,0-233.325,0-349.775,0   c-25.925,0-42.5-17-42.5-42.5C0,453.8,0,291.45,0,128.675C0,103.6,13.6,90,38.675,90c163.625,0,327.675,0,491.3,0   c25.075,0,38.676,14.025,38.676,39.1c0,163.2,0,326.4,0,489.6c0,10.625-2.976,19.975-10.2,28.05   c-6.375,7.225-14.025,11.9-24.226,11.05C530.825,657.375,527,657.375,522.75,657.375z M399.075,639.95c0-2.976,0-4.675,0-6.8   c0-68.851,0-137.275,0-206.125c0-8.075,1.7-16.575,4.675-23.801c15.3-38.25,31.45-76.075,47.175-114.325   c2.125-4.675,4.25-9.35,10.2-9.35c6.375,0,8.5,4.675,10.625,9.775c14.875,36.55,30.6,73.1,45.05,110.075   c2.976,8.074,5.101,17,5.101,25.5c0.425,34.85,0.425,69.274,0.425,104.125c0,34.425,0,68.85,0,103.274c0,2.125,1.274,5.95,1.7,5.95   c5.524-0.425,11.475,0.425,16.149-2.125c7.65-4.25,9.351-12.325,9.351-21.25c0-134.725,0-269.875,0-404.6   c0-1.7-0.426-3.4-0.426-5.525c-5.524,0-10.625,0-15.3,0c-8.075,0-10.2-1.7-12.325-9.35c-1.274-4.675-2.975-9.775-3.399-14.45   c-0.851-4.25-2.55-5.95-7.226-5.95c-63.324,0-126.649,0-189.975,0c-3.4,0-5.1,0.85-5.95,4.25c-1.7,5.525-4.675,11.05-5.524,17   c-1.275,6.375-5.525,7.65-10.625,8.5c-2.125,0.425-4.25,0-6.375,0c-88.825,0-177.65,0-266.475,0c-2.55,0-4.675,0-6.8,0   c0,2.125,0,3.825,0,5.95c0,135.15,0,270.3,0,405.45c0,16.149,8.075,23.8,23.8,23.8c104.55,0,208.675,0,313.226,0   C370.175,639.95,384.2,639.95,399.075,639.95z M19.125,185.625c2.55,0,4.675,0,6.8,0c84.575,0,169.15,0,254.15,0   c12.325,0,12.325,0,16.575-11.9c4.25-12.325,9.35-16.15,22.525-16.15c22.525,0,45.05,0,67.575,0c41.65,0,83.725,0,125.375,0   c11.475,0,17,4.25,20.825,14.875c0.425,1.7,0.85,2.975,1.7,4.675c3.399,9.775,3.399,9.775,14.449,7.65   c0-20.825,0.426-41.65,0-62.475c0-8.075-6.8-13.175-14.875-13.175c-2.975,0-6.375,0-9.774,0c-126.65,0-253.3,0-379.95,0   c-35.7,0-71.825,0-107.525,0c-10.2,0-16.575,5.1-17,13.6C18.7,143.55,19.125,163.95,19.125,185.625z M503.625,682.875   c0-84.575,0-168.725,0-253.3c-28.475,0-56.525,0-85,0c0,84.575,0,168.725,0,253.3C447.1,682.875,475.15,682.875,503.625,682.875z    M495.975,399.4c-6.375-16.15-12.75-31.875-19.55-47.175c-0.425-1.275-2.975-2.125-4.675-2.125c-6.8-0.425-14.025,0-20.825,0   c-3.825,0-5.1,1.275-6.375,4.675c-3.825,9.35-7.649,18.7-11.475,28.05c-2.125,5.525-4.25,11.05-6.8,17   C449.65,399.4,472.6,399.4,495.975,399.4z M461.55,313.975c-2.975,5.95-5.1,11.05-7.649,16.575c5.524,0,9.774,0,15.3,0   C466.65,325.025,464.525,320.35,461.55,313.975z"/>
	<path fill="#B22425" d="M217.175,247.675c-51.425,0-103.275,0-154.7,0c-3.4,0-7.65-1.275-9.775-3.825   c-4.25-4.25-1.275-11.475,4.675-13.175c2.125-0.425,4.25-0.425,6.375-0.425c102.425,0,205.275,0,307.7,0c1.7,0,3.399,0,4.675,0   c5.95,0.425,8.5,3.4,8.075,8.925c0,5.1-2.976,8.5-8.5,8.5c-10.2,0-20.4,0-30.601,0C303.025,247.675,260.1,247.675,217.175,247.675   L217.175,247.675z"/>
	<path fill="#B22425" d="M181.475,357.75c-39.525,0-79.475,0-119,0c-7.225,0-10.625-2.55-11.475-8.075   c-0.85-6.8,2.975-11.05,10.2-11.05c17,0,34,0,51,0c62.9,0,125.375,0,188.275,0c8.075,0,12.325,3.825,11.9,10.625   c-0.425,5.525-3.825,8.5-10.625,8.5c-22.525,0-45.05,0-67.575,0C216.75,357.75,198.9,357.75,181.475,357.75L181.475,357.75z"/>
	<path fill="#B22425" d="M177.225,393.45c37.825,0,75.225,0,113.05,0c2.125,0,4.675,0,6.375,0.425c4.25,1.7,6.375,5.1,5.525,9.35   c-0.85,5.101-4.25,7.65-9.35,7.65c-12.75,0-25.5,0-38.25,0c-63.75,0-127.075,0-190.4,0c-1.275,0-2.55,0-3.4,0   c-5.95-0.425-8.925-3.825-8.925-8.925c0-5.101,3.4-8.5,9.35-8.5c15.3,0,30.6,0,45.9,0C130.05,393.45,153.425,393.45,177.225,393.45   L177.225,393.45z"/>
	<path fill="#B22425" d="M172.975,303.775c-36.975,0-73.95,0-110.925,0c-6.8,0-10.2-2.55-10.625-7.65c-0.425-5.1,1.7-8.5,6.8-9.775   c1.7-0.425,3.4-0.425,5.525-0.425c73.525,0,147.05,0,220.575,0c2.975,0,7.225,0.85,9.35,2.975c1.7,2.125,2.975,6.8,1.7,8.925   c-1.275,2.55-5.1,5.1-8.075,5.1c-15.725,0.425-31.875,0.425-47.6,0.425C216.75,304.2,195.075,304.2,172.975,303.775z"/>
	<path fill="#B22425" d="M161.925,574.5c-33.15,0-65.875,0-99.025,0c-2.55,0-6.375-0.425-7.65-2.125   c-2.125-2.975-3.825-7.65-2.975-10.625c0.85-2.55,5.1-5.525,8.075-5.95c7.65-0.85,15.3-0.425,23.375-0.425   c58.225,0,116.45,0,175.1,0c1.7,0,3.4,0,5.525,0c5.525,0.425,8.925,4.675,8.925,10.2c0,5.524-2.975,8.5-9.35,8.5   c-17.425,0-34.425,0-51.85,0C194.65,574.5,178.5,574.5,161.925,574.5L161.925,574.5z"/>
	<path fill="#B22425" d="M157.25,447.425c31.45,0,63.325,0,94.775,0c2.975,0,6.8,0.425,8.075,2.55c2.125,2.551,3.4,6.801,2.975,10.2   c-0.425,4.675-4.675,6.375-8.925,6.375c-9.35,0-18.275,0-27.625,0c-54.4,0-108.8,0-163.2,0c-2.55,0-5.95-0.425-8.075-1.7   c-3.825-2.125-5.525-6.375-4.25-11.05s4.675-6.375,9.35-6.375c21.675,0,43.35,0,65.025,0   C136.425,447.425,147.05,447.425,157.25,447.425L157.25,447.425z"/>
	<path fill="#B22425" d="M172.125,501.825c36.55,0,72.675,0,109.225,0c8.925,0,12.325,3.825,10.2,11.475   c-1.7,5.101-5.95,5.95-10.625,5.95c-20.825,0-41.65,0-62.9,0c-51,0-102.425,0-153.425,0c-2.125,0-4.25,0-6.375-0.425   c-4.675-0.851-6.8-3.825-6.8-8.5s2.125-7.65,6.8-8.5c2.125-0.425,3.825-0.425,5.95-0.425C99.875,502.25,136,502.25,172.125,501.825   z"/>
	<path fill="#B22425" d="M56.1,173.725c-16.575,0-30.175-13.6-30.6-30.175c0-16.575,13.6-30.6,30.175-30.6   c17,0,30.6,13.6,31.025,30.6C86.7,159.7,72.675,173.725,56.1,173.725z M44.625,144.825c0,6.375,5.1,11.475,11.9,11.475   c6.8,0,11.05-4.675,11.05-11.475c0-6.375-5.1-11.475-11.475-11.9C50.15,132.925,44.625,138.45,44.625,144.825z"/>
	<path fill="#B22425" d="M214.2,173.725c-16.575,0-30.6-13.6-30.6-30.175c0-16.575,14.025-30.6,30.175-30.6s30.6,14.025,30.6,30.6   C244.8,160.125,230.775,173.725,214.2,173.725z M202.725,143.975c-0.425,6.8,4.675,11.9,11.05,12.325   c6.375,0,11.475-4.675,11.9-11.05c0.425-6.375-4.675-11.9-11.05-12.325C208.25,132.925,203.15,137.6,202.725,143.975z"/>
	<path fill="#B22425" d="M135.15,173.725c-16.575,0-30.175-13.6-30.175-30.175c0-16.575,14.025-30.6,30.175-30.6   s30.6,14.45,30.6,30.6C165.75,159.7,151.725,173.725,135.15,173.725z M135.15,132.925c-6.375,0-11.475,5.1-11.475,11.475   c0,6.8,4.675,11.9,11.475,11.9c6.375,0,11.475-5.1,11.475-11.05C147.05,138.875,141.525,133.35,135.15,132.925z"/>
</g>
</svg>