<?xml version="1.0" encoding="UTF-8"?>
<!-- Generator: Adobe Illustrator 16.0.0, SVG Export Plug-In . SVG Version: 6.00 Build 0)  -->
<!DOCTYPE svg PUBLIC "-//W3C//DTD SVG 1.1//EN" "http://www.w3.org/Graphics/SVG/1.1/DTD/svg11.dtd">
<svg version="1.1" id="Layer_1" xmlns="http://www.w3.org/2000/svg" xmlns:xlink="http://www.w3.org/1999/xlink" x="0px" y="0px" width="612px" height="792px" viewBox="0 0 612 792" enable-background="new 0 0 612 792" xml:space="preserve">
<g>
	<path fill="#B22425" d="M306,702c-83.725,0-167.875,0-251.6,0c-14.45,0-28.05-2.125-39.525-12.75   c-8.5-8.075-12.75-17.85-14.025-29.325C0,656.1,0,652.275,0,648.025C0,492.9,0,337.35,0,181.8c0-14.45,2.125-28.05,12.75-39.525   c8.075-8.925,18.275-13.175,29.75-14.45c4.25-0.425,8.5-0.425,12.75-0.425c167.45,0,334.9,0,502.35,0   c14.875,0,28.476,2.125,39.95,12.75c8.5,8.075,12.75,17.85,14.025,29.325C612,173.3,612,177.55,612,181.375   c0,155.55,0,311.1,0,466.65c0,14.449-2.55,27.625-12.325,38.675c-8.075,8.925-18.274,13.175-29.75,14.45   c-4.675,0.425-9.35,0.425-14.024,0.425C472.6,702,389.3,702,306,702z M306.85,682.875c82.875,0,165.75,0,249.051,0   c2.125,0,4.25,0,6.8,0c19.975-0.425,30.6-11.05,30.6-31.025c0-158.1,0-315.774,0-473.875c0-1.275,0-2.55,0-3.825   c-0.85-15.725-11.05-26.35-26.774-27.2c-3.4,0-6.801,0-9.775,0c-107.1,0-214.625,0-321.725,0c-60.775,0-121.125,0-181.9,0   c-5.1,0-10.625,0.425-15.725,2.125c-11.9,4.25-17.425,14.025-17.425,29.75c0,157.25,0,314.075,0,471.325c0,2.125,0,4.25,0,6.8   c1.275,15.3,11.05,25.075,26.35,26.35c3.4,0.425,7.225,0,10.625,0C139.825,682.875,223.125,682.875,306.85,682.875z"/>
	<path fill="#B22425" d="M305.15,652.275c-79.475,0-159.375,0-238.85,0c-9.35,0-9.775,0-9.775-9.775c0-127.5,0-255.425,0-382.925   c0-9.35,0-9.35,9.775-9.35c159.8,0,319.601,0,479.4,0c9.35,0,9.774,0.425,9.774,9.775c0,127.5,0,255.425,0,382.925   c0,9.351-0.425,9.351-9.774,9.351C465.375,652.275,385.475,652.275,305.15,652.275z M535.925,269.35   c-153.425,0-306.425,0-459.425,0c0,121.125,0,242.25,0,362.95c153.425,0,306.425,0,459.425,0   C535.925,511.175,535.925,390.475,535.925,269.35z"/>
	<path fill="#B22425" d="M388.45,216.65c-50.15,0-100.3,0-150.45,0c-2.975,0-8.075-0.85-8.5-2.55c-1.275-4.25-0.425-8.925,0-13.6   c0-0.85,2.55-1.7,3.825-2.125c1.7-0.425,3.4,0,5.1,0c100.3,0,200.175,0,300.476,0c9.774,0,13.6,5.525,9.774,14.875   c-0.85,1.7-4.675,3.4-7.649,3.4c-20.825,0.425-41.65,0-62.476,0C448.375,216.65,418.2,216.65,388.45,216.65z"/>
	<path fill="#B22425" d="M160.65,176.7c17.425,0,31.45,14.025,31.45,31.025s-14.875,31.45-31.45,31.025   c-17,0-31.025-14.45-31.025-31.45C129.2,189.875,142.8,176.7,160.65,176.7z M160.65,220.05c6.8,0,11.9-5.525,11.9-12.325   c0-6.8-5.525-11.9-12.325-11.9c-6.375,0-11.9,5.95-11.9,12.325S153.85,220.05,160.65,220.05z"/>
	<path fill="#B22425" d="M87.975,176.7c17.425,0,31.025,13.6,30.6,31.45c0,17.425-14.45,31.025-31.45,31.025   C70.125,238.75,56.1,224.3,56.1,207.3C56.525,190.3,70.55,176.7,87.975,176.7z M87.975,195.4c-6.375,0-12.325,5.525-12.75,11.9   c0,6.375,5.525,12.325,11.9,12.325c6.8,0,12.325-5.1,12.325-11.9C100.3,201.775,94.35,195.825,87.975,195.4z"/>
	<path fill="#B22425" d="M417.35,604.25c-28.475,0-56.524,0-85,0c-8.074,0-8.925-0.425-8.925-8.5c0-39.525,0-79.05,0-118.575   c0-6.375,2.125-8.5,8.5-8.5c56.95,0,113.476,0,170.425,0c6.375,0,8.5,1.7,8.5,8.5c-0.425,39.525,0,79.05,0,118.575   c0,8.5-0.425,8.925-9.35,8.925C473.45,604.25,445.4,604.25,417.35,604.25z M343.825,487.8c0,33.15,0,65.45,0,97.325   c49.725,0,98.6,0,147.475,0c0-32.725,0-65.025,0-97.325C441.575,487.8,392.7,487.8,343.825,487.8z"/>
	<path fill="#B22425" d="M197.625,402.375c-30.175,0-60.775,0-90.95,0c-8.075,0-8.925-0.425-8.925-8.5c0-29.75,0-59.925,0-89.675   c0-6.375,1.7-8.5,8.5-8.5c61.2,0,122.4,0,183.6,0c5.95,0,8.5,1.7,8.5,8.075c-0.425,29.75,0,59.925,0,89.675   c0,8.5-0.425,8.925-9.35,8.925C258.825,402.375,228.225,402.375,197.625,402.375z M117.725,315.25c0,23.375,0,45.475,0,68.425   c53.975,0,107.525,0,161.075,0c0-22.95,0-45.475,0-68.425C224.825,315.25,171.7,315.25,117.725,315.25z"/>
	<path fill="#B22425" d="M167.875,557.5c-1.275-3.825-1.7-7.65-3.4-11.05c-7.225-15.3-15.725-29.75-17.425-46.75   c-0.425-3.825,1.275-8.075,1.7-12.325c0.85-4.675,2.55-9.35,2.125-14.025c-0.425-13.6-2.125-27.625,9.35-37.824   c14.025-11.9,29.75-19.551,49.3-17c22.95,3.399,38.675,16.149,43.775,35.274c1.275,4.675,0.85,8.925-2.125,13.601   c-3.4,6.375-6.375,12.75-2.975,21.25c4.25,11.475-0.85,22.524-5.1,33.149c-3.825,9.351-9.35,18.275-13.6,28.05   c-0.85,2.125,0,5.525,0.425,8.075c0.85-0.425,1.275-0.85,2.125-1.274c3.825,3.399,7.225,7.225,11.05,10.199   c5.525,3.825,10.625,8.5,17,10.625c14.025,4.676,25.925,11.9,34.425,24.65c0.85,1.275,1.7,2.55,2.55,3.825   c2.125,4.25,1.7,8.075-2.125,10.625c-3.825,2.55-8.075,1.7-10.2-2.125c-7.225-12.75-19.125-19.125-32.725-23.375   c-5.95-2.125-11.475-5.95-16.15-9.775c-4.25-3.399-6.8-8.925-13.6-8.075c-0.85,0-1.7-0.85-2.125-1.274   c-5.525-4.675-6.8-24.65-2.975-30.601c3.4-5.524,5.95-11.899,8.925-17.425c1.275-2.975,2.975-5.95,4.675-8.075   c4.675-5.1,4.25-19.975,0-25.5c-1.7-2.125-1.7-6.375-0.85-8.925c2.55-8.075,5.95-15.3,8.5-23.375   c0.425-1.7-0.425-3.825-1.275-5.524c-3.4-7.65-8.925-12.75-16.575-15.301c-13.6-4.675-27.2-5.949-39.525,3.825   c-1.7,1.275-3.825,1.275-5.1,2.55c-2.975,2.976-7.65,6.375-8.075,9.775c-0.85,9.35-0.425,18.7,0.425,28.05   c0.425,4.25,0.85,7.65-2.975,10.625c-1.275,0.851-2.55,2.976-2.125,4.25c0.85,7.65-1.275,16.15,6.375,21.675   c1.275,0.851,1.275,2.976,2.125,4.676c2.975,6.375,6.375,12.75,9.35,19.55c1.275,3.399,2.55,7.649,2.55,11.475   s-1.7,7.226-2.55,11.05c-0.85,5.95-3.4,9.775-10.2,9.351c-1.275,0-3.4,1.274-4.25,2.125c-5.95,8.5-14.875,12.75-24.65,15.725   c-11.475,3.825-20.825,10.2-27.2,20.4c-2.55,4.675-6.8,6.8-11.9,3.399c-4.675-3.399-3.825-8.074-0.85-12.324   c7.65-11.9,17.85-20.4,31.45-25.075c9.775-2.976,18.7-6.8,24.225-16.15c1.275-2.55,5.525-3.399,8.5-5.1   C166.175,557.925,167.025,557.5,167.875,557.5z"/>
	<path fill="#B22425" d="M416.075,402.375c-25.925,0-51.851,0-77.351,0c-5.949,0-8.925-1.7-8.5-8.075   c0.426-9.35,0.426-10.2,8.5-10.2c52.275,0,104.125,0,156.4,0c7.65,0,9.775,2.125,9.775,8.5c-0.426,8.925-1.7,9.775-10.2,9.775   C468.35,402.375,442.425,402.375,416.075,402.375z"/>
	<path fill="#B22425" d="M416.925,340.325c25.925,0,51.851,0,77.351,0c8.5,0,9.774,1.275,9.774,9.35c0,6.8-2.55,9.35-10.2,9.35   c-16.574,0-33.149,0-49.725,0c-35.275,0-70.55,0-105.825,0c-8.075,0-8.5-0.425-8.5-9.35c0-8.925,0.425-9.35,8.925-9.35   C365.075,340.325,391,340.325,416.925,340.325z"/>
	<path fill="#B22425" d="M416.925,313.975c-25.925,0-52.274,0-78.2,0c-8.074,0-8.5-0.425-8.5-8.5c0-8.5,0.426-9.35,8.5-9.35   c52.275,0,104.125,0,156.4,0c2.975,0,7.65,1.275,8.075,2.55c0.85,4.25,0.85,9.35-0.425,13.6c-0.426,1.275-4.676,1.7-7.226,2.125   C469.625,313.975,443.275,313.975,416.925,313.975z"/>
	<path fill="#B22425" d="M416.5,446.575c-25.925,0-52.275,0-78.2,0c-7.649,0-8.5-0.425-8.5-8.925c0-8.075,0.851-8.926,8.5-8.926   c52.275,0,104.55,0,156.825,0c8.075,0,8.5,0.426,8.5,9.351c0,8.075-0.425,8.5-8.925,8.5   C468.775,446.575,442.85,446.575,416.5,446.575z"/>
</g>
</svg>