<?xml version="1.0" encoding="UTF-8"?>
<!-- Generator: Adobe Illustrator 16.0.0, SVG Export Plug-In . SVG Version: 6.00 Build 0)  -->
<!DOCTYPE svg PUBLIC "-//W3C//DTD SVG 1.1//EN" "http://www.w3.org/Graphics/SVG/1.1/DTD/svg11.dtd">
<svg version="1.1" id="Layer_1" xmlns="http://www.w3.org/2000/svg" xmlns:xlink="http://www.w3.org/1999/xlink" x="0px" y="0px" width="612px" height="792px" viewBox="0 0 612 792" enable-background="new 0 0 612 792" xml:space="preserve">
<g>
	<path fill="#B22425" d="M521.9,702c-25.926,0-50.575,0-76.5,0c-6.801-59.075-13.176-118.15-19.551-177.225   c-79.899,0-159.375,0-239.7,0C179.775,583.85,172.975,642.5,166.6,702c-25.5,0-50.575,0-76.5,0   c-6.375-59.075-13.175-117.725-19.55-177.225c-7.65,0-14.875,0-22.1,0c-27.625-0.851-49.725-23.801-48.45-51   c0.85-17.851,9.35-31.875,24.65-40.801c3.825-2.125,4.675-4.675,4.675-8.5c0-88.825,0-177.649,0-266.475c0-2.55,0-4.675,0-7.65   c33.15,0,65.45,0,98.175,0c0.425,1.7,0.425,3.825,0.85,5.95c26.35-9.775,52.7-19.125,79.475-28.9   c29.325,80.325,58.225,160.225,87.125,240.125c0.425,0,0.85,0,1.275,0c0-32.725,0-65.45,0-99.025c22.95,0,45.475,0,68.425,0   c-2.551-6.8-5.95-12.75-7.65-19.125c-5.1-21.25,4.25-42.925,23.375-53.55c3.4-2.125,4.675-4.25,4.675-8.075   c-0.425-12.325,0-24.65,0-37.825c2.55,0,4.675,0,6.8,0c13.176,0,25.926-0.425,38.676,0c5.949,0.425,8.925-2.125,11.05-7.225   c6.375-13.6,13.175-26.775,19.975-40.375c0.851-2.125,2.125-3.825,3.4-6.375c5.95,2.975,11.05,5.525,17,8.5   c-7.226,14.875-14.45,29.325-22.101,44.625c8.075,0,15.301,0,23.375,0c0,3.825,0,6.8,0,10.2c0,5.1,0.426,9.775,0,14.875   c-1.274,11.475,1.275,19.55,12.325,27.2c18.7,13.175,22.525,39.525,11.476,59.925c-0.851,2.125-2.125,3.825-3.825,6.375   c23.375,0,45.899,0,68.85,0c0,2.975,0,5.525,0,7.65c0,48.45,0,96.9,0,144.925c0,4.25,0.851,6.375,5.525,7.65   c22.1,6.8,36.975,29.75,34,51.85c-3.4,25.075-22.95,42.926-47.175,43.775c-7.226,0.425-14.875,0-22.525,0   C535.075,583.85,528.7,642.5,521.9,702z M504.05,505.225c2.125,0,4.25,0,6.375,0c17.425,0,34.425,0.426,51.851-0.425   c5.949-0.425,12.75-2.125,17.85-5.524c11.05-6.801,15.3-20.825,11.05-33.15c-3.825-12.325-15.3-20.825-28.899-20.825   c-110.075,0-220.575,0-330.65,0c-60.35,0-120.7,0-181.05,0c-14.45,0-25.5,8.075-29.75,20.825c-6.375,19.975,8.5,39.1,30.175,39.1   c141.525,0,283.05,0,424.575,0c2.55,0,4.675,0,7.649,0c0,6.801,0,12.75,0,19.551c-12.75,0-25.074,0-38.25,0   c1.7,14.449,2.976,28.475,4.676,43.35c10.625-8.5,21.25-13.175,33.574-13.175c12.325,0,23.375,5.1,34,13.175   c1.7-14.875,2.976-28.9,4.676-42.925c-6.801,0-12.325,0-18.275,0C504.05,517.975,504.05,511.6,504.05,505.225z M140.675,172.025   c29.325,80.75,58.225,160.65,87.55,241.4c18.7-6.8,36.975-13.6,55.675-20.4c-29.325-80.75-58.225-160.65-87.55-241.4   C177.65,158.85,159.375,165.225,140.675,172.025z M108.375,425.75c0-85.85,0-171.275,0-256.275c-19.975,0-39.1,0-58.65,0   c0,85.85,0,171.275,0,256.275C69.275,425.75,88.4,425.75,108.375,425.75z M315.775,346.7c79.475,0,158.1,0,236.725,0   c0-19.975,0-39.1,0-58.65c-79.05,0-158.1,0-236.725,0C315.775,307.6,315.775,327.15,315.775,346.7z M315.775,425.75   c79.475,0,158.1,0,236.725,0c0-19.975,0-39.1,0-58.65c-79.05,0-158.1,0-236.725,0C315.775,386.65,315.775,406.2,315.775,425.75z    M129.2,197.95c-0.425,0-0.425,0-0.85,0.425c0,75.65,0,151.725,0,227.375c27.625,0,55.25,0,83.3,0   C184.025,349.25,156.825,273.6,129.2,197.95z M404.6,207.725c-3.824,0.85-6.375,1.275-9.35,2.125c-13.6,4.25-22.1,17.85-20.4,32.3   c1.7,13.6,13.601,25.5,27.2,25.925c21.25,0.425,42.5,0.425,63.325,0c15.3-0.425,27.2-13.175,28.05-28.475   c0.425-16.575-9.774-28.05-29.75-31.45c0-12.75,0-25.5,0-38.675c-19.975,0-39.524,0-59.5,0   C404.6,182.225,404.6,194.975,404.6,207.725z M127.925,633.575c17,0,30.175-13.175,30.175-30.601   c0-15.725-13.6-28.899-29.325-28.899c-16.15,0-29.75,13.175-30.175,28.899C98.175,619.975,111.35,633.575,127.925,633.575z    M484.075,574.075c-16.575,0-30.175,12.75-30.175,28.899c0,17,12.75,30.601,29.324,30.601c16.575,0,29.75-13.175,30.176-30.175   C513.825,587.675,500.225,574.075,484.075,574.075z M166.6,524.775c-26.35,0-51.425,0-77.35,0c1.7,14.024,2.975,28.05,4.675,42.5   c22.95-17,44.625-17,67.575,0C163.625,552.825,165.325,539.225,166.6,524.775z M107.1,682.45c14.45,0,28.05,0,42.075,0   c1.275-11.9,2.55-23.8,3.825-36.55c-17,9.35-33.15,8.925-50.15,0C104.55,659.075,105.825,670.55,107.1,682.45z M504.9,682.45   c1.274-12.325,2.55-23.8,3.824-36.55c-17.425,9.35-33.149,8.925-50.149,0.425c1.274,12.75,2.975,24.649,4.25,36.125   C476.85,682.45,490.45,682.45,504.9,682.45z M253.3,424.9c0,0.425,0,0.425,0,0.85c14.025,0,28.05,0,42.5,0   c0-5.525,0-10.625,0-16.575C281.35,414.7,267.325,419.8,253.3,424.9z"/>
	<path fill="#B22425" d="M257.125,350.525c2.125,6.375,4.25,11.9,6.8,17.85c-11.9,4.25-23.8,8.925-36.125,13.175   c-2.125-5.95-4.25-11.9-6.8-18.275C232.9,359.025,244.8,354.775,257.125,350.525z"/>
	<path fill="#B22425" d="M200.6,307.6c-2.125-6.375-4.25-11.9-6.8-18.275c12.325-4.675,23.8-8.925,36.125-13.175   c2.125,5.95,4.25,11.475,6.8,17.85C224.825,298.675,213.35,302.925,200.6,307.6z"/>
	<path fill="#B22425" d="M243.95,313.125c2.125,6.375,4.25,11.9,6.8,18.275c-12.325,4.675-24.225,8.925-36.55,13.175   c-2.125-6.375-4.25-11.9-6.8-18.275C219.3,322.05,231.2,317.8,243.95,313.125z"/>
	<path fill="#B22425" d="M59.5,297.825c12.75,0,25.5,0,38.25,0c0,6.375,0,12.325,0,18.7c-12.75,0-25.075,0-38.25,0   C59.5,310.575,59.5,304.625,59.5,297.825z"/>
	<path fill="#B22425" d="M59.5,337.35c12.75,0,25.075,0,38.25,0c0,5.95,0,11.9,0,18.7c-12.325,0-25.075,0-38.25,0   C59.5,350.1,59.5,344.15,59.5,337.35z"/>
	<path fill="#B22425" d="M59.5,395.575c0-6.8,0-12.325,0-18.7c12.75,0,25.5,0,38.675,0c0,6.375,0,12.325,0,18.7   C85,395.575,72.675,395.575,59.5,395.575z"/>
	<path fill="#B22425" d="M434.775,297.825c6.375,0,12.324,0,18.699,0c0,12.75,0,25.5,0,38.675c-6.375,0-12.324,0-18.699,0   C434.775,323.75,434.775,311,434.775,297.825z"/>
	<path fill="#B22425" d="M493,336.5c-6.375,0-12.325,0-18.7,0c0-12.75,0-25.5,0-38.675c6.375,0,12.325,0,18.7,0   C493,311,493,323.325,493,336.5z"/>
	<path fill="#B22425" d="M513.825,297.825c6.375,0,12.325,0,18.7,0c0,12.75,0,25.5,0,38.25c-5.95,0-11.9,0-18.7,0   C513.825,324.175,513.825,311.425,513.825,297.825z"/>
	<path fill="#B22425" d="M434.775,376.875c6.375,0,12.324,0,18.699,0c0,12.75,0,25.5,0,38.675c-6.375,0-12.324,0-18.699,0   C434.775,402.8,434.775,390.05,434.775,376.875z"/>
	<path fill="#B22425" d="M474.3,415.55c0-12.75,0-25.5,0-38.25c5.95,0,12.325,0,18.7,0c0,12.325,0,25.075,0,38.25   C487.05,415.55,481.1,415.55,474.3,415.55z"/>
	<path fill="#B22425" d="M532.525,415.55c-6.375,0-12.325,0-18.7,0c0-12.75,0-25.5,0-38.675c5.95,0,12.325,0,18.7,0   C532.525,389.625,532.525,402.375,532.525,415.55z"/>
</g>
</svg>