<?xml version="1.0" encoding="UTF-8"?>
<!-- Generator: Adobe Illustrator 16.0.0, SVG Export Plug-In . SVG Version: 6.00 Build 0)  -->
<!DOCTYPE svg PUBLIC "-//W3C//DTD SVG 1.1//EN" "http://www.w3.org/Graphics/SVG/1.1/DTD/svg11.dtd">
<svg version="1.1" id="Layer_1" xmlns="http://www.w3.org/2000/svg" xmlns:xlink="http://www.w3.org/1999/xlink" x="0px" y="0px" width="612px" height="792px" viewBox="0 0 612 792" enable-background="new 0 0 612 792" xml:space="preserve">
<g>
	<path fill="#B22425" d="M541.025,396.425c0,94.775,0,189.55,0,283.9c0,2.55,0,5.1,0,7.649C540.6,697.75,536.775,701.575,527,702   c-1.7,0-3.825,0-5.525,0c-128.774,0-257.55,0-386.325,0c-39.525,0-64.175-24.65-64.175-64.175c0-160.65,0-321.3,0-481.95   c0-8.075,0.85-16.15,2.975-23.8c4.675-17.85,16.575-29.75,33.575-36.55c8.075-3.4,16.575-5.1,25.5-5.1   C264.35,90,395.25,90,526.15,90c9.35,0,14.024,3.825,14.449,13.6c0,2.125,0,4.25,0,6.375   C541.025,205.6,541.025,301.225,541.025,396.425L541.025,396.425z M162.35,115.075c0,156.4,0,311.524,0,467.075   c118.15,0,235.875,0,353.6,0c0-155.976,0-311.525,0-467.075C397.8,115.075,280.075,115.075,162.35,115.075z M136.85,114.225   c-10.2-0.425-19.125,1.275-26.775,7.225c-11.9,9.35-15.3,22.1-15.3,36.55c0,143.65,0,287.3,0.425,430.95c0,1.7,0,3.399,0,6.375   c13.175-9.351,27.2-11.9,42.075-12.325C136.85,426.175,136.85,270.625,136.85,114.225z M478.55,607.225c-2.975,0-5.524,0-8.075,0   c-98.175,0-195.925,0-294.1,0c-15.725,0-31.45-0.425-47.175,0c-25.925,0.851-41.65,27.625-30.175,50.575   c7.225,14.45,19.125,19.976,34.85,19.976c112.625,0,225.25,0,337.875,0c2.125,0,4.25,0,6.8,0c0-8.5,0-15.726,0-23.375   c-2.975,0-5.1,0-7.649,0c-110.926,0-221.851,0-332.775,0c-3.4,0-6.8,0-9.775-0.851c-6.375-1.274-9.775-5.95-9.35-11.899   c0.425-5.525,4.25-9.775,10.2-10.625c3.4-0.426,6.8-0.426,9.775-0.426c110.5,0,221,0,331.5,0c2.551,0,5.101,0,8.075,0   C478.55,622.525,478.55,615.3,478.55,607.225z M503.625,607.65c0,23.8,0,46.324,0,69.274c4.25,0,8.075,0,11.9,0   c0-23.375,0-46.325,0-69.274C511.7,607.65,507.875,607.65,503.625,607.65z"/>
	<path fill="#B22425" d="M315.35,313.125c2.551-3.825,4.676-7.225,6.801-10.2c10.199-16.15,20.824-32.3,31.024-48.025   c0.851-1.7,2.125-2.975,2.976-4.675c7.649-10.625,15.725-10.625,23.375,0.425c4.25,5.95,8.074,12.325,11.899,18.275   c22.95,35.7,45.9,70.975,68.425,106.675c1.275,2.125,2.976,4.675,3.825,7.225c2.976,7.65-0.425,14.45-8.925,15.725   c-5.95,0.851-12.325,0.851-18.7,0.851c-68.425,0-136.85,0-204.85,0c-2.125,0-4.25,0-6.375-0.426   c-10.625-1.699-14.875-9.774-9.35-19.125c5.1-8.5,10.625-17,16.15-25.075C246.5,332.25,260.95,310.15,275.4,288.05   c7.225-11.05,16.15-11.05,23.375,0C304.3,296.125,309.4,304.2,315.35,313.125z M430.525,373.9   c-21.25-33.15-41.65-65.025-62.9-97.75c-21.25,33.15-41.65,65.025-62.9,97.75C347.225,373.9,388.025,373.9,430.525,373.9z    M247.775,374.325c9.35,0,17.85,0,25.925,0c1.275,0,3.4-1.7,4.25-3.4c7.225-10.625,14.025-21.675,20.825-32.3   c0.85-1.275,1.275-3.825,0.85-5.1c-3.825-6.375-8.075-12.75-12.325-19.975C273.7,334.375,261.375,353.925,247.775,374.325z"/>
	<path fill="#B22425" d="M339.15,441.05c35.699,0,71.399,0,107.1,0c1.7,0,3.4,0,5.1,0c9.351,0.425,14.025,4.675,14.025,12.325   c0,7.225-5.1,11.9-14.025,11.9c-74.375,0-148.75,0-222.7,0c-9.35,0-14.875-5.101-14.875-12.325c0-7.226,5.95-11.476,14.875-11.9   C265.2,441.05,302.175,441.05,339.15,441.05z"/>
	<path fill="#B22425" d="M339.575,493.75c-36.125,0-72.675,0-108.8,0c-11.05,0-17-4.25-17.425-11.9   c0-8.074,5.95-12.324,17.425-12.324c71.4,0,143.225,0,214.625,0c3.399,0,6.8,0,9.774,0.85c6.375,1.275,9.351,5.1,9.775,11.05   c0,6.375-3.4,10.625-9.775,11.9c-2.55,0.425-5.1,0.425-7.225,0.425C411.825,493.75,375.7,493.75,339.575,493.75z"/>
	<path fill="#B22425" d="M339.575,521.8c-17.425,0-34.425,0-51.85,0c-3.4,0-7.225-0.425-10.2-1.274   c-5.1-1.7-7.225-5.95-7.225-11.051c0-5.1,2.55-8.925,7.65-10.199c2.55-0.851,5.525-1.275,8.5-1.275c35.274,0,70.55,0,105.825,0   C402.9,498,408,502.675,408,510.75c-0.425,6.8-4.25,10.625-11.9,11.05c-12.324,0.425-24.649,0.425-36.55,0.425   C352.75,521.8,346.375,521.8,339.575,521.8z"/>
	<path fill="#B22425" d="M244.375,265.95c-17,0-31.025-14.025-31.025-31.025s14.45-31.45,31.45-31.025   c17,0.425,30.6,14.45,30.6,31.45C275.4,251.925,261.375,265.95,244.375,265.95z M246.075,227.275c-0.85,0-2.125,0-2.975,0   c-1.7,2.55-4.675,4.675-5.525,7.225c-0.85,4.25,2.125,7.65,6.375,6.8c2.55-0.425,5.95-3.825,6.375-6.375   C251.175,232.8,247.775,229.825,246.075,227.275z"/>
</g>
</svg>