<?xml version="1.0" encoding="UTF-8"?>
<!-- Generator: Adobe Illustrator 16.0.0, SVG Export Plug-In . SVG Version: 6.00 Build 0)  -->
<!DOCTYPE svg PUBLIC "-//W3C//DTD SVG 1.1//EN" "http://www.w3.org/Graphics/SVG/1.1/DTD/svg11.dtd">
<svg version="1.1" id="Layer_1" xmlns="http://www.w3.org/2000/svg" xmlns:xlink="http://www.w3.org/1999/xlink" x="0px" y="0px" width="612px" height="792px" viewBox="0 0 612 792" enable-background="new 0 0 612 792" xml:space="preserve">
<g>
	<g>
		<path fill="#B22425" d="M286.025,529.45c3.4,7.225,3.825,13.6-0.85,19.975c-6.375,8.925-18.7,10.625-26.775,2.976    c-14.025-14.025-28.475-28.051-42.075-42.075c-6.375-6.375-6.375-15.3-0.85-23.375c5.1-6.8,13.6-8.925,21.675-5.101    c0.425,0.426,1.275,0.426,2.125,0.851c1.7-3.4,3.825-6.375,5.525-9.775c29.325-53.55,58.65-106.675,87.976-160.225    c0.85-1.7,1.699-3.4,0.85-5.95c-2.125-8.075,1.275-15.725,8.5-19.975s15.3-3.4,21.25,2.55    c24.225,24.225,48.45,48.45,72.675,72.675c14.45,14.45,28.476,28.475,42.925,42.925c9.351,9.351,5.525,25.5-7.225,29.325    c-3.4,1.275-7.225,0.425-11.05,0.425c-1.7,0-3.4,0-4.675,0.425c-25.5,14.025-51,28.051-76.926,42.075    c-0.85,0.425-1.274,0.851-2.55,1.7c2.55,2.55,4.675,4.675,6.8,6.8c7.65,7.65,7.65,16.575,0,24.226    c-14.024,14.024-28.05,28.05-42.074,42.074c-8.075,8.075-17,8.075-25.075,0c-7.65-7.649-14.875-14.875-22.525-22.524    C291.125,526.05,291.125,526.05,286.025,529.45z M341.275,318.65c-0.851,0.85-1.275,1.7-1.275,2.125c-8.5,15.3-17,30.6-25.5,45.9    C292.825,407.05,270.725,447,248.625,486.95c-0.85,1.7-1.7,2.975,0,4.675c9.35,9.35,18.7,18.7,28.475,28.05    c1.275,1.275,2.125,1.7,3.825,0.425c5.1-2.975,10.2-5.524,15.3-8.5c50.15-27.625,100.725-55.25,150.875-82.875    c0.851-0.425,2.125-1.274,2.976-2.125C413.95,390.9,377.825,354.775,341.275,318.65z M402.9,365.825    c18.699,18.7,36.975,36.975,55.675,55.675c0.85,0.85,2.125,2.125,3.399,2.975c3.4,2.551,7.226,1.7,10.2-1.274    c2.976-2.976,2.976-6.8,0.425-10.2c-0.85-1.275-2.125-2.55-3.399-3.825c-36.976-36.975-73.95-73.95-110.5-110.5    c-0.851-0.85-2.125-2.125-3.4-2.55c-2.975-2.125-6.375-1.7-8.925,0.425c-4.25,3.4-4.25,8.5,0,13.175    C365.5,328,384.2,347.125,402.9,365.825z M300.9,521.375c8.925,8.925,17,17.425,25.925,25.5c2.125,2.125,5.1,1.7,7.225-0.85    c14.875-14.45,29.325-29.325,43.775-43.775c2.55-2.55,2.55-5.525,0-8.075s-5.101-5.1-7.65-7.649c-1.7-1.7-2.975-2.125-5.1-0.851    C346.375,496.3,327.25,506.5,308.55,516.7C306,518.4,303.45,519.675,300.9,521.375z M244.8,524.35    c6.375,6.375,12.75,13.176,19.55,19.551c3.825,3.824,8.5,4.25,11.9,0.85s3.4-8.075-0.425-12.325    c-13.175-13.175-26.35-26.35-39.525-39.524c-3.825-3.825-8.5-4.25-11.9-0.851c-3.4,3.4-3.4,8.075,0.425,12.325    C231.625,511.175,238,517.975,244.8,524.35z"/>
	</g>
	<g>
		<path fill="#B22425" d="M40.375,657.375c0-174.25,0-348.5,0-522.75c0.425-0.85,0.85-1.275,1.275-2.125    C48.025,104.875,66.3,90,94.35,90c154.275,0,308.975,0,463.25,0c6.375,0,11.051,1.7,14.45,7.225c0,1.7,0,3.4,0,4.675    c-2.975,4.675-6.8,6.8-12.325,7.65c-17,1.7-28.475,14.45-28.475,31.025c0,16.15,11.475,29.325,28.475,31.025    c5.95,0.425,9.775,2.975,12.325,7.65c0,171.7,0,343.825,0,515.525C569.075,700.725,564.4,702,557.6,702    c-80.75,0-161.925,0-242.675,0c-73.95,0-147.9,0-221.85,0C68,702,48.875,687.55,42.5,664.175    C41.65,662.05,41.225,659.5,40.375,657.375z M551.65,436.8c0-79.9,0-159.375,0-239.275c0-5.525-1.7-6.8-6.801-6.8    c-132.175,0-264.35,0-396.1,0c-5.1,0-6.8,1.7-6.8,6.8c0,158.95,0,318.325,0,477.275c0,5.95,1.275,8.075,7.65,8.075    c131.325,0,263.075,0,394.4,0c7.65,0,7.65,0,7.65-8.075C551.65,595.325,551.65,516.275,551.65,436.8z M60.35,181.8    c0,2.55,0,4.675,0,6.8c0,40.8,0,82.025,0,122.825c0,113.05,0,226.101,0,339.575c0,16.15,10.2,28.9,25.925,31.025    c9.775,1.274,19.55,0.425,29.325,0.85c5.1,0.425,7.65-1.7,6.8-6.8c0-1.275,0-2.55,0-3.4c0-158.1,0-316.2,0-474.3    c0-5.525-1.275-7.225-6.8-7.225C96.9,191.575,78.2,192.85,60.35,181.8z M521.05,109.125c-4.25,0-6.8,0-9.35,0    c-36.976,0-73.95,0-110.925,0c-101.575,0-203.15,0-304.726,0c-4.675,0-9.775,0.425-14.025,1.7    c-14.875,4.25-23.8,19.55-21.25,34.425c2.55,15.725,15.725,25.925,33.15,25.925c140.25,0,280.075,0,420.325,0    c1.7,0,3.825-0.425,6.8-0.425C507.45,150.775,507.875,130.375,521.05,109.125z"/>
		<path fill="#B22425" d="M285.175,150.35c-62.05,0-124.1,0-185.725,0c-2.55,0-5.1,0-7.65,0c-5.525-0.425-9.775-4.25-9.775-9.35    c0-5.525,4.25-9.775,10.2-9.775c17.425,0,35.275,0,52.7,0c110.075,0,220.15,0,330.226,0c10.199,0,14.875,2.975,14.875,9.775    c0,6.375-4.676,9.35-14.45,9.35C411.825,149.925,348.5,149.925,285.175,150.35C285.175,149.925,285.175,150.35,285.175,150.35z"/>
	</g>
</g>
</svg>