<?xml version="1.0" encoding="UTF-8"?>
<!-- Generator: Adobe Illustrator 16.0.0, SVG Export Plug-In . SVG Version: 6.00 Build 0)  -->
<!DOCTYPE svg PUBLIC "-//W3C//DTD SVG 1.1//EN" "http://www.w3.org/Graphics/SVG/1.1/DTD/svg11.dtd">
<svg version="1.1" id="Layer_1" xmlns="http://www.w3.org/2000/svg" xmlns:xlink="http://www.w3.org/1999/xlink" x="0px" y="0px" width="612px" height="792px" viewBox="0 0 612 792" enable-background="new 0 0 612 792" xml:space="preserve">
<g>
	<path fill="#B22425" d="M74.375,340.325c5.1-24.225,8.075-48.025,14.875-70.55C102,224.3,129.625,188.6,166.6,159.7   c5.1-3.825,8.5-8.075,8.5-14.875c0-10.2,6.375-17.425,14.875-22.525C215.9,107,243.95,96.8,273.7,92.55   c51-7.225,99.875,1.7,145.35,27.2c11.476,6.375,18.275,15.725,19.55,28.9c0.426,2.975,2.976,6.8,5.525,8.925   c42.075,32.3,70.55,73.95,83.3,125.8c3.825,16.575,5.95,33.575,8.075,50.15c0.85,4.675,2.125,6.375,6.8,7.65   c30.175,6.8,48.025,28.05,48.45,59.075c0.425,17,0.425,34,0,51c-0.85,25.925-13.175,44.2-36.975,54.4   c-4.676,2.125-7.226,4.25-8.5,9.35c-4.25,15.725-17.426,25.5-34,25.925c-11.476,0.425-22.525,0-34.851,0   c0,11.05,0.425,22.101,0,32.726c-0.425,6.8-1.7,14.449-4.25,20.824c-12.75,30.601-12.75,60.351,2.125,90.101   C479.4,695.2,475.575,701.15,464.1,702c-1.699,0-3.399,0-5.1,0c-84.575,0-169.575,0-254.15,0c-22.525,0-42.075-6.8-56.1-25.5   c-8.5-11.475-12.75-24.65-13.175-38.675c0-27.2,0-54.825,0-82.025c0-88.399,0-176.8,0-264.775c0-28.475,11.475-50.575,36.55-64.6   c11.05-6.375,23.375-8.925,36.125-8.925c84.15,0,168.725,0,252.875,0c12.75,0,15.3,2.975,15.3,15.725c0,92.65,0,185.3,0,278.375   c0,2.551,0,5.525,0,8.5c13.601,0,26.775,0.426,39.95-0.425c2.975,0,5.525-4.25,8.5-6.375c-0.425-0.85-0.425-1.274-0.85-2.125   c-5.101,0-10.2,0-15.301,0c-13.6,0-16.574-2.55-16.574-16.149c0-46.325,0-92.65,0-138.976c0-13.175,2.55-15.725,15.725-16.15   c1.275,0,2.975,0,4.675,0c0-8.5,0.851-17,0-25.075c-7.649-55.675-32.725-102-76.925-136.85c-4.25-3.4-7.65-4.675-12.75-1.275   c-11.9,7.65-23.8,6.375-36.125-0.425c-53.55-29.325-107.1-28.9-160.65-0.425c-15.3,8.075-29.325,8.925-42.5-3.4   c-55.25,42.5-83.725,97.75-85.425,167.45c4.25,0.425,8.075,0,11.9,0.85c6.8,0.85,9.35,3.825,10.2,10.625c0,1.7,0,3.4,0,5.1   c0,45.9,0,91.8,0,137.7c0,2.976,0,6.375-0.425,9.351c-0.85,4.25-3.4,7.649-8.075,7.649c-16.15,0.851-31.875,2.125-47.6-2.55   C39.95,500.55,24.65,484.4,22.525,459.75c-2.125-21.675-2.55-44.2-0.425-65.875c2.55-28.475,19.55-45.9,47.6-52.275   C71.4,340.75,73.525,340.325,74.375,340.325z M455.175,237.9c-3.399,0-5.95,0-8.925,0c-79.475,0-158.95,0-238.425,0   c-31.025,0-51.85,20.825-51.85,51.85c0,97.75,0,195.075,0,292.825c0,2.125,0,3.825,0,7.225c16.15-13.6,34.425-17.425,53.975-17.425   c79.9,0.425,159.375,0,239.274,0c2.125,0,4.25,0,6.375,0c0-11.05,0-20.825,0-31.45c-3.824,0-7.225,0.425-10.625,0   c-6.8-0.85-10.199,1.275-13.175,8.075c-6.375,14.025-21.25,21.25-37.825,19.975c-14.449-1.274-28.05-12.324-32.3-26.35   c-4.675-15.3,0.425-31.45,12.325-40.8c19.55-15.726,47.175-9.351,58.65,13.175c1.274,2.125,3.399,5.525,5.524,5.525   c5.101,0.85,10.625,0.425,16.575,0.425C455.175,426.175,455.175,332.675,455.175,237.9z M450.5,593.2c-3.4,0-5.525,0-8.075,0   c-70.125,0-140.25,0-210.8,0c-10.2,0-20.825-0.425-31.025,0c-31.45,1.274-51.85,29.325-42.5,58.225   c5.95,18.7,22.525,30.175,44.2,30.175c80.75,0,161.5,0,242.25,0c1.7,0,2.976-0.425,5.525-0.425   C439.45,651.425,439.875,622.95,450.5,593.2z M513.4,489.5c5.949,0,11.899,0,17.425,0c22.524-0.85,39.1-16.575,39.95-39.1   c0.425-17,0.425-34,0-51c-0.426-17.851-11.9-32.726-28.051-36.976c-9.35-2.125-19.125-1.7-28.899-2.55   C513.4,403.65,513.4,446.15,513.4,489.5z M98.6,488.65c0-42.5,0-85.426,0-128.351c-5.525,0-11.05,0-16.15,0   c-23.375,0.425-40.375,16.575-40.8,39.95c-0.425,16.575-0.425,33.15,0,49.725c0.425,19.976,13.175,35.275,31.875,38.25   C81.6,489.925,90.1,488.65,98.6,488.65z M300.05,110.4c-8.5,1.275-24.65,2.55-40.8,5.525c-20.825,3.825-40.375,12.75-58.65,23.375   c-6.375,3.825-7.65,9.35-4.25,15.725c3.4,5.95,8.5,7.225,14.875,4.25c2.975-1.275,5.525-2.975,8.5-4.25   c43.35-22.1,88.825-28.475,136-14.45c14.875,4.675,28.9,11.9,43.351,18.275c8.925,3.825,16.575,1.275,17.85-7.65   c1.275-6.8-2.975-10.2-8.075-12.75C377.825,120.175,344.25,110.825,300.05,110.4z M415.65,531.15   c0-9.775-8.075-17.851-17.426-17.426c-9.35,0-17.425,8.5-17.425,17.851c0,9.35,8.075,17.425,17.425,17.425   C407.575,548.575,415.65,540.925,415.65,531.15z"/>
	<path fill="#B22425" d="M413.525,414.7c0,59.075-48.45,107.1-107.101,107.1c-59.5,0-107.525-48.45-107.525-107.524   c0-59.075,48.45-106.675,107.525-106.675C365.5,307.6,413.525,356.05,413.525,414.7z M306,500.975c47.6,0,86.275-38.25,86.7-85.85   c0.425-47.6-38.675-86.7-86.7-87.125c-46.75-0.425-86.275,39.1-86.275,86.275C218.875,461.875,257.975,500.55,306,500.975z"/>
	<path fill="#B22425" d="M306,608.075c35.275,0,70.125,0,105.4,0c6.375,0,13.175,5.524,13.175,10.2   c0,5.524-6.8,10.625-13.175,10.625c-69.7,0-139.4,0-209.101,0c-2.975,0-7.225,0-8.925-2.125c-2.55-2.551-5.525-7.226-5.1-10.2   c0.85-5.101,5.1-8.925,11.475-8.925c29.75,0,59.075,0,88.825,0C294.525,608.075,300.475,608.075,306,608.075L306,608.075z"/>
	<path fill="#B22425" d="M306,645.9c34.85,0,69.275,0,104.125,0c1.7,0,3.825,0,5.525,0c5.524,0.85,8.074,4.25,8.925,9.35   c0.85,4.25-3.4,9.775-8.075,10.625c-1.7,0.425-3.825,0.425-5.525,0.425c-68,0-135.575,0-203.575,0c-3.4,0-7.225,0-10.625-0.425   c-5.95-0.425-9.35-4.25-9.35-9.775c0-5.949,2.975-9.35,8.925-10.199c2.125-0.426,4.675,0,6.8,0   C237.575,645.9,271.575,645.9,306,645.9L306,645.9z"/>
	<path fill="#B22425" d="M266.9,415.125c0-14.45,0-28.475,0-42.925c0-14.025,7.225-18.275,19.55-11.05   c23.375,13.6,47.175,27.625,70.55,41.225c1.275,0.85,2.125,1.275,3.4,2.125c9.774,6.375,9.774,14.025-0.426,20.4   c-10.199,6.375-20.399,12.324-31.024,18.274c-14.025,8.075-28.05,16.575-42.5,25.075c-12.325,7.225-19.55,2.975-19.55-11.475   C266.9,442.75,266.9,428.725,266.9,415.125z M288.575,386.65c0,19.125,0,36.975,0,56.525c16.15-9.35,31.875-18.7,48.024-28.05   C320.025,404.925,304.725,396,288.575,386.65z"/>
</g>
</svg>