<?xml version="1.0" encoding="UTF-8"?>
<!-- Generator: Adobe Illustrator 16.0.0, SVG Export Plug-In . SVG Version: 6.00 Build 0)  -->
<!DOCTYPE svg PUBLIC "-//W3C//DTD SVG 1.1//EN" "http://www.w3.org/Graphics/SVG/1.1/DTD/svg11.dtd">
<svg version="1.1" id="Layer_1" xmlns="http://www.w3.org/2000/svg" xmlns:xlink="http://www.w3.org/1999/xlink" x="0px" y="0px" width="612px" height="792px" viewBox="0 0 612 792" enable-background="new 0 0 612 792" xml:space="preserve">
<g>
	<path fill="#B22425" d="M530.4,416.4c9.774,0,18.699,0,28.05,0c9.35,0,12.75,3.399,12.75,12.324c0,86.7,0,173.825,0,260.525   c0,8.925-3.825,12.325-13.601,12.325c-145.774,0-291.55,0-436.899,0c-22.1,0-44.2,0-66.3,0c-9.775,0-13.175-3.4-13.175-13.601   c0-86.274,0-172.55,0-258.824c0-10.2,3.4-13.176,13.175-13.601c8.925,0,17.85,0,27.625,0c0-2.975,0-5.95,0-8.5   c0-8.5,3.825-11.9,12.325-11.9c32.725,0,65.45,0,98.175,0c25.925,0,51.85,0,77.775,0c17.425,0,22.95,2.125,36.125,13.175   c2.55-2.125,5.101-5.101,8.5-6.375c7.226-2.976,14.875-6.8,22.101-6.8C396.95,396,457.725,396,518.5,396   c7.65,0,11.475,3.825,11.9,11.9C530.4,410.45,530.4,413,530.4,416.4z M509.575,416.4c-2.55,0-4.25,0-5.95,0   c-54.825,0-109.65,0-164.475,0c-15.726,0-23.375,8.074-23.375,23.375c0,66.3,0,132.6,0,198.899c0,2.125,0,4.25,0,5.101   c10.199-0.851,19.55-2.551,28.899-2.976c51.425-0.425,103.275,0,154.7,0c3.4,0,6.8,0,10.2,0   C509.575,565.575,509.575,491.625,509.575,416.4z M102.425,416.4c0,75.225,0,149.6,0,224.399c2.125,0,4.25,0,5.95,0   c38.25,0,76.925-0.425,115.175,0c23.8,0.425,48.025-3.825,71.825,4.25c0-0.85,0-1.7,0-2.55c0-68.425,0-136.85,0-205.275   c0-12.324-8.925-20.824-21.675-20.824c-34,0-68.425,0-102.425,0C148.75,416.4,125.8,416.4,102.425,416.4z M550.375,681.175   c0-81.6,0-162.774,0-244.375c-6.8,0-13.175,0-19.975,0c0,2.976,0,5.525,0,7.65c0,67.575,0,135.149,0,202.725   c0,10.2-3.4,13.601-13.176,13.601c-20.824,0-41.649,0-62.475,0c-38.675,0-77.775,0-116.45,0c-12.75,0-21.25,8.074-21.25,19.975   C394.4,681.175,472.175,681.175,550.375,681.175z M61.625,681.175c78.2,0,156.4,0,234.175,0   c0.425-11.475-10.2-20.399-21.675-19.975c-59.075,0.425-118.575,0-177.65,0c-11.475,0-14.45-2.976-14.45-14.45   c0-66.725,0-133.875,0-200.6c0-2.976,0-5.95,0-8.926c-7.225,0-13.6,0-19.975,0C61.625,518.825,61.625,599.575,61.625,681.175z"/>
	<path fill="#B22425" d="M102.425,283.8c-29.325,0-59.075,0-88.4,0c-5.525,0-10.2-0.85-12.75-6.375c-2.55-5.1,0-8.925,3.4-13.175   c14.45-17.425,28.9-34.425,42.925-51.85c1.7-2.125,2.975-5.525,2.975-8.5c0.425-13.175,0-26.35,0.425-39.525   c0-3.4,1.275-7.65,2.975-10.625C66.3,134.625,79.05,115.5,91.8,96.375c5.525-8.5,14.025-8.5,19.55,0   c12.75,19.125,25.925,38.25,38.25,57.8c1.7,2.55,2.55,6.375,2.55,9.35c0.425,13.175,0,26.35,0.425,39.525   c0,3.4,1.275,7.225,3.4,9.775c14.025,17.425,28.475,34.85,42.925,51.85c3.4,3.825,5.95,8.075,3.4,13.175   c-2.55,5.1-7.225,5.95-12.325,5.95C161.075,283.8,131.75,283.8,102.425,283.8z M71.825,172.025c0,30.6,0,60.775,0,90.95   c20.4,0,40.375,0,60.35,0c0-30.6,0-60.775,0-90.95C112.2,172.025,92.225,172.025,71.825,172.025z M123.675,151.2   c-7.65-11.475-14.45-21.675-21.675-32.3c-7.65,11.05-14.45,21.675-21.675,32.3C95.2,151.2,108.8,151.2,123.675,151.2z M51,240.875   c-6.8,8.075-12.325,14.875-18.275,22.1c6.8,0,12.75,0,18.275,0C51,255.75,51,249.375,51,240.875z M153.425,262.975   c5.95,0,11.475,0,18.275,0c-6.375-7.65-11.9-14.025-18.275-22.1C153.425,249.375,153.425,255.75,153.425,262.975z"/>
	<path fill="#B22425" d="M418.625,273.6c-8.075,0-12.75-6.8-9.775-14.45c4.676-12.325,9.351-24.65,14.45-36.55   c8.075-17.85,8.075-36.975,12.325-55.675c1.275-5.1,1.7-10.2,2.55-14.875c1.7-10.2,8.5-13.6,17.425-8.075   c31.45,18.7,62.9,37.825,94.351,56.525c17.425,10.625,34.85,20.825,52.274,31.45c5.101,2.975,10.2,5.95,8.926,13.175   c-1.275,6.8-7.226,8.075-13.176,8.5C538.9,260,479.825,266.8,420.75,273.6C420.325,273.6,419.475,273.6,418.625,273.6z    M543.15,221.75c0-0.425,0.425-0.85,0.425-1.7c-28.9-17.425-57.8-34.85-87.55-52.275c-2.125,12.75-4.25,24.225-5.95,36.55   C481.525,210.275,512.55,215.8,543.15,221.75z M444.975,223.875c-3.824,9.35-6.8,17.85-11.05,27.2   c32.3-3.4,62.9-7.225,93.925-10.625c0-0.425,0-0.85,0-1.275C500.65,234.5,473.025,229.4,444.975,223.875z"/>
	<path fill="#B22425" d="M255,317.375c-4.675,5.1-8.925,9.35-13.175,14.025c-4.675-4.675-8.925-9.35-12.75-14.025   c6.8-7.225,13.175-14.875,20.825-22.1c4.25-3.825,8.925-1.7,13.175,1.7c10.625,8.5,21.25,17,31.875,25.5   c2.55,2.125,5.1,3.825,7.65,5.95c10.2-11.9,22.525-17,37.825-13.6c8.925,2.125,16.15,6.8,20.825,14.875   c2.125,3.825,4.675,5.1,8.5,4.675c2.55-0.425,5.525-0.425,8.075,0c9.35,1.275,17-0.425,19.975-11.475   c-2.125-1.275-5.1-3.4-9.35-5.95c-4.25,5.1-8.5,9.775-13.175,15.3c-5.525-5.525-10.2-10.2-14.875-14.875   c6.8-7.225,13.6-14.025,20.399-20.825c3.825-3.4,8.075-3.4,12.325-0.425s8.925,5.95,13.175,8.925   c7.65,5.1,14.875,9.35,24.226,11.05c17.425,2.975,28.899,19.125,27.625,36.55c-0.851,17-14.45,31.025-31.45,33.15   c-16.575,2.125-33.15-8.5-37.825-24.65c-1.275-4.675-3.4-5.525-7.65-5.525c-9.35-0.85-15.3,0.425-19.125,11.05   c-5.1,14.45-22.1,21.675-36.55,19.125c-15.725-2.55-27.2-14.875-30.175-30.6c-0.425-2.975-2.125-6.375-4.675-8.075   C280.075,336.925,268.175,327.575,255,317.375z M331.5,365.4c8.5,0,15.3-7.225,15.3-15.725c0-8.075-6.8-14.875-15.3-14.875   s-15.3,6.8-15.3,15.3S323.425,365.4,331.5,365.4z M423.725,365.4c8.5,0,15.301-7.225,14.875-15.725c0-8.5-7.225-15.3-15.725-14.875   C414.8,335.225,408,342.025,408,350.1C408,358.6,415.225,365.4,423.725,365.4z"/>
	<path fill="#B22425" d="M316.2,274.025c0,3.4,0,6.375,0,9.35c-6.8,0-13.175,0-19.975,0c0-2.975-0.425-5.95-0.425-8.925   c-16.15-4.675-19.975-9.775-20.4-26.775c0-2.125,0-4.25,0-6.375c0.85-10.625-1.275-19.55-8.925-28.475   c-18.275-20.825-14.025-52.7,7.225-70.55c21.25-17.425,52.274-14.875,70.55,5.95c18.275,20.4,16.575,51.425-3.4,70.55   c-2.975,2.975-4.25,5.525-4.25,9.775c0.426,6.8,0,14.025,0,20.825C336.6,264.25,331.075,271.05,316.2,274.025z M297.5,219.2   c5.1-1.275,11.9-2.975,18.275-4.25c0.425,0,1.274-0.425,1.699-0.85c2.976-3.4,5.95-6.8,8.926-9.775   c12.75-12.325,13.6-31.45,1.274-43.775c-12.325-12.325-31.875-12.325-43.775,0c-11.9,12.75-11.05,31.45,1.7,44.2   C289.85,208.575,292.825,213.675,297.5,219.2z M315.775,235.775c-6.801,1.7-13.175,3.4-19.55,5.1c0,4.675,0,8.5,0,12.325   c6.8,0,13.175,0,19.55,0C315.775,247.25,315.775,241.725,315.775,235.775z"/>
	<path fill="#B22425" d="M62.9,288.475c5.95,3.825,11.05,7.225,16.575,11.05c-2.975,4.675-5.95,9.35-8.925,14.45   c16.15-2.125,22.525,7.225,26.775,19.55c0.85,2.55,2.55,5.1,4.25,8.925c3.4-6.375,6.375-11.475,8.5-17.425   c2.975-8.075,8.5-11.9,17-10.625c1.7,0,3.4,0,5.95-0.425c-3.4-5.1-5.95-9.35-9.35-14.45c5.525-3.825,11.05-7.225,17-11.475   c7.225,11.05,14.45,21.25,20.825,32.3c3.825,6.375-1.275,14.025-8.925,14.45c-6.375,0.425-12.75,0.425-19.125,0   c-4.25-0.425-5.95,1.275-7.65,5.1c-4.675,9.775-9.35,19.125-14.025,28.475c-2.125,4.25-5.1,7.65-10.2,7.65   c-5.1,0-8.075-2.975-10.2-7.65c-4.675-9.775-9.35-19.55-14.45-28.9c-1.275-2.125-4.25-3.825-6.375-4.25   c-6.375-0.425-13.175,0-19.55-0.425c-8.075-0.425-12.75-7.65-8.925-14.45c3.4-5.95,7.65-11.9,11.475-17.85   C56.525,298.25,59.5,293.575,62.9,288.475z"/>
	<path fill="#B22425" d="M567.375,148.65c-6.375-5.95-11.05-10.2-16.15-15.3c5.101-4.25,9.775-8.5,16.15-14.025   c-6.375-5.1-11.475-8.925-17-13.175c5.95-5.95,10.625-10.625,15.725-15.725c4.25,4.675,8.5,9.35,13.601,15.3   c5.1-5.95,9.35-11.05,13.6-16.15c5.95,5.95,10.2,10.2,15.3,15.3c-4.675,4.25-9.774,8.5-15.3,13.6c5.95,5.1,11.05,9.35,16.15,13.6   c-5.95,5.95-10.625,10.2-15.726,15.3c-4.25-4.675-8.5-9.35-13.6-15.725C575.45,138.875,571.2,143.975,567.375,148.65z    M580.125,132.925c4.25-4.25,8.925-8.925,13.175-13.175c-4.25-4.25-8.925-8.925-13.175-13.175   c-4.25,4.25-8.925,8.925-13.175,13.175C571.2,124,575.875,128.25,580.125,132.925z"/>
	<path fill="#B22425" d="M595.425,343.725c-0.85,0.85-2.975,2.975-5.1,5.525c2.125,2.55,4.25,4.675,5.95,6.8   c-4.676,4.675-9.351,9.35-14.45,14.025c-1.7-1.7-3.825-3.825-6.375-5.95c-2.55,2.125-4.675,4.25-7.226,6.375   c-4.675-4.675-8.925-9.35-14.024-14.025c2.125-2.125,4.25-4.675,6.375-7.225c-2.125-2.125-4.25-4.675-6.375-7.225   c5.1-4.675,9.774-8.925,14.875-13.6c1.7,1.275,3.825,3.4,6.375,5.95c2.125-2.125,4.25-4.25,6.8-5.95   C586.5,333.525,590.75,338.2,595.425,343.725z"/>
	<path fill="#B22425" d="M296.225,109.975c0-6.8,0-12.75,0-19.55c6.375,0,12.75,0,19.55,0c0,6.375,0,12.75,0,19.55   C309.4,109.975,303.025,109.975,296.225,109.975z"/>
	<path fill="#B22425" d="M377.825,172.025c6.8,0,12.75,0,19.55,0c0,6.375,0,13.175,0,19.975c-6.375,0-12.75,0-19.55,0   C377.825,185.2,377.825,178.4,377.825,172.025z"/>
	<path fill="#B22425" d="M214.625,191.575c0-6.8,0-12.75,0-19.55c6.375,0,12.75,0,19.55,0c0,6.375,0,12.75,0,19.55   C227.8,191.575,221.425,191.575,214.625,191.575z"/>
	<path fill="#B22425" d="M376.975,124.85c-4.25,4.25-8.5,8.5-13.175,13.175c-4.25-4.675-8.925-9.35-12.75-13.6   c4.25-4.25,8.925-8.925,13.175-13.175C367.625,115.5,372.3,120.175,376.975,124.85z"/>
	<path fill="#B22425" d="M351.05,237.9c3.4-2.975,8.075-7.65,12.75-11.9c4.675,4.25,8.925,8.925,14.025,13.6   c-4.675,4.675-9.351,8.925-14.45,13.6C359.975,248.525,355.725,243.425,351.05,237.9z"/>
	<path fill="#B22425" d="M235.025,238.75c4.25-3.825,8.5-8.5,13.175-13.175c4.25,4.675,8.925,9.35,13.6,14.025   c-4.25,4.675-8.925,8.925-13.175,13.6C244.375,248.525,239.7,243.85,235.025,238.75z"/>
	<path fill="#B22425" d="M247.775,137.6c-4.25-4.25-8.5-8.925-12.75-13.175c4.675-4.25,9.35-8.5,13.6-13.175   c3.4,3.825,7.65,8.5,11.9,12.75C257.125,128.25,252.45,132.925,247.775,137.6z"/>
	<path fill="#B22425" d="M337.025,579.175c0-6.8,0-13.175,0-19.55c50.574,0,101.149,0,152.149,0c0,6.375,0,12.75,0,19.55   C438.6,579.175,388.025,579.175,337.025,579.175z"/>
	<path fill="#B22425" d="M337.025,478.025c50.574,0,101.149,0,152.149,0c0,6.8,0,13.175,0,19.975c-50.575,0-101.149,0-152.149,0   C337.025,491.2,337.025,484.825,337.025,478.025z"/>
	<path fill="#B22425" d="M489.175,437.225c0,6.801,0,13.176,0,19.551c-40.375,0-80.75,0-121.55,0c0-6.375,0-12.75,0-19.551   C408,437.225,448.375,437.225,489.175,437.225z"/>
	<path fill="#B22425" d="M458.575,600.425c0,6.8,0,13.175,0,19.55c-40.8,0-81.175,0-121.976,0c0-6.375,0-12.75,0-19.55   C377.4,600.425,417.775,600.425,458.575,600.425z"/>
	<path fill="#B22425" d="M337.025,538.375c0-6.8,0-13.175,0-19.55c26.774,0,53.55,0,80.75,0c0,6.375,0,12.75,0,19.55   C391,538.375,364.225,538.375,337.025,538.375z"/>
	<path fill="#B22425" d="M489.175,518.825c0,6.8,0,13.175,0,19.55c-16.575,0-33.149,0-50.149,0c0-6.375,0-12.75,0-19.55   C455.6,518.825,472.175,518.825,489.175,518.825z"/>
	<path fill="#B22425" d="M122.825,619.975c0-6.8,0-13.175,0-19.55c50.575,0,101.15,0,152.15,0c0,6.375,0,12.75,0,19.55   C224.4,619.975,173.825,619.975,122.825,619.975z"/>
	<path fill="#B22425" d="M122.825,538.375c0-6.8,0-13.175,0-19.55c50.575,0,101.15,0,152.15,0c0,6.375,0,12.75,0,19.55   C224.4,538.375,173.825,538.375,122.825,538.375z"/>
	<path fill="#B22425" d="M274.975,478.025c0,6.8,0,13.175,0,19.55c-51,0-101.575,0-152.575,0c0-6.375,0-12.75,0-19.55   C173.4,478.025,223.975,478.025,274.975,478.025z"/>
	<path fill="#B22425" d="M274.975,457.2c-34,0-67.15,0-101.15,0c0-6.375,0-13.175,0-19.976c33.575,0,67.15,0,101.15,0   C274.975,444.025,274.975,450.4,274.975,457.2z"/>
	<path fill="#B22425" d="M274.975,559.625c0,6.8,0,13.175,0,19.55c-23.375,0-46.75,0-70.55,0c0-6.375,0-12.75,0-19.55   C227.8,559.625,251.175,559.625,274.975,559.625z"/>
	<path fill="#B22425" d="M122.825,579.175c0-6.8,0-13.175,0-19.55c19.975,0,39.95,0,60.35,0c0,6.375,0,12.75,0,19.55   C163.2,579.175,143.225,579.175,122.825,579.175z"/>
</g>
</svg>