<?xml version="1.0" encoding="UTF-8"?>
<!-- Generator: Adobe Illustrator 16.0.0, SVG Export Plug-In . SVG Version: 6.00 Build 0)  -->
<!DOCTYPE svg PUBLIC "-//W3C//DTD SVG 1.1//EN" "http://www.w3.org/Graphics/SVG/1.1/DTD/svg11.dtd">
<svg version="1.1" id="Layer_1" xmlns="http://www.w3.org/2000/svg" xmlns:xlink="http://www.w3.org/1999/xlink" x="0px" y="0px" width="612px" height="792px" viewBox="0 0 612 792" enable-background="new 0 0 612 792" xml:space="preserve">
<g>
	<path fill="#B22425" d="M109.65,218.775c0-27.625,0-54.825,0-81.6c0-6.8,0.425-13.6,1.7-20.4c1.7-8.925,6.375-17,14.025-22.1   C129.2,92.125,134.3,90,138.975,90c63.75-0.425,127.925,0,191.675,0c83.3,0,166.6,0,249.899,0c6.375,0,11.476,2.125,16.15,6.375   c9.774,9.35,14.875,19.55,14.875,33.575c-0.425,178.5-0.425,356.575,0,535.075c0,13.6-5.95,24.225-15.726,32.3   c-3.399,2.55-8.5,4.675-12.75,4.675c-147.475,0.425-295.375,0-442.85,0.425c-11.9,0-19.125-7.649-23.375-17   c-3.825-8.075-5.525-17.85-5.95-26.774c-0.425-29.325,0-58.65,0-87.976C110.5,500.55,110.5,430.85,110.5,361.15   c0-5.95-1.7-10.2-5.95-14.45c-30.175-29.75-59.925-59.925-89.675-89.675c-18.7-18.7-18.7-29.75-0.425-48.45   c7.65-7.65,15.3-15.3,22.95-22.95c12.325-11.9,25.925-11.9,37.825,0c10.625,10.625,21.675,21.25,32.3,31.875   C107.95,217.925,108.375,217.925,109.65,218.775z M132.6,372.625c-0.85,0.85-1.7,1.275-2.55,2.125c0,2.125,0,4.25,0,6.375   c0,93.075,0,186.15,0,279.225c0,18.275,5.95,24.226,24.225,24.226c136.85,0,274.125,0,410.975,0c2.975,0,5.95,0,8.5-0.425   c8.075-0.851,13.6-5.95,15.725-14.025c0.851-3.825,1.275-8.075,1.275-12.325c0-175.524,0-351.475,0-527   c0-17-5.95-23.375-23.375-23.375c-137.7,0-275.825,0-413.525,0c-17,0-23.375,6.375-23.375,23.375c0,33.15,0,66.3,0,99.875   c0,6.375,1.7,11.475,6.375,16.15c42.925,43.35,85.85,87.125,128.35,130.9c3.4,3.4,6.375,8.5,7.225,13.175   c5.1,22.1,9.35,44.625,14.025,67.15c1.275,7.226,0.425,8.075-6.8,6.8c-22.525-4.675-44.625-9.35-66.725-14.449   c-4.675-1.275-9.775-3.825-13.175-7.226c-21.25-21.675-42.5-43.35-64.175-64.6C134.3,376.875,133.45,374.325,132.6,372.625z    M76.5,237.05c53.55,53.55,107.1,107.1,159.375,159.375c3.4-2.975,6.8-5.95,10.625-9.35C192.525,333.95,139.4,280.825,85.85,227.7   C82.875,230.675,79.475,234.075,76.5,237.05z M219.725,414.7c-53.975-53.975-107.1-107.1-161.075-161.075   c-2.55,2.125-5.525,4.675-8.075,7.225c53.975,53.975,107.525,107.525,161.5,161.075C214.2,419.8,216.75,417.675,219.725,414.7z    M70.55,208.15c-2.55-2.55-5.525-5.1-8.075-7.65c-4.25-4.25-7.65-4.675-11.9,0c-7.225,7.65-14.875,14.875-22.1,22.525   c-8.925,8.925-8.5,8.925-0.425,18.275c1.7,1.7,3.4,3.4,4.675,5.1C45.475,233.65,57.8,220.9,70.55,208.15z M263.075,439.35   c-2.125-10.199-3.825-19.55-5.525-28.475c-7.65,7.65-14.875,14.875-22.525,22.525C243.525,435.525,252.875,437.65,263.075,439.35z"/>
	<path fill="#B22425" d="M409.275,131.65c48.024,0,96.475,0,144.5,0c8.074,0,8.5,0,8.5,8.075c0,60.775,0,121.125,0,181.9   c0,7.65-0.426,8.075-8.075,8.075c-96.9,0-193.8,0-290.7,0c-7.65,0-8.075-0.425-8.075-8.075c0-60.775,0-121.125,0-181.9   c0-8.075,0-8.5,8.5-8.5C312.375,131.65,360.825,131.65,409.275,131.65z M276.675,152.05c0,41.225,0,82.025,0,123.675   c2.55-2.125,3.825-3.4,5.525-5.1c16.575-15.3,33.149-31.025,49.3-46.325c3.825-3.825,6.8-3.825,10.2,0   c8.075,8.075,16.575,15.725,25.075,23.375c1.274-1.275,2.55-2.125,3.399-3.4c11.05-12.325,22.101-24.65,33.15-36.975   c6.375-6.8,6.375-6.8,13.175-0.425c11.05,10.2,22.1,20.825,33.15,31.025c11.899,11.475,24.225,22.525,36.55,34   c8.5-7.65,16.575-15.3,24.225-22.95c5.95-5.95,6.375-5.95,12.75,0c5.95,5.525,12.325,11.475,18.7,17.425c0-39.1,0-76.925,0-114.75   C454.325,152.05,365.925,152.05,276.675,152.05z M274.975,306.75c0.425,0.425,0.85,0.85,1.275,1.7c88.4,0,177.225,0,266.9,0   c-0.851-5.1,0-10.625-2.551-13.6c-7.225-8.075-15.725-15.3-23.8-22.95c-8.925,8.075-17,15.725-25.075,23.8   c-4.25,4.25-7.225,4.25-11.475,0c-10.2-10.2-21.25-19.975-31.45-30.175c-12.75-11.9-25.075-23.375-37.825-35.275   c-12.324,13.6-24.225,26.775-36.125,39.95c-6.375,7.225-6.8,7.225-13.6,0.85c-8.075-7.65-16.575-14.875-25.075-22.525   C315.35,268.075,294.95,287.2,274.975,306.75z"/>
	<path fill="#B22425" d="M457.3,199.225c0-17,13.175-30.175,29.75-30.175s30.175,13.6,30.175,30.175   c0,16.575-13.6,30.175-30.175,30.175C470.05,229.4,457.3,216.225,457.3,199.225z M477.275,198.8   c-0.426,5.525,3.399,10.2,8.925,10.625c5.524,0.425,10.2-3.825,10.625-8.925c0.425-5.525-3.825-10.2-9.351-10.625   C482.375,189.45,477.7,193.275,477.275,198.8z"/>
</g>
<rect x="314.925" y="359.875" fill="#B22425" width="247.351" height="21.675"/>
<rect x="314.925" y="410.45" fill="#B22425" width="247.351" height="21.675"/>
<rect x="314.925" y="459.325" fill="#B22425" width="247.351" height="21.675"/>
<rect x="159.375" y="509.9" fill="#B22425" width="402.9" height="21.675"/>
<rect x="159.375" y="558.35" fill="#B22425" width="402.9" height="21.676"/>
<rect x="159.375" y="608.925" fill="#B22425" width="402.9" height="21.675"/>
</svg>