<?xml version="1.0" encoding="UTF-8"?>
<!-- Generator: Adobe Illustrator 16.0.0, SVG Export Plug-In . SVG Version: 6.00 Build 0)  -->
<!DOCTYPE svg PUBLIC "-//W3C//DTD SVG 1.1//EN" "http://www.w3.org/Graphics/SVG/1.1/DTD/svg11.dtd">
<svg version="1.1" id="Layer_1" xmlns="http://www.w3.org/2000/svg" xmlns:xlink="http://www.w3.org/1999/xlink" x="0px" y="0px" width="612px" height="792px" viewBox="0 0 612 792" enable-background="new 0 0 612 792" xml:space="preserve">
<g>
	<path fill="#B22425" d="M570.35,395.575c0,99.024,0,197.625,0,296.649c0,9.351,0,9.351-9.774,9.351c-153.425,0-306.85,0-460.275,0   c-20.825,0-38.675-6.8-50.15-25.075c-6.8-10.625-8.5-22.525-8.5-34.85c0-128.775,0-257.125,0-385.9c0-35.7,0-71.825,0-107.525   c0.425-30.6,13.6-48.45,43.775-56.95c2.55-0.85,5.525-1.275,8.5-1.275c155.975,0,311.95,0,467.925,0c8.075,0,8.075,0.425,8.075,8.5   C570.35,197.525,570.35,296.55,570.35,395.575z M549.1,592.775c0-161.075,0-321.3,0-481.95c-147.899,0-294.95,0-442.425,0   c0,160.65,0,321.3,0,481.95C254.15,592.775,401.2,592.775,549.1,592.775z M549.95,612.75c-2.976,0-5.525,0-7.65,0   c-146.625,0-293.675,0-440.3,0c-2.55,0-5.1,0-7.225,0c-16.15,0.85-29.75,12.75-32.725,27.625   c-4.25,23.375,12.325,41.65,37.825,41.65c147.9,0,295.8,0,443.7,0c2.125,0,4.25,0,6.8,0   C549.95,659.075,549.95,636.55,549.95,612.75z M85.425,112.1c-1.7,0.425-2.125,0.425-2.55,0.425   c-0.85,0.425-2.125,0.85-2.975,1.275c-14.025,7.65-18.7,19.975-18.7,35.275c0,149.6,0,299.2,0,448.8c0,2.125,0,3.825,0.425,6.8   c6.375-3.399,11.9-6.375,17.425-8.925c5.1-2.125,6.375-5.1,6.375-10.625c0-155.55,0-310.675,0-466.225   C85.425,117.2,85.425,114.65,85.425,112.1z"/>
	<path fill="#B22425" d="M370.175,638.675c-10.2,0-10.2,0-10.2,9.775c0,9.774,0,9.774,9.351,9.774c10.625,0,10.625,0,10.625-9.774   C379.95,638.675,379.95,638.675,370.175,638.675z M449.225,648.45c0-9.351-1.274-10.2-9.774-10.2c-6.8,0-10.625,3.4-10.625,9.775   c0,8.5,2.55,10.625,11.05,10.625C449.225,658.225,449.225,658.225,449.225,648.45z M414.375,648.45c0-9.775,0-9.775-9.35-9.775   c-10.625,0-10.625,0-10.625,9.775c0,9.774,0,9.774,9.774,9.774C414.375,658.225,414.375,658.225,414.375,648.45z M473.875,638.675   c-9.775,0-9.775,0-9.775,9.775c0,9.774,0,9.774,9.775,9.774s9.775,0,9.775-9.774C483.65,638.675,483.65,638.675,473.875,638.675z    M507.875,658.225c10.2,0,10.2,0,10.2-9.35c0-10.2,0-10.2-9.351-10.2c-10.199,0-10.199,0-10.199,9.775   C498.1,658.225,498.1,658.225,507.875,658.225z"/>
	<path fill="#B22425" d="M514.25,384.95c0,51,0,102,0,153c0,17.425-8.925,30.175-23.8,34c-21.25,5.95-41.226-8.075-42.925-30.175   c0-2.551-0.426-5.101-0.426-7.226c0-100.3,0-200.6,0.426-300.9c0-5.1,0.85-10.625,2.975-15.3c8.075-17,16.575-34,25.5-51   c0.85-1.7,2.975-3.4,4.25-4.675c1.7,1.7,3.825,2.975,5.1,4.675c8.926,17.425,17.851,34.85,26.351,52.7   c1.7,3.825,2.55,8.075,2.55,12.325C514.25,282.95,514.25,333.95,514.25,384.95z M468.775,261.7c0,77.775,0,155.125,0,232.475   c8.5,0,16.149,0,24.225,0c0-77.774,0-155.125,0-232.475C484.925,261.7,477.275,261.7,468.775,261.7z M467.925,515.85   c0,8.926-0.425,17,0,25.075c0.425,6.375,5.525,11.05,11.476,11.476c5.949,0.425,12.75-3.4,13.175-8.926c0.85-9.35,0-18.699,0-28.05   C484.5,515.85,476.425,515.85,467.925,515.85z M480.675,204.75c-5.95,11.9-14.875,22.1-12.75,36.55c8.5,0,17,0,25.5,0   C495.55,226.85,487.05,216.65,480.675,204.75z"/>
	<path fill="#B22425" d="M278.375,174.15c-45.05,0-89.675,0-134.725,0c-7.65,0-8.925-0.85-9.35-9.35   c-0.425-7.225,1.7-10.2,8.925-10.625c2.125,0,4.25,0,5.95,0c87.125,0,174.25,0,260.95,0c2.125,0,4.675-0.425,6.8,0.425   s3.4,2.975,5.101,4.675v0.425c1.274,13.175,0.425,14.45-12.75,14.45C365.925,174.15,322.15,174.15,278.375,174.15z"/>
	<path fill="#B22425" d="M263.925,414.7c-40.375,0-80.75,0-121.125,0c-8.075,0-8.075,0-8.075-8.075c0-11.475,0-11.475,11.475-11.475   c79.475,0,158.95,0,238,0c2.975,0,8.5,0.85,8.925,2.125c0.85,5.1,0.85,10.625,0,15.725c0,0.85-4.25,1.7-6.375,2.125   c-26.35,0-52.7,0-79.05,0C293.25,414.7,278.8,414.7,263.925,414.7z"/>
	<path fill="#B22425" d="M253.725,318.65c-36.55,0-73.1,0-110.075,0c-2.55,0-7.65-1.275-7.65-2.55   c-0.85-5.1-0.425-10.625,0.425-15.725c0-0.85,4.25-1.275,6.8-1.275c29.325,0,58.65,0,87.975,0c43.775,0,87.55,0,131.325,0   c10.199,0,10.199,0,10.199,10.2c0,9.35,0,9.35-9.35,9.35c-1.275,0-2.975,0-4.25,0C323.85,318.65,289,318.65,253.725,318.65z"/>
	<path fill="#B22425" d="M246.925,510.75c-34,0-68.425,0-102.425,0c-9.775,0-9.775,0-9.775-10.2c0-8.075,1.7-9.774,10.2-9.774   c34,0,68.425,0,102.425,0c34.85,0,69.7,0,104.55,0c7.649,0,8.074,0.425,8.074,8.074c0,1.275,0,2.551,0,3.825   c0,7.65-0.85,8.075-8.074,8.075C317.05,510.75,282.2,510.75,246.925,510.75z"/>
	<path fill="#B22425" d="M232.475,221.75c-29.325,0-59.075,0-88.4,0c-7.65,0-8.925-0.85-9.35-8.075   c-0.425-8.925,1.275-11.05,8.5-11.9c2.55-0.425,5.525-0.425,8.075-0.425c56.1,0,112.2,0,168.3,0c9.351,0,9.351,0,9.351,8.925   c0,1.275,0,2.975,0,4.25c0.425,5.1-1.7,6.8-6.8,6.8c-14.45,0-28.476,0-42.925,0C263.5,221.75,247.775,221.75,232.475,221.75z"/>
	<path fill="#B22425" d="M215.475,539.65c23.8,0,48.025,0,71.825,0c8.075,0,8.5,0.425,8.5,8.074c0,2.125,0.85,4.25,0,5.95   c-0.85,2.125-2.975,3.825-5.1,5.525c-0.85,0.425-2.55,0-3.4,0c-47.6,0-95.2,0-143.225,0c-8.075,0-8.5-0.425-8.5-8.925   c0-11.9-0.85-11.051,10.625-11.051C169.15,539.65,192.1,539.65,215.475,539.65z"/>
	<path fill="#B22425" d="M215.05,367.1c-23.8,0-48.025,0-71.825,0c-7.65,0-8.075-0.425-8.075-7.65c0-11.9,0-11.9,11.475-11.9   c46.325,0,92.65,0,138.55,0c10.2,0,10.2,0,10.2,10.625c0,0.425,0,0.85,0,1.275c0.85,5.95-1.7,8.075-7.65,8.075   C263.5,367.1,239.275,367.1,215.05,367.1z"/>
	<path fill="#B22425" d="M195.925,443.175c17.425,0,35.275,0,52.7,0c5.95,0,8.075,1.7,8.075,7.65c0,12.325,0,12.325-12.325,12.325   c-32.725,0-65.45,0-98.175,0c-10.2,0-15.3-7.65-11.05-17c0.85-1.7,4.25-2.551,6.8-2.551   C160.225,443.175,178.075,443.175,195.925,443.175z"/>
	<path fill="#B22425" d="M353.175,559.2c-10.2,0-10.2,0-10.2-10.2c0-9.35,0-9.35,11.051-9.35c9.35,0,9.35,0,9.35,9.774   C363.8,559.2,363.8,559.2,353.175,559.2z"/>
	<path fill="#B22425" d="M144.925,270.2c-9.775,0-9.775,0-9.775-9.775c0-9.775,0-9.775,10.625-9.775c8.925,0,8.925,0,8.925,10.2   C154.7,270.2,154.7,270.2,144.925,270.2z"/>
	<path fill="#B22425" d="M319.175,539.225c2.976,0.851,8.075,1.275,8.5,2.551c1.275,4.675,0.851,10.199,0.425,14.875   c0,0.85-2.125,1.699-3.399,2.125c-2.55,0.425-4.675,0.425-7.226,0.425c-9.35,0-9.774,0-9.774-9.351   C308.125,540.075,308.125,540.075,319.175,539.225z"/>
	<path fill="#B22425" d="M299.2,260.425c0,9.775,0,9.775-9.775,9.775c-9.775,0-9.775,0-9.775-10.2c0-9.35,0-9.35,10.2-9.35   C299.2,250.65,299.2,250.65,299.2,260.425z"/>
	<path fill="#B22425" d="M325.975,250.225c10.2,0,10.2,0,10.2,9.775c0,10.2,0,10.2-9.774,10.2c-10.2,0-10.2,0-10.2-10.2   C316.625,250.225,316.625,250.225,325.975,250.225z"/>
	<path fill="#B22425" d="M181.475,250.65c9.775,0,9.775,0,9.775,9.775c0,9.775,0,9.775-9.775,9.775s-9.775,0-9.775-10.2   C171.275,250.65,171.275,250.65,181.475,250.65z"/>
	<path fill="#B22425" d="M217.175,270.2c-9.775,0-9.775,0-9.775-9.775c0-9.775,0-9.775,10.625-9.775c8.925,0,9.35,0,9.35,9.775   C226.95,270.2,226.95,270.2,217.175,270.2z"/>
	<path fill="#B22425" d="M252.45,270.2c-8.925,0-8.925,0-8.925-10.625c0-8.925,0-8.925,11.05-8.925c8.5,0,8.5,0,8.5,11.475   C263.075,270.2,263.075,270.2,252.45,270.2z"/>
	<path fill="#B22425" d="M370.175,638.675c9.775,0,9.775,0,9.775,9.775c0,9.774,0,9.774-10.625,9.774   c-9.351,0-9.351-0.425-9.351-9.774C359.975,638.675,359.975,638.675,370.175,638.675z"/>
	<path fill="#B22425" d="M449.225,648.45c0,10.2,0,10.2-9.774,10.2c-8.5,0-10.625-2.125-11.05-10.625   c0-6.375,3.824-9.775,10.625-9.775C447.95,637.825,449.225,639.1,449.225,648.45z"/>
	<path fill="#B22425" d="M414.375,648.45c0,9.774,0,9.774-9.775,9.774c-9.774,0-9.774,0-9.774-9.774c0-9.775,0-9.775,10.625-9.775   C414.375,638.675,414.375,638.675,414.375,648.45z"/>
	<path fill="#B22425" d="M473.875,638.675c9.775,0,9.775,0,9.775,9.775c0,9.774,0,9.774-9.775,9.774s-9.775,0-9.775-9.774   C463.675,638.675,463.675,638.675,473.875,638.675z"/>
	<path fill="#B22425" d="M507.875,658.225c-9.775,0-9.775,0-9.775-9.774c0-9.775,0-9.775,10.2-9.775c9.351,0,9.351,0,9.351,10.2   C517.65,658.225,517.65,658.225,507.875,658.225z"/>
</g>
</svg>