<?xml version="1.0" encoding="UTF-8"?>
<!-- Generator: Adobe Illustrator 16.0.0, SVG Export Plug-In . SVG Version: 6.00 Build 0)  -->
<!DOCTYPE svg PUBLIC "-//W3C//DTD SVG 1.1//EN" "http://www.w3.org/Graphics/SVG/1.1/DTD/svg11.dtd">
<svg version="1.1" id="Layer_1" xmlns="http://www.w3.org/2000/svg" xmlns:xlink="http://www.w3.org/1999/xlink" x="0px" y="0px" width="612px" height="792px" viewBox="0 0 612 792" enable-background="new 0 0 612 792" xml:space="preserve">
<g enable-background="new    ">
	<path fill="#B22425" d="M568.65,200.5c-33.15,8.075-62.9,18.7-91.375,32.725c-8.926,4.25-17.426,9.35-26.351,14.025   c-5.1,2.55-6.375,5.525-3.825,11.05c5.95,13.6,11.051,27.2,16.15,40.8c3.4,8.925,1.7,15.725-5.1,17.85   c-7.226,2.55-12.75-0.85-16.15-9.35c-6.8-17.425-14.025-34.85-20.825-52.7c-4.25-10.625-2.975-14.45,6.375-20.4   c50.575-31.45,105.4-52.275,164.05-62.05c9.351-1.7,14.875,2.975,15.726,11.475c3.825,32.725,5.524,65.875,3.399,98.6   c-2.55,36.125-8.925,70.975-20.399,105.4c-2.55,7.65-7.65,10.625-15.3,10.2c-36.551-2.55-73.101-4.675-109.65-6.8   c-2.975,0-6.8,1.7-8.925,4.25c-4.675,5.1-8.075,10.625-13.175,17.425c16.149,1.275,30.6,2.125,45.05,3.4   c20.399,1.274,40.8,2.55,61.2,3.824c13.175,0.851,17.85,4.676,17.425,13.176c-0.851,7.649-5.101,10.625-17.851,9.774   c-38.25-2.125-76.5-4.675-114.324-7.225c-4.676-0.425-8.075,0.425-10.625,4.675c-2.976,5.1-6.801,9.775-11.051,15.725   c14.875,0.851,28.051,2.125,41.226,2.976c23.375,1.7,46.325,2.975,69.7,4.675c8.5,0.425,13.175,5.1,12.75,11.9   c-0.426,7.225-5.95,11.05-14.45,10.625c-39.101-2.551-78.2-4.676-117.726-7.65c-5.949-0.425-9.774,1.275-12.75,6.375   c-2.55,4.25-5.524,8.075-9.35,13.175c14.875,1.275,28.475,2.125,42.5,3.4c19.55,1.274,39.1,2.55,58.65,3.825   c2.55,0,5.1,0.425,7.649,0.85c5.525,0.425,10.625,2.55,11.05,8.075c0.426,4.25-1.274,10.2-4.25,13.175   c-23.375,23.8-48.875,44.625-78.199,61.2c-21.676,12.325-43.775,22.1-68.851,25.075c-14.024,2.125-28.475,1.699-41.649-3.4   c-5.1-2.125-7.65-0.425-10.625,3.825c-17.85,25.075-36.125,50.149-54.4,75.225c-0.85,1.275-1.7,2.125-2.125,2.976   c-5.525,7.649-11.9,9.35-17.85,5.524c-5.95-4.25-6.375-11.05-0.85-18.7c10.2-14.449,20.4-28.475,30.6-42.5   C356.575,494.6,459,352.65,561.425,211.125C563.55,208.15,565.25,205.6,568.65,200.5z M587.35,217.075   c-0.425-0.425-0.85-0.425-1.699-0.85c-36.551,50.575-73.101,101.15-110.5,153c30.6,1.7,59.074,3.4,87.55,5.1   c6.8,0.425,9.774-1.7,10.625-7.65c4.675-25.075,11.05-50.15,13.6-75.225C589.475,266.8,587.35,241.725,587.35,217.075z    M317.475,588.1c1.275,0.851,2.125,1.275,2.551,1.7c1.274,0.425,2.975,0.851,4.675,1.275c17,4.25,33.149,0.85,49.3-5.101   c33.15-11.899,61.2-32.3,87.55-55.675c0.851-0.85,1.275-2.125,2.125-3.399c-31.45-2.125-62.475-4.676-93.075-6.375   c-2.55,0-5.524,2.55-7.225,4.675c-13.175,17.85-26.35,36.125-39.1,53.975C321.725,582.15,319.6,585.125,317.475,588.1z"/>
	<path fill="#B22425" d="M95.2,495.45c-1.7-0.425-3.4-0.851-4.675-0.851c-8.5-1.699-11.475-5.1-11.9-14.024c0-17.851,0-35.7,0-53.55   c0-9.775,4.25-13.601,14.025-13.601c39.95,0,79.475,0,119.425,0c9.775,0,14.025,3.825,14.025,13.601c0,16.149,0,32.3,0,48.875   c0,14.449-0.425,15.3-14.025,19.975c-0.425,9.775,4.25,17,11.475,22.525c2.125,1.699,4.675,2.55,6.8,3.824   c5.95,3.825,8.075,9.775,5.525,15.301c-2.975,5.949-9.35,8.074-16.15,4.675c-16.575-8.075-27.625-20.4-30.6-39.101   c-0.425-2.55-0.85-5.1-1.275-8.074c-22.95,0-45.475,0-68.85,0c-0.425,2.55-1.275,4.675-1.7,7.225   c-2.55,18.7-12.75,31.875-29.75,39.95c-12.75,5.95-25.925,11.05-38.675,17.425C25.5,571.525,17,591.5,26.35,617   c3.825,10.625,11.475,19.975,17.85,30.175c0.85,1.7,2.55,2.55,3.825,4.25c16.575,19.55,35.7,31.875,63.75,28.476   c22.525-2.976,45.9-0.426,69.275-0.426c9.775,0,14.45,3.825,14.45,11.476c0,7.649-5.1,11.475-14.875,11.475   c-33.575,0-67.575,0-101.15,0c-3.4,0-7.225-0.425-9.775-2.125c-25.925-19.125-49.3-40.375-62.475-70.975   c-16.575-38.675-1.275-76.5,37.4-93.5c10.625-4.675,21.675-8.5,32.725-13.175C88.4,517.125,94.775,508.625,95.2,495.45z    M203.15,436.375c-33.15,0-64.6,0-96.475,0c-1.7,0-4.675,2.55-4.675,4.25c-0.425,9.775-0.425,19.55-0.425,31.025   c33.15,0,65.025,0,97.325,0c1.275,0,3.825-2.976,3.825-4.25C203.15,457.2,203.15,447,203.15,436.375z"/>
	<path fill="#B22425" d="M385.475,296.975c-7.225,8.925-14.449,16.575-20.824,24.65c-32.301,45.05-59.075,92.65-73.525,146.625   c-7.225,28.05-10.625,56.1-4.25,84.575c1.7,8.075-1.275,13.6-8.075,15.3c-6.8,1.7-11.9-2.125-14.025-10.2   c-7.225-28.05-4.675-56.1,2.125-83.725c19.125-76.925,55.25-144.5,111.35-201.025c10.625-10.625,18.275-8.5,23.8,5.1   c9.351,22.525,18.7,44.625,28.05,67.15c1.275,2.975,2.976,7.225,2.125,9.35c-2.125,3.825-5.949,8.075-9.774,9.35   c-5.525,1.7-9.775-2.55-11.9-7.65c-7.225-16.575-14.024-33.15-20.825-49.725C388.45,303.775,387.6,301.225,385.475,296.975z"/>
	<path fill="#B22425" d="M65.45,611.05c-9.775,0-15.725-8.075-12.325-15.3c2.125-4.675,5.525-10.2,10.2-12.75   c11.05-6.375,22.525-12.325,34-17c6.8-2.975,12.75,0.85,14.875,7.225c2.125,5.95-1.275,11.9-8.5,14.45   c-5.525,2.125-11.05,3.4-16.15,5.95c-5.1,2.975-9.35,7.65-14.45,11.475C70.125,607.65,67.15,609.775,65.45,611.05z"/>
</g>
</svg>