<?xml version="1.0" encoding="UTF-8"?>
<!-- Generator: Adobe Illustrator 16.0.0, SVG Export Plug-In . SVG Version: 6.00 Build 0)  -->
<!DOCTYPE svg PUBLIC "-//W3C//DTD SVG 1.1//EN" "http://www.w3.org/Graphics/SVG/1.1/DTD/svg11.dtd">
<svg version="1.1" id="Layer_1" xmlns="http://www.w3.org/2000/svg" xmlns:xlink="http://www.w3.org/1999/xlink" x="0px" y="0px" width="612px" height="792px" viewBox="0 0 612 792" enable-background="new 0 0 612 792" xml:space="preserve">
<g>
	<path fill="#B22425" d="M464.1,702c-3.399,0-5.524,0-7.649,0c-130.9,0-262.225,0-393.125,0C30.6,702,10.2,681.175,10.2,648.45   c0-166.601,0-333.2,0-499.8c0-8.5,0.425-17,2.975-25.075C19.125,102.75,38.675,90,61.625,90c112.2,0,224.4,0,336.6,0   c19.551,0,39.101,0,58.226,0c2.125,0,4.25,0,7.225,0c0,32.3,0,64.175,0,97.325c23.375-11.475,45.476-22.525,68.425-34   c0,22.525,0,43.775,0,65.45C555.9,222.6,574.6,233.65,588.2,253.2c9.35,13.6,14.024,28.9,13.6,45.475   c-0.425,19.55-7.225,36.975-20.399,51.425c-13.176,14.45-29.325,22.525-48.875,25.5c0,11.05,0,22.1,0,32.725s0,21.25,0,33.149   c-22.95-11.475-45.051-22.524-68.426-34C464.1,506.075,464.1,603.825,464.1,702z M109.225,109.975c0,164.9,0,328.95,0,492.575   c112.2,0,223.55,0,334.9,0c0-1.274,0.425-1.7,0.425-2.125c0-66.3,0-132.6,0-198.899c0-3.4-1.274-4.676-4.25-6.375   c-17.85-8.925-35.7-17.85-53.975-26.775c-2.55-1.275-5.95-2.125-9.351-2.125c-16.149,0-32.3,0-48.024,0c-4.25,0-8.925,0-13.175,0   c0-46.325,0-92.225,0-138.125c20.824,0,40.8,0,61.199,0c2.976,0,6.375-0.85,8.926-2.125c17.85-8.5,35.274-17.85,52.699-26.35   c3.825-2.125,5.525-4.25,5.525-8.5c-0.425-25.5,0-50.575,0-76.075c0-1.7-0.425-3.4-0.425-5.525   C332.35,109.975,221,109.975,109.225,109.975z M88.825,109.55c-9.35,0-18.7,0-27.625,0C42.075,109.975,30.175,122.3,30.175,141   c0,20.4,0,40.375,0,60.775c0,134.3,0,269.025,0,403.325c0,2.125,0,4.676,0,8.075c18.7-14.45,39.1-8.925,59.075-10.625   C88.825,438.5,88.825,274.45,88.825,109.55z M512.975,185.2c-1.699,0.85-2.55,0.85-3.399,1.275   c-36.976,18.275-73.95,36.975-110.925,55.25c-3.4,1.7-4.25,4.25-4.25,7.65c0,31.875,0,63.75,0,95.625c0,4.25,1.699,5.95,5.1,7.65   c35.7,17.85,71.825,35.7,107.525,53.55c1.699,0.85,3.399,1.7,5.524,2.55C512.975,334.375,512.975,260,512.975,185.2z    M444.125,623.375c-2.125,0-3.825-0.425-5.95-0.425c-125.8,0-251.175,0-376.975,0c-4.675,0-9.35,0.85-13.6,2.55   c-12.75,5.1-20.4,19.125-17.425,32.725c2.55,14.45,14.875,24.226,31.025,24.226c125.8,0,251.6,0,377.399,0   c1.7,0,3.4-0.425,5.101-0.425c0-6.801,0-12.75,0-19.551c-102.851,0-204.85,0-307.275,0c0-6.8,0-12.75,0-19.55   c102.85,0,204.851,0,307.275,0C444.125,636.125,444.125,629.75,444.125,623.375z M532.95,354.775   c23.8,0.85,48.45-28.05,49.3-56.525c0.85-35.7-30.175-57.8-49.3-58.225C532.95,278.275,532.95,316.525,532.95,354.775z    M374.425,346.275c0-33.15,0-65.875,0-98.175c-13.175,0-25.925,0-38.675,0c0,33.15,0,65.45,0,98.175   C348.925,346.275,361.25,346.275,374.425,346.275z"/>
	<path fill="#B22425" d="M276.675,475.05c22.95,0,45.9,0,68.425,0c20.825,0.425,36.125,9.775,45.051,28.476   c8.5,18.274,6.375,36.125-6.375,51.85c-9.351,11.9-22.525,18.275-37.825,18.275c-46.75,0-93.075,0.425-139.825,0   C180.2,573.225,159.8,554.1,157.25,530.3c-2.55-25.5,13.175-48.024,38.25-53.55c5.525-1.275,11.475-1.275,17.425-1.275   C234.6,474.625,255.425,475.05,276.675,475.05L276.675,475.05z M276.675,494.6c-22.525,0-45.475,0-68,0   c-17.85,0-31.025,12.75-31.025,29.75s13.175,29.325,31.45,29.75c45.475,0,90.525,0,136,0c17.851,0,31.025-13.175,31.025-29.75   c0-16.574-13.175-29.324-31.025-29.324C321.725,494.6,299.2,494.6,276.675,494.6z"/>
</g>
</svg>