<svg xmlns="http://www.w3.org/2000/svg" width="382" height="59" viewBox="0 0 382 59" fill="none"><g clip-path="url(#clip0_1040_1407)"><path d="M73.2024 14.9185H68.2967H53.707V51.0003H68.2967V42.6003C69.9532 43.3003 71.8008 43.6185 73.6484 43.6185C81.6122 43.6185 88.047 37.1912 88.047 29.2366C88.047 21.2821 81.4211 14.9185 73.2024 14.9185ZM70.7814 34.1366C68.233 34.1366 66.1306 32.0366 66.1306 29.4912C66.1306 26.9457 68.233 24.8457 70.7814 24.8457C73.3299 24.8457 75.4323 26.9457 75.4323 29.4912C75.4323 32.0366 73.3936 34.1366 70.7814 34.1366Z" fill="#007897"></path><path d="M104.612 43.3638H109.518H124.107V13.2002H109.518V15.682C107.861 14.982 106.014 14.6638 104.166 14.6638C96.2021 14.6638 89.7673 21.0911 89.7673 29.0456C89.7673 37.0002 96.3932 43.3638 104.612 43.3638ZM107.479 24.6547C110.027 24.6547 112.13 26.7547 112.13 29.3002C112.13 31.8456 110.027 33.9456 107.479 33.9456C104.93 33.9456 102.828 31.8456 102.828 29.3002C102.828 26.7547 104.867 24.6547 107.479 24.6547Z" fill="#007897"></path><path d="M52.1144 28.9819C52.1144 21.0274 45.6796 14.6001 37.7158 14.6001C35.8045 14.6001 34.0206 14.9819 32.3641 15.6183V7.21826H17.7744V43.3637H32.3641H37.2698C45.4885 43.3637 52.1144 36.9364 52.1144 28.9819ZM38.99 29.491C38.99 32.0364 36.8876 34.1364 34.3391 34.1364C31.7907 34.1364 29.6883 32.0364 29.6883 29.491C29.6883 26.9455 31.7907 24.8455 34.3391 24.8455C36.8876 24.8455 38.99 26.9455 38.99 29.491Z" fill="#007897"></path><path d="M13.7606 14.9185L6.11533 18.2912L-0.892822 14.9185V43.4275H13.7606V14.9185Z" fill="#007897"></path><path d="M6.11524 14.0909C9.45794 14.0909 12.1677 11.3843 12.1677 8.04545C12.1677 4.70664 9.45794 2 6.11524 2C2.77254 2 0.0627441 4.70664 0.0627441 8.04545C0.0627441 11.3843 2.77254 14.0909 6.11524 14.0909Z" fill="#AF006D"></path></g><path d="M148.223 4.64844V21H146.055V4.64844H148.223ZM153.928 11.4429V21H151.85V8.84863H153.815L153.928 11.4429ZM153.434 14.4639L152.569 14.4302C152.576 13.5991 152.7 12.8317 152.939 12.1279C153.179 11.4167 153.516 10.799 153.95 10.2749C154.384 9.75081 154.901 9.34652 155.5 9.06201C156.106 8.77002 156.777 8.62402 157.51 8.62402C158.109 8.62402 158.648 8.70638 159.127 8.87109C159.607 9.02832 160.015 9.28288 160.352 9.63477C160.696 9.98665 160.958 10.4434 161.138 11.0049C161.317 11.5589 161.407 12.2365 161.407 13.0376V21H159.318V13.0151C159.318 12.3787 159.225 11.8696 159.038 11.4878C158.85 11.0985 158.577 10.8177 158.218 10.6455C157.858 10.4658 157.417 10.376 156.893 10.376C156.376 10.376 155.904 10.4845 155.478 10.7017C155.058 10.9188 154.695 11.2183 154.388 11.6001C154.089 11.9819 153.853 12.4199 153.681 12.9141C153.516 13.4007 153.434 13.9173 153.434 14.4639ZM172.222 18.6416V3.75H174.311V21H172.402L172.222 18.6416ZM164.046 15.0591V14.8232C164.046 13.8949 164.159 13.0526 164.383 12.2964C164.615 11.5327 164.941 10.8776 165.36 10.3311C165.787 9.78451 166.292 9.36523 166.876 9.07324C167.468 8.77376 168.127 8.62402 168.853 8.62402C169.617 8.62402 170.283 8.75879 170.852 9.02832C171.429 9.29036 171.915 9.67594 172.312 10.1851C172.716 10.6867 173.035 11.2931 173.267 12.0044C173.499 12.7157 173.66 13.5205 173.75 14.4189V15.4521C173.667 16.3431 173.506 17.1442 173.267 17.8555C173.035 18.5667 172.716 19.1732 172.312 19.6748C171.915 20.1764 171.429 20.562 170.852 20.8315C170.276 21.0936 169.602 21.2246 168.831 21.2246C168.119 21.2246 167.468 21.0711 166.876 20.7642C166.292 20.4572 165.787 20.0267 165.36 19.4727C164.941 18.9186 164.615 18.2673 164.383 17.5186C164.159 16.7624 164.046 15.9425 164.046 15.0591ZM166.135 14.8232V15.0591C166.135 15.6655 166.195 16.2345 166.315 16.7661C166.442 17.2977 166.637 17.7656 166.899 18.1699C167.161 18.5742 167.494 18.8924 167.898 19.1245C168.303 19.3491 168.786 19.4614 169.347 19.4614C170.036 19.4614 170.601 19.3154 171.043 19.0234C171.492 18.7314 171.852 18.3459 172.121 17.8667C172.391 17.3875 172.6 16.8672 172.75 16.3057V13.5991C172.66 13.1873 172.529 12.7905 172.357 12.4087C172.192 12.0194 171.975 11.675 171.706 11.3755C171.444 11.0685 171.118 10.8252 170.729 10.6455C170.347 10.4658 169.894 10.376 169.37 10.376C168.801 10.376 168.31 10.4958 167.898 10.7354C167.494 10.9674 167.161 11.2894 166.899 11.7012C166.637 12.1055 166.442 12.5771 166.315 13.1162C166.195 13.6478 166.135 14.2168 166.135 14.8232ZM182.588 21.2246C181.742 21.2246 180.974 21.0824 180.286 20.7979C179.604 20.5059 179.017 20.0978 178.522 19.5737C178.036 19.0496 177.661 18.4282 177.399 17.7095C177.137 16.9907 177.006 16.2046 177.006 15.3511V14.8794C177.006 13.8911 177.152 13.0114 177.444 12.2402C177.736 11.4616 178.133 10.8027 178.635 10.2637C179.136 9.72461 179.705 9.31657 180.342 9.03955C180.978 8.76253 181.637 8.62402 182.318 8.62402C183.187 8.62402 183.936 8.77376 184.564 9.07324C185.201 9.37272 185.721 9.79199 186.125 10.3311C186.53 10.8626 186.829 11.4915 187.024 12.2178C187.219 12.9365 187.316 13.7227 187.316 14.5762V15.5083H178.242V13.8125H185.238V13.6553C185.208 13.1162 185.096 12.5921 184.901 12.083C184.714 11.5739 184.415 11.1546 184.003 10.8252C183.591 10.4958 183.03 10.3311 182.318 10.3311C181.847 10.3311 181.412 10.4321 181.016 10.6343C180.619 10.8289 180.278 11.1209 179.994 11.5103C179.709 11.8996 179.488 12.375 179.331 12.9365C179.174 13.498 179.095 14.1457 179.095 14.8794V15.3511C179.095 15.9276 179.174 16.4704 179.331 16.9795C179.496 17.4811 179.732 17.9229 180.039 18.3047C180.353 18.6865 180.731 18.986 181.173 19.2031C181.622 19.4202 182.131 19.5288 182.7 19.5288C183.434 19.5288 184.055 19.3791 184.564 19.0796C185.074 18.7801 185.519 18.3796 185.901 17.8779L187.159 18.8774C186.897 19.2743 186.563 19.6523 186.159 20.0117C185.755 20.3711 185.257 20.6631 184.666 20.8877C184.082 21.1123 183.389 21.2246 182.588 21.2246ZM191.819 11.1846V25.6719H189.73V8.84863H191.64L191.819 11.1846ZM200.006 14.8232V15.0591C200.006 15.9425 199.902 16.7624 199.692 17.5186C199.482 18.2673 199.175 18.9186 198.771 19.4727C198.374 20.0267 197.884 20.4572 197.3 20.7642C196.716 21.0711 196.046 21.2246 195.29 21.2246C194.518 21.2246 193.837 21.0973 193.246 20.8428C192.654 20.5882 192.153 20.2176 191.741 19.731C191.329 19.2443 191 18.6603 190.752 17.979C190.513 17.2977 190.348 16.5303 190.258 15.6768V14.4189C190.348 13.5205 190.517 12.7157 190.764 12.0044C191.011 11.2931 191.336 10.6867 191.741 10.1851C192.153 9.67594 192.65 9.29036 193.234 9.02832C193.818 8.75879 194.492 8.62402 195.256 8.62402C196.02 8.62402 196.697 8.77376 197.289 9.07324C197.88 9.36523 198.378 9.78451 198.782 10.3311C199.187 10.8776 199.49 11.5327 199.692 12.2964C199.902 13.0526 200.006 13.8949 200.006 14.8232ZM197.917 15.0591V14.8232C197.917 14.2168 197.854 13.6478 197.727 13.1162C197.599 12.5771 197.401 12.1055 197.131 11.7012C196.869 11.2894 196.532 10.9674 196.121 10.7354C195.709 10.4958 195.218 10.376 194.649 10.376C194.125 10.376 193.669 10.4658 193.279 10.6455C192.897 10.8252 192.572 11.0685 192.302 11.3755C192.033 11.675 191.812 12.0194 191.64 12.4087C191.475 12.7905 191.351 13.1873 191.269 13.5991V16.5078C191.419 17.0319 191.628 17.526 191.898 17.9902C192.167 18.4469 192.527 18.8175 192.976 19.1021C193.425 19.3791 193.991 19.5176 194.672 19.5176C195.233 19.5176 195.716 19.4015 196.121 19.1694C196.532 18.9299 196.869 18.6042 197.131 18.1924C197.401 17.7806 197.599 17.3089 197.727 16.7773C197.854 16.2383 197.917 15.6655 197.917 15.0591ZM207.699 21.2246C206.853 21.2246 206.086 21.0824 205.397 20.7979C204.716 20.5059 204.128 20.0978 203.634 19.5737C203.147 19.0496 202.773 18.4282 202.511 17.7095C202.249 16.9907 202.118 16.2046 202.118 15.3511V14.8794C202.118 13.8911 202.264 13.0114 202.556 12.2402C202.848 11.4616 203.244 10.8027 203.746 10.2637C204.248 9.72461 204.817 9.31657 205.453 9.03955C206.09 8.76253 206.748 8.62402 207.43 8.62402C208.298 8.62402 209.047 8.77376 209.676 9.07324C210.312 9.37272 210.833 9.79199 211.237 10.3311C211.641 10.8626 211.941 11.4915 212.135 12.2178C212.33 12.9365 212.427 13.7227 212.427 14.5762V15.5083H203.353V13.8125H210.35V13.6553C210.32 13.1162 210.207 12.5921 210.013 12.083C209.826 11.5739 209.526 11.1546 209.114 10.8252C208.702 10.4958 208.141 10.3311 207.43 10.3311C206.958 10.3311 206.524 10.4321 206.127 10.6343C205.73 10.8289 205.389 11.1209 205.105 11.5103C204.82 11.8996 204.6 12.375 204.442 12.9365C204.285 13.498 204.207 14.1457 204.207 14.8794V15.3511C204.207 15.9276 204.285 16.4704 204.442 16.9795C204.607 17.4811 204.843 17.9229 205.15 18.3047C205.464 18.6865 205.842 18.986 206.284 19.2031C206.733 19.4202 207.243 19.5288 207.812 19.5288C208.545 19.5288 209.167 19.3791 209.676 19.0796C210.185 18.7801 210.63 18.3796 211.012 17.8779L212.27 18.8774C212.008 19.2743 211.675 19.6523 211.271 20.0117C210.866 20.3711 210.368 20.6631 209.777 20.8877C209.193 21.1123 208.5 21.2246 207.699 21.2246ZM216.931 11.4429V21H214.853V8.84863H216.818L216.931 11.4429ZM216.437 14.4639L215.572 14.4302C215.579 13.5991 215.703 12.8317 215.942 12.1279C216.182 11.4167 216.519 10.799 216.953 10.2749C217.387 9.75081 217.904 9.34652 218.503 9.06201C219.109 8.77002 219.779 8.62402 220.513 8.62402C221.112 8.62402 221.651 8.70638 222.13 8.87109C222.61 9.02832 223.018 9.28288 223.354 9.63477C223.699 9.98665 223.961 10.4434 224.141 11.0049C224.32 11.5589 224.41 12.2365 224.41 13.0376V21H222.321V13.0151C222.321 12.3787 222.228 11.8696 222.041 11.4878C221.853 11.0985 221.58 10.8177 221.221 10.6455C220.861 10.4658 220.42 10.376 219.896 10.376C219.379 10.376 218.907 10.4845 218.48 10.7017C218.061 10.9188 217.698 11.2183 217.391 11.6001C217.092 11.9819 216.856 12.4199 216.684 12.9141C216.519 13.4007 216.437 13.9173 216.437 14.4639ZM235.225 18.6416V3.75H237.314V21H235.405L235.225 18.6416ZM227.049 15.0591V14.8232C227.049 13.8949 227.162 13.0526 227.386 12.2964C227.618 11.5327 227.944 10.8776 228.363 10.3311C228.79 9.78451 229.295 9.36523 229.879 9.07324C230.471 8.77376 231.13 8.62402 231.856 8.62402C232.62 8.62402 233.286 8.75879 233.855 9.02832C234.431 9.29036 234.918 9.67594 235.315 10.1851C235.719 10.6867 236.037 11.2931 236.27 12.0044C236.502 12.7157 236.663 13.5205 236.752 14.4189V15.4521C236.67 16.3431 236.509 17.1442 236.27 17.8555C236.037 18.5667 235.719 19.1732 235.315 19.6748C234.918 20.1764 234.431 20.562 233.855 20.8315C233.278 21.0936 232.605 21.2246 231.833 21.2246C231.122 21.2246 230.471 21.0711 229.879 20.7642C229.295 20.4572 228.79 20.0267 228.363 19.4727C227.944 18.9186 227.618 18.2673 227.386 17.5186C227.162 16.7624 227.049 15.9425 227.049 15.0591ZM229.138 14.8232V15.0591C229.138 15.6655 229.198 16.2345 229.318 16.7661C229.445 17.2977 229.64 17.7656 229.902 18.1699C230.164 18.5742 230.497 18.8924 230.901 19.1245C231.306 19.3491 231.789 19.4614 232.35 19.4614C233.039 19.4614 233.604 19.3154 234.046 19.0234C234.495 18.7314 234.854 18.3459 235.124 17.8667C235.394 17.3875 235.603 16.8672 235.753 16.3057V13.5991C235.663 13.1873 235.532 12.7905 235.36 12.4087C235.195 12.0194 234.978 11.675 234.708 11.3755C234.446 11.0685 234.121 10.8252 233.731 10.6455C233.35 10.4658 232.897 10.376 232.373 10.376C231.804 10.376 231.313 10.4958 230.901 10.7354C230.497 10.9674 230.164 11.2894 229.902 11.7012C229.64 12.1055 229.445 12.5771 229.318 13.1162C229.198 13.6478 229.138 14.2168 229.138 14.8232ZM245.591 21.2246C244.745 21.2246 243.977 21.0824 243.289 20.7979C242.607 20.5059 242.02 20.0978 241.525 19.5737C241.039 19.0496 240.664 18.4282 240.402 17.7095C240.14 16.9907 240.009 16.2046 240.009 15.3511V14.8794C240.009 13.8911 240.155 13.0114 240.447 12.2402C240.739 11.4616 241.136 10.8027 241.638 10.2637C242.139 9.72461 242.708 9.31657 243.345 9.03955C243.981 8.76253 244.64 8.62402 245.321 8.62402C246.19 8.62402 246.938 8.77376 247.567 9.07324C248.204 9.37272 248.724 9.79199 249.128 10.3311C249.533 10.8626 249.832 11.4915 250.027 12.2178C250.222 12.9365 250.319 13.7227 250.319 14.5762V15.5083H241.245V13.8125H248.241V13.6553C248.211 13.1162 248.099 12.5921 247.904 12.083C247.717 11.5739 247.418 11.1546 247.006 10.8252C246.594 10.4958 246.033 10.3311 245.321 10.3311C244.85 10.3311 244.415 10.4321 244.019 10.6343C243.622 10.8289 243.281 11.1209 242.997 11.5103C242.712 11.8996 242.491 12.375 242.334 12.9365C242.177 13.498 242.098 14.1457 242.098 14.8794V15.3511C242.098 15.9276 242.177 16.4704 242.334 16.9795C242.499 17.4811 242.735 17.9229 243.042 18.3047C243.356 18.6865 243.734 18.986 244.176 19.2031C244.625 19.4202 245.134 19.5288 245.703 19.5288C246.437 19.5288 247.058 19.3791 247.567 19.0796C248.076 18.7801 248.522 18.3796 248.904 17.8779L250.162 18.8774C249.9 19.2743 249.566 19.6523 249.162 20.0117C248.758 20.3711 248.26 20.6631 247.668 20.8877C247.084 21.1123 246.392 21.2246 245.591 21.2246ZM254.822 11.4429V21H252.745V8.84863H254.71L254.822 11.4429ZM254.328 14.4639L253.463 14.4302C253.471 13.5991 253.594 12.8317 253.834 12.1279C254.074 11.4167 254.41 10.799 254.845 10.2749C255.279 9.75081 255.796 9.34652 256.395 9.06201C257.001 8.77002 257.671 8.62402 258.405 8.62402C259.004 8.62402 259.543 8.70638 260.022 8.87109C260.501 9.02832 260.909 9.28288 261.246 9.63477C261.59 9.98665 261.853 10.4434 262.032 11.0049C262.212 11.5589 262.302 12.2365 262.302 13.0376V21H260.213V13.0151C260.213 12.3787 260.119 11.8696 259.932 11.4878C259.745 11.0985 259.472 10.8177 259.112 10.6455C258.753 10.4658 258.311 10.376 257.787 10.376C257.271 10.376 256.799 10.4845 256.372 10.7017C255.953 10.9188 255.59 11.2183 255.283 11.6001C254.983 11.9819 254.747 12.4199 254.575 12.9141C254.41 13.4007 254.328 13.9173 254.328 14.4639ZM270.545 8.84863V10.4434H263.975V8.84863H270.545ZM266.199 5.89502H268.276V17.9902C268.276 18.402 268.34 18.7127 268.467 18.9224C268.595 19.132 268.759 19.2705 268.961 19.3379C269.164 19.4053 269.381 19.439 269.613 19.439C269.785 19.439 269.965 19.424 270.152 19.394C270.347 19.3566 270.493 19.3267 270.59 19.3042L270.601 21C270.436 21.0524 270.219 21.1011 269.95 21.146C269.688 21.1984 269.369 21.2246 268.995 21.2246C268.486 21.2246 268.018 21.1235 267.591 20.9214C267.165 20.7192 266.824 20.3823 266.569 19.9106C266.322 19.4315 266.199 18.7876 266.199 17.979V5.89502ZM284.83 13.3521H280.686L280.664 11.6113H284.426C285.047 11.6113 285.59 11.5065 286.054 11.2969C286.518 11.0872 286.878 10.7878 287.132 10.3984C287.394 10.0016 287.525 9.52995 287.525 8.9834C287.525 8.38444 287.409 7.89779 287.177 7.52344C286.953 7.1416 286.604 6.86458 286.133 6.69238C285.669 6.5127 285.077 6.42285 284.358 6.42285H281.169V21H279.001V4.64844H284.358C285.197 4.64844 285.946 4.73454 286.604 4.90674C287.263 5.07145 287.821 5.3335 288.278 5.69287C288.742 6.04476 289.094 6.49398 289.333 7.04053C289.573 7.58708 289.693 8.24219 289.693 9.00586C289.693 9.67969 289.521 10.2899 289.176 10.8364C288.832 11.3755 288.353 11.8172 287.739 12.1616C287.132 12.506 286.421 12.7269 285.605 12.8242L284.83 13.3521ZM284.729 21H279.833L281.057 19.2368H284.729C285.418 19.2368 286.002 19.117 286.481 18.8774C286.968 18.6379 287.338 18.3009 287.593 17.8667C287.847 17.425 287.975 16.9046 287.975 16.3057C287.975 15.6992 287.866 15.1751 287.649 14.7334C287.432 14.2917 287.091 13.951 286.627 13.7114C286.163 13.4718 285.564 13.3521 284.83 13.3521H281.742L281.764 11.6113H285.987L286.447 12.2402C287.233 12.3076 287.9 12.5322 288.446 12.9141C288.993 13.2884 289.408 13.7676 289.693 14.3516C289.985 14.9355 290.131 15.5794 290.131 16.2832C290.131 17.3014 289.906 18.1624 289.457 18.8662C289.015 19.5625 288.39 20.0941 287.582 20.4609C286.773 20.8203 285.822 21 284.729 21ZM292.467 15.0591V14.8008C292.467 13.9248 292.594 13.1125 292.849 12.3638C293.103 11.6076 293.47 10.9525 293.949 10.3984C294.428 9.83691 295.009 9.40267 295.69 9.0957C296.371 8.78125 297.135 8.62402 297.981 8.62402C298.834 8.62402 299.602 8.78125 300.283 9.0957C300.972 9.40267 301.556 9.83691 302.035 10.3984C302.522 10.9525 302.892 11.6076 303.147 12.3638C303.402 13.1125 303.529 13.9248 303.529 14.8008V15.0591C303.529 15.9351 303.402 16.7474 303.147 17.4961C302.892 18.2448 302.522 18.8999 302.035 19.4614C301.556 20.0155 300.976 20.4497 300.294 20.7642C299.621 21.0711 298.857 21.2246 298.003 21.2246C297.15 21.2246 296.382 21.0711 295.701 20.7642C295.02 20.4497 294.436 20.0155 293.949 19.4614C293.47 18.8999 293.103 18.2448 292.849 17.4961C292.594 16.7474 292.467 15.9351 292.467 15.0591ZM294.544 14.8008V15.0591C294.544 15.6655 294.616 16.2383 294.758 16.7773C294.9 17.3089 295.113 17.7806 295.398 18.1924C295.69 18.6042 296.053 18.9299 296.487 19.1694C296.922 19.4015 297.427 19.5176 298.003 19.5176C298.572 19.5176 299.07 19.4015 299.497 19.1694C299.931 18.9299 300.291 18.6042 300.575 18.1924C300.86 17.7806 301.073 17.3089 301.215 16.7773C301.365 16.2383 301.44 15.6655 301.44 15.0591V14.8008C301.44 14.2018 301.365 13.6366 301.215 13.105C301.073 12.5659 300.856 12.0905 300.564 11.6787C300.279 11.2594 299.92 10.93 299.486 10.6904C299.059 10.4508 298.557 10.3311 297.981 10.3311C297.412 10.3311 296.91 10.4508 296.476 10.6904C296.049 10.93 295.69 11.2594 295.398 11.6787C295.113 12.0905 294.9 12.5659 294.758 13.105C294.616 13.6366 294.544 14.2018 294.544 14.8008ZM305.584 15.0591V14.8008C305.584 13.9248 305.711 13.1125 305.966 12.3638C306.22 11.6076 306.587 10.9525 307.066 10.3984C307.546 9.83691 308.126 9.40267 308.807 9.0957C309.488 8.78125 310.252 8.62402 311.098 8.62402C311.952 8.62402 312.719 8.78125 313.4 9.0957C314.089 9.40267 314.673 9.83691 315.152 10.3984C315.639 10.9525 316.01 11.6076 316.264 12.3638C316.519 13.1125 316.646 13.9248 316.646 14.8008V15.0591C316.646 15.9351 316.519 16.7474 316.264 17.4961C316.01 18.2448 315.639 18.8999 315.152 19.4614C314.673 20.0155 314.093 20.4497 313.412 20.7642C312.738 21.0711 311.974 21.2246 311.121 21.2246C310.267 21.2246 309.5 21.0711 308.818 20.7642C308.137 20.4497 307.553 20.0155 307.066 19.4614C306.587 18.8999 306.22 18.2448 305.966 17.4961C305.711 16.7474 305.584 15.9351 305.584 15.0591ZM307.662 14.8008V15.0591C307.662 15.6655 307.733 16.2383 307.875 16.7773C308.017 17.3089 308.231 17.7806 308.515 18.1924C308.807 18.6042 309.17 18.9299 309.604 19.1694C310.039 19.4015 310.544 19.5176 311.121 19.5176C311.69 19.5176 312.188 19.4015 312.614 19.1694C313.049 18.9299 313.408 18.6042 313.692 18.1924C313.977 17.7806 314.19 17.3089 314.333 16.7773C314.482 16.2383 314.557 15.6655 314.557 15.0591V14.8008C314.557 14.2018 314.482 13.6366 314.333 13.105C314.19 12.5659 313.973 12.0905 313.681 11.6787C313.397 11.2594 313.037 10.93 312.603 10.6904C312.176 10.4508 311.675 10.3311 311.098 10.3311C310.529 10.3311 310.028 10.4508 309.593 10.6904C309.167 10.93 308.807 11.2594 308.515 11.6787C308.231 12.0905 308.017 12.5659 307.875 13.105C307.733 13.6366 307.662 14.2018 307.662 14.8008ZM321.34 3.75V21H319.251V3.75H321.34ZM328.764 8.84863L323.463 14.52L320.498 17.5972L320.33 15.3848L322.452 12.8467L326.226 8.84863H328.764ZM326.866 21L322.531 15.2051L323.609 13.3521L329.314 21H326.866ZM151.929 41.5874H147.56V39.8242H151.929C152.775 39.8242 153.46 39.6895 153.984 39.4199C154.508 39.1504 154.89 38.776 155.129 38.2969C155.376 37.8177 155.5 37.2712 155.5 36.6572C155.5 36.0957 155.376 35.5679 155.129 35.0737C154.89 34.5796 154.508 34.1828 153.984 33.8833C153.46 33.5763 152.775 33.4229 151.929 33.4229H148.065V48H145.898V31.6484H151.929C153.164 31.6484 154.208 31.8618 155.062 32.2886C155.916 32.7153 156.563 33.3068 157.005 34.063C157.447 34.8117 157.667 35.6689 157.667 36.6348C157.667 37.6829 157.447 38.5776 157.005 39.3188C156.563 40.0601 155.916 40.6253 155.062 41.0146C154.208 41.3965 153.164 41.5874 151.929 41.5874ZM167.528 45.1924V35.8486H169.617V48H167.629L167.528 45.1924ZM167.921 42.6318L168.786 42.6094C168.786 43.418 168.7 44.1667 168.527 44.8555C168.363 45.5368 168.093 46.1283 167.719 46.6299C167.344 47.1315 166.854 47.5246 166.248 47.8091C165.641 48.0861 164.904 48.2246 164.035 48.2246C163.444 48.2246 162.901 48.1385 162.407 47.9663C161.92 47.7941 161.501 47.5283 161.149 47.1689C160.797 46.8096 160.524 46.3416 160.329 45.7651C160.142 45.1886 160.048 44.4961 160.048 43.6875V35.8486H162.126V43.71C162.126 44.2565 162.186 44.7095 162.306 45.0688C162.433 45.4207 162.601 45.7015 162.811 45.9111C163.028 46.1133 163.268 46.2555 163.53 46.3379C163.799 46.4202 164.076 46.4614 164.361 46.4614C165.244 46.4614 165.944 46.293 166.461 45.9561C166.978 45.6117 167.348 45.1512 167.573 44.5747C167.805 43.9907 167.921 43.3431 167.921 42.6318ZM172.772 30.75H174.861V45.6416L174.682 48H172.772V30.75ZM183.071 41.8232V42.0591C183.071 42.9425 182.966 43.7624 182.756 44.5186C182.547 45.2673 182.24 45.9186 181.835 46.4727C181.431 47.0267 180.937 47.4572 180.353 47.7642C179.769 48.0711 179.099 48.2246 178.343 48.2246C177.572 48.2246 176.894 48.0936 176.31 47.8315C175.734 47.562 175.247 47.1764 174.85 46.6748C174.453 46.1732 174.135 45.5667 173.896 44.8555C173.663 44.1442 173.502 43.3431 173.413 42.4521V41.4189C173.502 40.5205 173.663 39.7157 173.896 39.0044C174.135 38.2931 174.453 37.6867 174.85 37.1851C175.247 36.6759 175.734 36.2904 176.31 36.0283C176.887 35.7588 177.557 35.624 178.32 35.624C179.084 35.624 179.762 35.7738 180.353 36.0732C180.944 36.3652 181.439 36.7845 181.835 37.3311C182.24 37.8776 182.547 38.5327 182.756 39.2964C182.966 40.0526 183.071 40.8949 183.071 41.8232ZM180.982 42.0591V41.8232C180.982 41.2168 180.926 40.6478 180.813 40.1162C180.701 39.5771 180.521 39.1055 180.274 38.7012C180.027 38.2894 179.702 37.9674 179.297 37.7354C178.893 37.4958 178.395 37.376 177.804 37.376C177.28 37.376 176.823 37.4658 176.434 37.6455C176.052 37.8252 175.726 38.0685 175.457 38.3755C175.187 38.675 174.966 39.0194 174.794 39.4087C174.629 39.7905 174.506 40.1873 174.423 40.5991V43.3057C174.543 43.8298 174.738 44.3351 175.007 44.8218C175.284 45.3009 175.651 45.694 176.108 46.001C176.572 46.3079 177.145 46.4614 177.826 46.4614C178.388 46.4614 178.867 46.3491 179.264 46.1245C179.668 45.8924 179.994 45.5742 180.241 45.1699C180.495 44.7656 180.682 44.2977 180.802 43.7661C180.922 43.2345 180.982 42.6655 180.982 42.0591ZM187.956 30.75V48H185.867V30.75H187.956ZM193.549 35.8486V48H191.46V35.8486H193.549ZM191.303 32.6255C191.303 32.2886 191.404 32.0041 191.606 31.772C191.816 31.5399 192.123 31.4238 192.527 31.4238C192.924 31.4238 193.227 31.5399 193.437 31.772C193.654 32.0041 193.762 32.2886 193.762 32.6255C193.762 32.9474 193.654 33.2244 193.437 33.4565C193.227 33.6812 192.924 33.7935 192.527 33.7935C192.123 33.7935 191.816 33.6812 191.606 33.4565C191.404 33.2244 191.303 32.9474 191.303 32.6255ZM203.959 44.7769C203.959 44.4774 203.892 44.2004 203.757 43.9458C203.63 43.6838 203.364 43.4479 202.96 43.2383C202.563 43.0212 201.964 42.834 201.163 42.6768C200.489 42.5345 199.879 42.366 199.333 42.1714C198.793 41.9767 198.333 41.7409 197.951 41.4639C197.577 41.1868 197.289 40.8612 197.086 40.4868C196.884 40.1125 196.783 39.6745 196.783 39.1729C196.783 38.6937 196.888 38.2407 197.098 37.814C197.315 37.3872 197.618 37.0091 198.007 36.6797C198.404 36.3503 198.88 36.092 199.434 35.9048C199.988 35.7176 200.605 35.624 201.287 35.624C202.26 35.624 203.091 35.7962 203.78 36.1406C204.469 36.485 204.996 36.9455 205.363 37.522C205.73 38.091 205.914 38.7236 205.914 39.4199H203.836C203.836 39.083 203.735 38.7573 203.533 38.4429C203.338 38.1209 203.05 37.8551 202.668 37.6455C202.294 37.4359 201.833 37.3311 201.287 37.3311C200.71 37.3311 200.242 37.4209 199.883 37.6006C199.531 37.7728 199.273 37.9937 199.108 38.2632C198.951 38.5327 198.872 38.8172 198.872 39.1167C198.872 39.3413 198.91 39.5435 198.984 39.7231C199.067 39.8953 199.209 40.0563 199.411 40.2061C199.613 40.3483 199.898 40.4831 200.265 40.6104C200.632 40.7376 201.099 40.8649 201.668 40.9922C202.664 41.2168 203.484 41.4863 204.128 41.8008C204.772 42.1152 205.251 42.5008 205.565 42.9575C205.88 43.4142 206.037 43.9683 206.037 44.6196C206.037 45.1512 205.925 45.6379 205.7 46.0796C205.483 46.5213 205.165 46.9032 204.746 47.2251C204.334 47.5396 203.84 47.7866 203.263 47.9663C202.694 48.1385 202.054 48.2246 201.343 48.2246C200.272 48.2246 199.366 48.0337 198.625 47.6519C197.884 47.27 197.322 46.7759 196.94 46.1694C196.559 45.563 196.368 44.9229 196.368 44.249H198.457C198.486 44.818 198.651 45.271 198.951 45.6079C199.25 45.9373 199.617 46.1732 200.051 46.3154C200.486 46.4502 200.916 46.5176 201.343 46.5176C201.912 46.5176 202.387 46.4427 202.769 46.293C203.158 46.1432 203.454 45.9373 203.656 45.6753C203.858 45.4132 203.959 45.1138 203.959 44.7769ZM210.844 30.75V48H208.766V30.75H210.844ZM210.35 41.4639L209.485 41.4302C209.492 40.5991 209.616 39.8317 209.855 39.1279C210.095 38.4167 210.432 37.799 210.866 37.2749C211.3 36.7508 211.817 36.3465 212.416 36.062C213.022 35.77 213.693 35.624 214.426 35.624C215.025 35.624 215.564 35.7064 216.043 35.8711C216.523 36.0283 216.931 36.2829 217.268 36.6348C217.612 36.9867 217.874 37.4434 218.054 38.0049C218.233 38.5589 218.323 39.2365 218.323 40.0376V48H216.234V40.0151C216.234 39.3787 216.141 38.8696 215.954 38.4878C215.766 38.0985 215.493 37.8177 215.134 37.6455C214.774 37.4658 214.333 37.376 213.809 37.376C213.292 37.376 212.82 37.4845 212.394 37.7017C211.974 37.9188 211.611 38.2183 211.304 38.6001C211.005 38.9819 210.769 39.4199 210.597 39.9141C210.432 40.4007 210.35 40.9173 210.35 41.4639ZM226.477 48.2246C225.631 48.2246 224.863 48.0824 224.174 47.7979C223.493 47.5059 222.905 47.0978 222.411 46.5737C221.924 46.0496 221.55 45.4282 221.288 44.7095C221.026 43.9907 220.895 43.2046 220.895 42.3511V41.8794C220.895 40.8911 221.041 40.0114 221.333 39.2402C221.625 38.4616 222.022 37.8027 222.523 37.2637C223.025 36.7246 223.594 36.3166 224.23 36.0396C224.867 35.7625 225.526 35.624 226.207 35.624C227.076 35.624 227.824 35.7738 228.453 36.0732C229.09 36.3727 229.61 36.792 230.014 37.3311C230.418 37.8626 230.718 38.4915 230.913 39.2178C231.107 39.9365 231.205 40.7227 231.205 41.5762V42.5083H222.13V40.8125H229.127V40.6553C229.097 40.1162 228.985 39.5921 228.79 39.083C228.603 38.5739 228.303 38.1546 227.892 37.8252C227.48 37.4958 226.918 37.3311 226.207 37.3311C225.735 37.3311 225.301 37.4321 224.904 37.6343C224.507 37.8289 224.167 38.1209 223.882 38.5103C223.598 38.8996 223.377 39.375 223.22 39.9365C223.062 40.498 222.984 41.1457 222.984 41.8794V42.3511C222.984 42.9276 223.062 43.4704 223.22 43.9795C223.384 44.4811 223.62 44.9229 223.927 45.3047C224.242 45.6865 224.62 45.986 225.062 46.2031C225.511 46.4202 226.02 46.5288 226.589 46.5288C227.323 46.5288 227.944 46.3791 228.453 46.0796C228.962 45.7801 229.408 45.3796 229.79 44.8779L231.047 45.8774C230.785 46.2743 230.452 46.6523 230.048 47.0117C229.644 47.3711 229.146 47.6631 228.554 47.8877C227.97 48.1123 227.278 48.2246 226.477 48.2246ZM235.708 37.7578V48H233.63V35.8486H235.652L235.708 37.7578ZM239.504 35.7812L239.493 37.7129C239.32 37.6755 239.156 37.653 238.999 37.6455C238.849 37.6305 238.677 37.623 238.482 37.623C238.003 37.623 237.58 37.6979 237.213 37.8477C236.846 37.9974 236.535 38.207 236.281 38.4766C236.026 38.7461 235.824 39.068 235.674 39.4424C235.532 39.8092 235.438 40.2135 235.394 40.6553L234.81 40.9922C234.81 40.2585 234.881 39.5697 235.023 38.9258C235.173 38.2819 235.401 37.7129 235.708 37.2188C236.015 36.7171 236.404 36.3278 236.876 36.0508C237.355 35.7663 237.924 35.624 238.583 35.624C238.733 35.624 238.905 35.6427 239.1 35.6802C239.294 35.7101 239.429 35.7438 239.504 35.7812ZM248.5 44.7769C248.5 44.4774 248.432 44.2004 248.297 43.9458C248.17 43.6838 247.904 43.4479 247.5 43.2383C247.103 43.0212 246.504 42.834 245.703 42.6768C245.029 42.5345 244.419 42.366 243.873 42.1714C243.333 41.9767 242.873 41.7409 242.491 41.4639C242.117 41.1868 241.829 40.8612 241.626 40.4868C241.424 40.1125 241.323 39.6745 241.323 39.1729C241.323 38.6937 241.428 38.2407 241.638 37.814C241.855 37.3872 242.158 37.0091 242.547 36.6797C242.944 36.3503 243.42 36.092 243.974 35.9048C244.528 35.7176 245.145 35.624 245.827 35.624C246.8 35.624 247.631 35.7962 248.32 36.1406C249.009 36.485 249.536 36.9455 249.903 37.522C250.27 38.091 250.454 38.7236 250.454 39.4199H248.376C248.376 39.083 248.275 38.7573 248.073 38.4429C247.878 38.1209 247.59 37.8551 247.208 37.6455C246.834 37.4359 246.373 37.3311 245.827 37.3311C245.25 37.3311 244.782 37.4209 244.423 37.6006C244.071 37.7728 243.813 37.9937 243.648 38.2632C243.491 38.5327 243.412 38.8172 243.412 39.1167C243.412 39.3413 243.45 39.5435 243.524 39.7231C243.607 39.8953 243.749 40.0563 243.951 40.2061C244.153 40.3483 244.438 40.4831 244.805 40.6104C245.172 40.7376 245.639 40.8649 246.208 40.9922C247.204 41.2168 248.024 41.4863 248.668 41.8008C249.312 42.1152 249.791 42.5008 250.105 42.9575C250.42 43.4142 250.577 43.9683 250.577 44.6196C250.577 45.1512 250.465 45.6379 250.24 46.0796C250.023 46.5213 249.705 46.9032 249.286 47.2251C248.874 47.5396 248.38 47.7866 247.803 47.9663C247.234 48.1385 246.594 48.2246 245.883 48.2246C244.812 48.2246 243.906 48.0337 243.165 47.6519C242.424 47.27 241.862 46.7759 241.48 46.1694C241.099 45.563 240.908 44.9229 240.908 44.249H242.997C243.027 44.818 243.191 45.271 243.491 45.6079C243.79 45.9373 244.157 46.1732 244.591 46.3154C245.026 46.4502 245.456 46.5176 245.883 46.5176C246.452 46.5176 246.927 46.4427 247.309 46.293C247.698 46.1432 247.994 45.9373 248.196 45.6753C248.398 45.4132 248.5 45.1138 248.5 44.7769ZM265.379 33.0972L259.966 48H257.753L263.986 31.6484H265.413L265.379 33.0972ZM269.916 48L264.492 33.0972L264.458 31.6484H265.884L272.14 48H269.916ZM269.635 41.9468V43.7212H260.449V41.9468H269.635ZM281.09 44.7769C281.09 44.4774 281.023 44.2004 280.888 43.9458C280.761 43.6838 280.495 43.4479 280.091 43.2383C279.694 43.0212 279.095 42.834 278.294 42.6768C277.62 42.5345 277.01 42.366 276.463 42.1714C275.924 41.9767 275.464 41.7409 275.082 41.4639C274.708 41.1868 274.419 40.8612 274.217 40.4868C274.015 40.1125 273.914 39.6745 273.914 39.1729C273.914 38.6937 274.019 38.2407 274.229 37.814C274.446 37.3872 274.749 37.0091 275.138 36.6797C275.535 36.3503 276.01 36.092 276.564 35.9048C277.118 35.7176 277.736 35.624 278.417 35.624C279.391 35.624 280.222 35.7962 280.911 36.1406C281.599 36.485 282.127 36.9455 282.494 37.522C282.861 38.091 283.044 38.7236 283.044 39.4199H280.967C280.967 39.083 280.866 38.7573 280.664 38.4429C280.469 38.1209 280.181 37.8551 279.799 37.6455C279.424 37.4359 278.964 37.3311 278.417 37.3311C277.841 37.3311 277.373 37.4209 277.014 37.6006C276.662 37.7728 276.403 37.9937 276.239 38.2632C276.082 38.5327 276.003 38.8172 276.003 39.1167C276.003 39.3413 276.04 39.5435 276.115 39.7231C276.198 39.8953 276.34 40.0563 276.542 40.2061C276.744 40.3483 277.029 40.4831 277.396 40.6104C277.762 40.7376 278.23 40.8649 278.799 40.9922C279.795 41.2168 280.615 41.4863 281.259 41.8008C281.903 42.1152 282.382 42.5008 282.696 42.9575C283.011 43.4142 283.168 43.9683 283.168 44.6196C283.168 45.1512 283.056 45.6379 282.831 46.0796C282.614 46.5213 282.296 46.9032 281.876 47.2251C281.465 47.5396 280.971 47.7866 280.394 47.9663C279.825 48.1385 279.185 48.2246 278.474 48.2246C277.403 48.2246 276.497 48.0337 275.756 47.6519C275.015 47.27 274.453 46.7759 274.071 46.1694C273.689 45.563 273.499 44.9229 273.499 44.249H275.587C275.617 44.818 275.782 45.271 276.082 45.6079C276.381 45.9373 276.748 46.1732 277.182 46.3154C277.616 46.4502 278.047 46.5176 278.474 46.5176C279.043 46.5176 279.518 46.4427 279.9 46.293C280.289 46.1432 280.585 45.9373 280.787 45.6753C280.989 45.4132 281.09 45.1138 281.09 44.7769ZM292.972 44.7769C292.972 44.4774 292.905 44.2004 292.77 43.9458C292.643 43.6838 292.377 43.4479 291.973 43.2383C291.576 43.0212 290.977 42.834 290.176 42.6768C289.502 42.5345 288.892 42.366 288.345 42.1714C287.806 41.9767 287.346 41.7409 286.964 41.4639C286.59 41.1868 286.301 40.8612 286.099 40.4868C285.897 40.1125 285.796 39.6745 285.796 39.1729C285.796 38.6937 285.901 38.2407 286.11 37.814C286.327 37.3872 286.631 37.0091 287.02 36.6797C287.417 36.3503 287.892 36.092 288.446 35.9048C289 35.7176 289.618 35.624 290.299 35.624C291.273 35.624 292.104 35.7962 292.792 36.1406C293.481 36.485 294.009 36.9455 294.376 37.522C294.743 38.091 294.926 38.7236 294.926 39.4199H292.849C292.849 39.083 292.748 38.7573 292.545 38.4429C292.351 38.1209 292.062 37.8551 291.681 37.6455C291.306 37.4359 290.846 37.3311 290.299 37.3311C289.723 37.3311 289.255 37.4209 288.896 37.6006C288.544 37.7728 288.285 37.9937 288.121 38.2632C287.963 38.5327 287.885 38.8172 287.885 39.1167C287.885 39.3413 287.922 39.5435 287.997 39.7231C288.079 39.8953 288.222 40.0563 288.424 40.2061C288.626 40.3483 288.91 40.4831 289.277 40.6104C289.644 40.7376 290.112 40.8649 290.681 40.9922C291.677 41.2168 292.497 41.4863 293.141 41.8008C293.785 42.1152 294.264 42.5008 294.578 42.9575C294.893 43.4142 295.05 43.9683 295.05 44.6196C295.05 45.1512 294.938 45.6379 294.713 46.0796C294.496 46.5213 294.178 46.9032 293.758 47.2251C293.347 47.5396 292.852 47.7866 292.276 47.9663C291.707 48.1385 291.067 48.2246 290.355 48.2246C289.285 48.2246 288.379 48.0337 287.638 47.6519C286.896 47.27 286.335 46.7759 285.953 46.1694C285.571 45.563 285.38 44.9229 285.38 44.249H287.469C287.499 44.818 287.664 45.271 287.963 45.6079C288.263 45.9373 288.63 46.1732 289.064 46.3154C289.498 46.4502 289.929 46.5176 290.355 46.5176C290.924 46.5176 291.4 46.4427 291.782 46.293C292.171 46.1432 292.467 45.9373 292.669 45.6753C292.871 45.4132 292.972 45.1138 292.972 44.7769ZM297.229 42.0591V41.8008C297.229 40.9248 297.356 40.1125 297.61 39.3638C297.865 38.6076 298.232 37.9525 298.711 37.3984C299.19 36.8369 299.77 36.4027 300.452 36.0957C301.133 35.7812 301.897 35.624 302.743 35.624C303.596 35.624 304.364 35.7812 305.045 36.0957C305.734 36.4027 306.318 36.8369 306.797 37.3984C307.284 37.9525 307.654 38.6076 307.909 39.3638C308.163 40.1125 308.291 40.9248 308.291 41.8008V42.0591C308.291 42.9351 308.163 43.7474 307.909 44.4961C307.654 45.2448 307.284 45.8999 306.797 46.4614C306.318 47.0155 305.737 47.4497 305.056 47.7642C304.382 48.0711 303.619 48.2246 302.765 48.2246C301.912 48.2246 301.144 48.0711 300.463 47.7642C299.782 47.4497 299.198 47.0155 298.711 46.4614C298.232 45.8999 297.865 45.2448 297.61 44.4961C297.356 43.7474 297.229 42.9351 297.229 42.0591ZM299.306 41.8008V42.0591C299.306 42.6655 299.377 43.2383 299.52 43.7773C299.662 44.3089 299.875 44.7806 300.16 45.1924C300.452 45.6042 300.815 45.9299 301.249 46.1694C301.683 46.4015 302.189 46.5176 302.765 46.5176C303.334 46.5176 303.832 46.4015 304.259 46.1694C304.693 45.9299 305.052 45.6042 305.337 45.1924C305.621 44.7806 305.835 44.3089 305.977 43.7773C306.127 43.2383 306.202 42.6655 306.202 42.0591V41.8008C306.202 41.2018 306.127 40.6366 305.977 40.105C305.835 39.5659 305.618 39.0905 305.326 38.6787C305.041 38.2594 304.682 37.93 304.248 37.6904C303.821 37.4508 303.319 37.3311 302.743 37.3311C302.174 37.3311 301.672 37.4508 301.238 37.6904C300.811 37.93 300.452 38.2594 300.16 38.6787C299.875 39.0905 299.662 39.5659 299.52 40.105C299.377 40.6366 299.306 41.2018 299.306 41.8008ZM315.759 46.5176C316.253 46.5176 316.71 46.4165 317.129 46.2144C317.548 46.0122 317.893 45.7352 318.162 45.3833C318.432 45.0239 318.585 44.6159 318.623 44.1592H320.599C320.562 44.8779 320.318 45.548 319.869 46.1694C319.427 46.7834 318.847 47.2812 318.128 47.6631C317.41 48.0374 316.62 48.2246 315.759 48.2246C314.845 48.2246 314.048 48.0636 313.367 47.7417C312.693 47.4198 312.131 46.978 311.682 46.4165C311.24 45.855 310.907 45.2111 310.683 44.4849C310.465 43.7511 310.357 42.9762 310.357 42.1602V41.6885C310.357 40.8724 310.465 40.1012 310.683 39.375C310.907 38.6413 311.24 37.9937 311.682 37.4321C312.131 36.8706 312.693 36.4289 313.367 36.1069C314.048 35.785 314.845 35.624 315.759 35.624C316.71 35.624 317.541 35.8187 318.252 36.208C318.963 36.5898 319.521 37.1139 319.925 37.7803C320.337 38.4391 320.562 39.1878 320.599 40.0264H318.623C318.585 39.5247 318.443 39.0718 318.196 38.6675C317.956 38.2632 317.627 37.9412 317.208 37.7017C316.796 37.4546 316.313 37.3311 315.759 37.3311C315.122 37.3311 314.587 37.4583 314.153 37.7129C313.726 37.96 313.385 38.2969 313.131 38.7236C312.884 39.1429 312.704 39.6108 312.592 40.1274C312.487 40.6366 312.435 41.1569 312.435 41.6885V42.1602C312.435 42.6917 312.487 43.2158 312.592 43.7324C312.697 44.249 312.873 44.717 313.12 45.1362C313.374 45.5555 313.715 45.8924 314.142 46.147C314.576 46.394 315.115 46.5176 315.759 46.5176ZM325.192 35.8486V48H323.104V35.8486H325.192ZM322.946 32.6255C322.946 32.2886 323.047 32.0041 323.25 31.772C323.459 31.5399 323.766 31.4238 324.17 31.4238C324.567 31.4238 324.87 31.5399 325.08 31.772C325.297 32.0041 325.406 32.2886 325.406 32.6255C325.406 32.9474 325.297 33.2244 325.08 33.4565C324.87 33.6812 324.567 33.7935 324.17 33.7935C323.766 33.7935 323.459 33.6812 323.25 33.4565C323.047 33.2244 322.946 32.9474 322.946 32.6255ZM335.693 45.9224V39.667C335.693 39.1878 335.596 38.7723 335.401 38.4204C335.214 38.061 334.929 37.784 334.547 37.5894C334.166 37.3947 333.694 37.2974 333.132 37.2974C332.608 37.2974 332.148 37.3872 331.751 37.5669C331.362 37.7466 331.055 37.9824 330.83 38.2744C330.613 38.5664 330.504 38.8809 330.504 39.2178H328.427C328.427 38.7835 328.539 38.353 328.764 37.9263C328.988 37.4995 329.31 37.1139 329.729 36.7695C330.156 36.4176 330.665 36.1406 331.257 35.9385C331.856 35.7288 332.522 35.624 333.256 35.624C334.139 35.624 334.918 35.7738 335.592 36.0732C336.273 36.3727 336.805 36.8257 337.187 37.4321C337.576 38.0311 337.771 38.7835 337.771 39.6895V45.3496C337.771 45.7539 337.804 46.1844 337.872 46.6411C337.946 47.0978 338.055 47.4909 338.197 47.8203V48H336.03C335.925 47.7604 335.843 47.4422 335.783 47.0454C335.723 46.6411 335.693 46.2668 335.693 45.9224ZM336.052 40.6328L336.075 42.0928H333.975C333.383 42.0928 332.855 42.1414 332.391 42.2388C331.927 42.3286 331.538 42.4671 331.223 42.6543C330.909 42.8415 330.669 43.0773 330.504 43.3618C330.34 43.6388 330.257 43.9645 330.257 44.3389C330.257 44.7207 330.343 45.0688 330.516 45.3833C330.688 45.6978 330.946 45.9486 331.291 46.1357C331.642 46.3154 332.073 46.4053 332.582 46.4053C333.218 46.4053 333.78 46.2705 334.267 46.001C334.753 45.7314 335.139 45.402 335.423 45.0127C335.715 44.6234 335.873 44.2453 335.895 43.8784L336.782 44.8779C336.73 45.1924 336.588 45.5405 336.355 45.9224C336.123 46.3042 335.813 46.6711 335.423 47.0229C335.042 47.3674 334.585 47.6556 334.053 47.8877C333.529 48.1123 332.938 48.2246 332.279 48.2246C331.455 48.2246 330.733 48.0636 330.111 47.7417C329.497 47.4198 329.018 46.9893 328.674 46.4502C328.337 45.9036 328.168 45.2935 328.168 44.6196C328.168 43.9683 328.296 43.3955 328.55 42.9014C328.805 42.3997 329.172 41.9842 329.651 41.6548C330.13 41.3179 330.707 41.0633 331.38 40.8911C332.054 40.7189 332.807 40.6328 333.638 40.6328H336.052ZM346.126 35.8486V37.4434H339.556V35.8486H346.126ZM341.78 32.895H343.857V44.9902C343.857 45.402 343.921 45.7127 344.048 45.9224C344.176 46.132 344.34 46.2705 344.542 46.3379C344.745 46.4053 344.962 46.439 345.194 46.439C345.366 46.439 345.546 46.424 345.733 46.394C345.928 46.3566 346.074 46.3267 346.171 46.3042L346.182 48C346.017 48.0524 345.8 48.1011 345.531 48.146C345.269 48.1984 344.951 48.2246 344.576 48.2246C344.067 48.2246 343.599 48.1235 343.172 47.9214C342.746 47.7192 342.405 47.3823 342.15 46.9106C341.903 46.4315 341.78 45.7876 341.78 44.979V32.895ZM350.82 35.8486V48H348.731V35.8486H350.82ZM348.574 32.6255C348.574 32.2886 348.675 32.0041 348.877 31.772C349.087 31.5399 349.394 31.4238 349.798 31.4238C350.195 31.4238 350.498 31.5399 350.708 31.772C350.925 32.0041 351.034 32.2886 351.034 32.6255C351.034 32.9474 350.925 33.2244 350.708 33.4565C350.498 33.6812 350.195 33.7935 349.798 33.7935C349.394 33.7935 349.087 33.6812 348.877 33.4565C348.675 33.2244 348.574 32.9474 348.574 32.6255ZM353.605 42.0591V41.8008C353.605 40.9248 353.733 40.1125 353.987 39.3638C354.242 38.6076 354.609 37.9525 355.088 37.3984C355.567 36.8369 356.147 36.4027 356.829 36.0957C357.51 35.7812 358.274 35.624 359.12 35.624C359.973 35.624 360.741 35.7812 361.422 36.0957C362.111 36.4027 362.695 36.8369 363.174 37.3984C363.66 37.9525 364.031 38.6076 364.286 39.3638C364.54 40.1125 364.667 40.9248 364.667 41.8008V42.0591C364.667 42.9351 364.54 43.7474 364.286 44.4961C364.031 45.2448 363.66 45.8999 363.174 46.4614C362.695 47.0155 362.114 47.4497 361.433 47.7642C360.759 48.0711 359.996 48.2246 359.142 48.2246C358.289 48.2246 357.521 48.0711 356.84 47.7642C356.159 47.4497 355.575 47.0155 355.088 46.4614C354.609 45.8999 354.242 45.2448 353.987 44.4961C353.733 43.7474 353.605 42.9351 353.605 42.0591ZM355.683 41.8008V42.0591C355.683 42.6655 355.754 43.2383 355.896 43.7773C356.039 44.3089 356.252 44.7806 356.537 45.1924C356.829 45.6042 357.192 45.9299 357.626 46.1694C358.06 46.4015 358.566 46.5176 359.142 46.5176C359.711 46.5176 360.209 46.4015 360.636 46.1694C361.07 45.9299 361.429 45.6042 361.714 45.1924C361.998 44.7806 362.212 44.3089 362.354 43.7773C362.504 43.2383 362.579 42.6655 362.579 42.0591V41.8008C362.579 41.2018 362.504 40.6366 362.354 40.105C362.212 39.5659 361.995 39.0905 361.703 38.6787C361.418 38.2594 361.059 37.93 360.625 37.6904C360.198 37.4508 359.696 37.3311 359.12 37.3311C358.551 37.3311 358.049 37.4508 357.615 37.6904C357.188 37.93 356.829 38.2594 356.537 38.6787C356.252 39.0905 356.039 39.5659 355.896 40.105C355.754 40.6366 355.683 41.2018 355.683 41.8008ZM369.351 38.4429V48H367.273V35.8486H369.238L369.351 38.4429ZM368.856 41.4639L367.992 41.4302C367.999 40.5991 368.123 39.8317 368.362 39.1279C368.602 38.4167 368.939 37.799 369.373 37.2749C369.807 36.7508 370.324 36.3465 370.923 36.062C371.529 35.77 372.199 35.624 372.933 35.624C373.532 35.624 374.071 35.7064 374.55 35.8711C375.029 36.0283 375.438 36.2829 375.774 36.6348C376.119 36.9867 376.381 37.4434 376.561 38.0049C376.74 38.5589 376.83 39.2365 376.83 40.0376V48H374.741V40.0151C374.741 39.3787 374.648 38.8696 374.46 38.4878C374.273 38.0985 374 37.8177 373.641 37.6455C373.281 37.4658 372.84 37.376 372.315 37.376C371.799 37.376 371.327 37.4845 370.9 37.7017C370.481 37.9188 370.118 38.2183 369.811 38.6001C369.512 38.9819 369.276 39.4199 369.104 39.9141C368.939 40.4007 368.856 40.9173 368.856 41.4639Z" fill="#006A86"></path><defs><clipPath id="clip0_1040_1407"><rect width="125" height="49" fill="white" transform="translate(0 2)"></rect></clipPath></defs></svg>